<svg version="1.1" viewBox="0.0 0.0 945.0 378.0" fill="none" stroke="none" stroke-linecap="square" stroke-miterlimit="10" width="945" height="378" xmlns:xlink="http://www.w3.org/1999/xlink" xmlns="http://www.w3.org/2000/svg"><path fill="#ffffff" d="M0 0L945.0 0L945.0 378.0L0 378.0L0 0Z" fill-rule="nonzero"/><path fill="#f9cb9c" d="M472.5 89.655C524.15955 89.655 572.2731 108.04538 600.2023 138.4665L472.5 195.915Z" fill-rule="nonzero"/><path fill="#2a8b61" d="M624.3 218.685C624.3 277.3708 556.33685 324.945 472.5 324.945L472.5 302.175C556.33685 302.175 624.3 254.60078 624.3 195.915Z" fill-rule="nonzero"/><path fill="#3cc68a" d="M600.2023 138.4665C630.22174 171.16437 632.34235 212.72636 605.7317 246.84C579.12103 280.95364 528.02576 302.175 472.5 302.175L472.5 195.915Z" fill-rule="nonzero"/><path fill="#7388ab" d="M326.84897 248.6219C322.77063 238.89922 320.7 228.81816 320.7 218.685L320.7 195.915C320.7 206.04816 322.77063 216.12921 326.84897 225.8519Z" fill-rule="nonzero"/><path fill="#a4c2f4" d="M326.84897 225.8519C313.37415 193.72821 322.31537 159.03777 350.97784 132.23575C379.64032 105.43374 424.67163 89.655 472.5 89.655L472.5 195.915Z" fill-rule="nonzero"/><path fill="#7e7596" d="M472.5 324.945C405.13483 324.945 345.82794 293.8674 326.84897 248.6219L326.84897 225.8519C345.82794 271.0974 405.13483 302.175 472.5 302.175Z" fill-rule="nonzero"/><path fill="#b4a7d6" d="M472.5 302.175C405.13483 302.175 345.82794 271.0974 326.84897 225.8519L472.5 195.915Z" fill-rule="nonzero"/><path fill="#1a1a1a" d="M19.275 129.06035L20.30625 128.9041Q20.4 129.5291 20.790625 129.85722Q21.196875 130.18535 21.93125 130.18535Q22.65 130.18535 22.99375 129.9041Q23.353125 129.60722 23.353125 129.20097Q23.353125 128.8416 23.040625 128.63847Q22.821875 128.49785 21.9625 128.2791Q20.80625 127.98222 20.353125 127.7791Q19.915625 127.56035 19.68125 127.18535Q19.446875 126.81035 19.446875 126.3416Q19.446875 125.93535 19.634375 125.57597Q19.821875 125.2166 20.15 124.98222Q20.4 124.81035 20.821875 124.68535Q21.24375 124.56035 21.74375 124.56035Q22.4625 124.56035 23.009375 124.7791Q23.571875 124.98222 23.8375 125.3416Q24.103125 125.70097 24.196875 126.29472L23.165625 126.43535Q23.103125 125.9666 22.759375 125.70097Q22.43125 125.41972 21.80625 125.41972Q21.0875 125.41972 20.775 125.66972Q20.4625 125.9041 20.4625 126.23222Q20.4625 126.43535 20.5875 126.5916Q20.728125 126.76347 20.99375 126.87285Q21.15 126.93535 21.93125 127.13847Q23.05625 127.45097 23.49375 127.63847Q23.93125 127.82597 24.18125 128.18535Q24.43125 128.54472 24.43125 129.0916Q24.43125 129.62285 24.11875 130.0916Q23.821875 130.54472 23.24375 130.81035Q22.665625 131.06035 21.93125 131.06035Q20.7125 131.06035 20.071875 130.56035Q19.446875 130.04472 19.275 129.06035ZM27.99375 129.98222L28.15 130.9041Q27.696875 130.99785 27.353125 130.99785Q26.775 130.99785 26.4625 130.82597Q26.15 130.63847 26.009375 130.3416Q25.884375 130.04472 25.884375 129.0916L25.884375 125.51347L25.11875 125.51347L25.11875 124.70097L25.884375 124.70097L25.884375 123.1541L26.93125 122.5291L26.93125 124.70097L27.99375 124.70097L27.99375 125.51347L26.93125 125.51347L26.93125 129.1541Q26.93125 129.60722 26.978125 129.73222Q27.040625 129.85722 27.165625 129.93535Q27.290625 130.01347 27.525 130.01347Q27.7125 130.01347 27.99375 129.98222ZM32.759377 130.1541Q32.165627 130.6541 31.61875 130.85722Q31.0875 131.06035 30.4625 131.06035Q29.43125 131.06035 28.884375 130.56035Q28.3375 130.06035 28.3375 129.2791Q28.3375 128.82597 28.540625 128.45097Q28.74375 128.06035 29.0875 127.8416Q29.43125 127.60722 29.853125 127.49785Q30.15 127.4041 30.790625 127.32597Q32.05625 127.18535 32.665627 126.9666Q32.665627 126.74785 32.665627 126.70097Q32.665627 126.04472 32.36875 125.7791Q31.9625 125.43535 31.165625 125.43535Q30.43125 125.43535 30.071875 125.70097Q29.7125 125.95097 29.540625 126.60722L28.509375 126.4666Q28.65 125.81035 28.978125 125.4041Q29.30625 124.99785 29.915625 124.7791Q30.525 124.56035 31.321875 124.56035Q32.11875 124.56035 32.61875 124.74785Q33.11875 124.93535 33.353127 125.2166Q33.5875 125.49785 33.68125 125.93535Q33.728127 126.20097 33.728127 126.9041L33.728127 128.31035Q33.728127 129.7791 33.790627 130.16972Q33.86875 130.56035 34.071877 130.91972L32.9625 130.91972Q32.80625 130.5916 32.759377 130.1541ZM32.665627 127.79472Q32.0875 128.0291 30.946875 128.20097Q30.290625 128.29472 30.025 128.41972Q29.759375 128.5291 29.603125 128.74785Q29.4625 128.9666 29.4625 129.24785Q29.4625 129.66972 29.775 129.95097Q30.103125 130.23222 30.7125 130.23222Q31.321875 130.23222 31.790625 129.9666Q32.275 129.70097 32.49375 129.23222Q32.665627 128.87285 32.665627 128.18535L32.665627 127.79472ZM37.99375 129.98222L38.15 130.9041Q37.696877 130.99785 37.353127 130.99785Q36.775 130.99785 36.4625 130.82597Q36.15 130.63847 36.009377 130.3416Q35.884377 130.04472 35.884377 129.0916L35.884377 125.51347L35.11875 125.51347L35.11875 124.70097L35.884377 124.70097L35.884377 123.1541L36.93125 122.5291L36.93125 124.70097L37.99375 124.70097L37.99375 125.51347L36.93125 125.51347L36.93125 129.1541Q36.93125 129.60722 36.978127 129.73222Q37.040627 129.85722 37.165627 129.93535Q37.290627 130.01347 37.525 130.01347Q37.7125 130.01347 37.99375 129.98222ZM42.775 130.91972L42.775 129.99785Q42.040627 131.06035 40.790627 131.06035Q40.24375 131.06035 39.759377 130.85722Q39.290627 130.63847 39.05625 130.32597Q38.821877 129.99785 38.728127 129.5291Q38.665627 129.23222 38.665627 128.54472L38.665627 124.70097L39.728127 124.70097L39.728127 128.1541Q39.728127 128.9666 39.790627 129.26347Q39.884377 129.66972 40.196877 129.91972Q40.525 130.1541 41.009377 130.1541Q41.478127 130.1541 41.884377 129.91972Q42.30625 129.66972 42.478127 129.24785Q42.665627 128.82597 42.665627 128.0291L42.665627 124.70097L43.7125 124.70097L43.7125 130.91972L42.775 130.91972ZM45.275 129.06035L46.30625 128.9041Q46.4 129.5291 46.790627 129.85722Q47.196877 130.18535 47.93125 130.18535Q48.65 130.18535 48.99375 129.9041Q49.353127 129.60722 49.353127 129.20097Q49.353127 128.8416 49.040627 128.63847Q48.821877 128.49785 47.9625 128.2791Q46.80625 127.98222 46.353127 127.7791Q45.915627 127.56035 45.68125 127.18535Q45.446877 126.81035 45.446877 126.3416Q45.446877 125.93535 45.634377 125.57597Q45.821877 125.2166 46.15 124.98222Q46.4 124.81035 46.821877 124.68535Q47.24375 124.56035 47.74375 124.56035Q48.4625 124.56035 49.009377 124.7791Q49.571877 124.98222 49.8375 125.3416Q50.103127 125.70097 50.196877 126.29472L49.165627 126.43535Q49.103127 125.9666 48.759377 125.70097Q48.43125 125.41972 47.80625 125.41972Q47.0875 125.41972 46.775 125.66972Q46.4625 125.9041 46.4625 126.23222Q46.4625 126.43535 46.5875 126.5916Q46.728127 126.76347 46.99375 126.87285Q47.15 126.93535 47.93125 127.13847Q49.05625 127.45097 49.49375 127.63847Q49.93125 127.82597 50.18125 128.18535Q50.43125 128.54472 50.43125 129.0916Q50.43125 129.62285 50.11875 130.0916Q49.821877 130.54472 49.24375 130.81035Q48.665627 131.06035 47.93125 131.06035Q46.7125 131.06035 46.071877 130.56035Q45.446877 130.04472 45.275 129.06035ZM54.68125 130.91972L54.68125 124.70097L55.634377 124.70097L55.634377 125.63847Q55.99375 124.98222 56.290627 124.7791Q56.603127 124.56035 56.978127 124.56035Q57.509377 124.56035 58.05625 124.88847L57.696877 125.87285Q57.30625 125.63847 56.93125 125.63847Q56.571877 125.63847 56.290627 125.85722Q56.025 126.06035 55.915627 126.43535Q55.728127 126.99785 55.728127 127.6541L55.728127 130.91972L54.68125 130.91972ZM62.946877 128.91972L64.04063 129.04472Q63.790627 129.99785 63.0875 130.5291Q62.384377 131.06035 61.30625 131.06035Q59.946877 131.06035 59.134377 130.2166Q58.3375 129.37285 58.3375 127.85722Q58.3375 126.29472 59.15 125.43535Q59.9625 124.56035 61.24375 124.56035Q62.49375 124.56035 63.275 125.4041Q64.07188 126.24785 64.07188 127.79472Q64.07188 127.88847 64.07188 128.07597L59.43125 128.07597Q59.49375 129.10722 60.009377 129.6541Q60.525 130.18535 61.30625 130.18535Q61.884377 130.18535 62.290627 129.88847Q62.7125 129.57597 62.946877 128.91972ZM59.49375 127.2166L62.9625 127.2166Q62.9 126.41972 62.571877 126.0291Q62.05625 125.41972 61.259377 125.41972Q60.525 125.41972 60.025 125.9041Q59.540627 126.38847 59.49375 127.2166ZM65.69688 133.31035L65.69688 124.70097L66.65 124.70097L66.65 125.49785Q66.99375 125.0291 67.41563 124.79472Q67.85313 124.56035 68.4625 124.56035Q69.25938 124.56035 69.86875 124.9666Q70.47813 125.37285 70.775 126.12285Q71.0875 126.87285 71.0875 127.76347Q71.0875 128.7166 70.74375 129.48222Q70.41563 130.24785 69.75938 130.6541Q69.10313 131.06035 68.38438 131.06035Q67.85313 131.06035 67.43125 130.8416Q67.00938 130.60722 66.74375 130.2791L66.74375 133.31035L65.69688 133.31035ZM66.65 127.8416Q66.65 129.04472 67.13438 129.62285Q67.61875 130.18535 68.30625 130.18535Q69.00938 130.18535 69.50938 129.5916Q70.00938 128.99785 70.00938 127.74785Q70.00938 126.56035 69.525 125.98222Q69.04063 125.38847 68.35313 125.38847Q67.68125 125.38847 67.16563 126.01347Q66.65 126.63847 66.65 127.8416ZM72.30625 127.81035Q72.30625 126.07597 73.25938 125.24785Q74.05625 124.56035 75.2125 124.56035Q76.49375 124.56035 77.30625 125.4041Q78.13438 126.23222 78.13438 127.7166Q78.13438 128.91972 77.775 129.60722Q77.41563 130.29472 76.7125 130.68535Q76.025 131.06035 75.2125 131.06035Q73.91563 131.06035 73.10313 130.23222Q72.30625 129.38847 72.30625 127.81035ZM73.38438 127.81035Q73.38438 128.99785 73.9 129.5916Q74.43125 130.18535 75.2125 130.18535Q76.00938 130.18535 76.525 129.5916Q77.04063 128.99785 77.04063 127.7791Q77.04063 126.62285 76.50938 126.0291Q75.99375 125.43535 75.2125 125.43535Q74.43125 125.43535 73.9 126.0291Q73.38438 126.60722 73.38438 127.81035ZM79.68125 130.91972L79.68125 124.70097L80.63438 124.70097L80.63438 125.63847Q80.99375 124.98222 81.29063 124.7791Q81.60313 124.56035 81.97813 124.56035Q82.50938 124.56035 83.05625 124.88847L82.69688 125.87285Q82.30625 125.63847 81.93125 125.63847Q81.57188 125.63847 81.29063 125.85722Q81.025 126.06035 80.91563 126.43535Q80.72813 126.99785 80.72813 127.6541L80.72813 130.91972L79.68125 130.91972ZM85.99375 129.98222L86.15 130.9041Q85.69688 130.99785 85.35313 130.99785Q84.775 130.99785 84.4625 130.82597Q84.15 130.63847 84.00938 130.3416Q83.88438 130.04472 83.88438 129.0916L83.88438 125.51347L83.11875 125.51347L83.11875 124.70097L83.88438 124.70097L83.88438 123.1541L84.93125 122.5291L84.93125 124.70097L85.99375 124.70097L85.99375 125.51347L84.93125 125.51347L84.93125 129.1541Q84.93125 129.60722 84.97813 129.73222Q85.04063 129.85722 85.16563 129.93535Q85.29063 130.01347 85.525 130.01347Q85.7125 130.01347 85.99375 129.98222Z" fill-rule="nonzero"/><path fill="#9e9e9e" d="M24.946875 146.9041L24.946875 147.91972L19.259375 147.91972Q19.259375 147.54472 19.384375 147.18535Q19.603125 146.60722 20.071875 146.04472Q20.55625 145.48222 21.4625 144.74785Q22.86875 143.5916 23.353125 142.91972Q23.853125 142.24785 23.853125 141.6541Q23.853125 141.0291 23.4 140.60722Q22.946875 140.16972 22.228125 140.16972Q21.4625 140.16972 21.009375 140.62285Q20.55625 141.07597 20.540625 141.88847L19.4625 141.7791Q19.571875 140.56035 20.290625 139.93535Q21.025 139.29472 22.259375 139.29472Q23.49375 139.29472 24.2125 139.98222Q24.93125 140.66972 24.93125 141.68535Q24.93125 142.20097 24.7125 142.70097Q24.509375 143.18535 24.009375 143.74785Q23.525 144.29472 22.4 145.24785Q21.446875 146.04472 21.165625 146.3416Q20.9 146.62285 20.728125 146.9041L24.946875 146.9041ZM26.55625 145.93535L27.571875 145.8416Q27.696875 146.56035 28.05625 146.88847Q28.43125 147.20097 28.99375 147.20097Q29.478125 147.20097 29.8375 146.98222Q30.2125 146.74785 30.446875 146.38847Q30.68125 146.01347 30.8375 145.38847Q30.99375 144.74785 30.99375 144.0916Q30.99375 144.01347 30.99375 143.87285Q30.68125 144.37285 30.134375 144.70097Q29.5875 145.01347 28.946875 145.01347Q27.86875 145.01347 27.134375 144.24785Q26.4 143.4666 26.4 142.20097Q26.4 140.88847 27.165625 140.0916Q27.946875 139.29472 29.103125 139.29472Q29.93125 139.29472 30.61875 139.74785Q31.321875 140.20097 31.68125 141.04472Q32.040627 141.87285 32.040627 143.45097Q32.040627 145.0916 31.68125 146.07597Q31.3375 147.04472 30.61875 147.56035Q29.915625 148.06035 28.978125 148.06035Q27.9625 148.06035 27.321875 147.51347Q26.68125 146.95097 26.55625 145.93535ZM30.86875 142.13847Q30.86875 141.23222 30.384375 140.70097Q29.915625 140.16972 29.228125 140.16972Q28.525 140.16972 27.99375 140.74785Q27.478125 141.31035 27.478125 142.23222Q27.478125 143.04472 27.978125 143.56035Q28.478125 144.07597 29.196875 144.07597Q29.93125 144.07597 30.4 143.56035Q30.86875 143.04472 30.86875 142.13847ZM33.99375 147.91972L33.99375 146.7166L35.196877 146.7166L35.196877 147.91972L33.99375 147.91972ZM36.4 145.66972L37.509377 145.57597Q37.634377 146.38847 38.071877 146.79472Q38.525 147.20097 39.165627 147.20097Q39.915627 147.20097 40.446877 146.62285Q40.978127 146.04472 40.978127 145.10722Q40.978127 144.20097 40.4625 143.68535Q39.9625 143.1541 39.134377 143.1541Q38.634377 143.1541 38.2125 143.38847Q37.80625 143.62285 37.571877 143.98222L36.5875 143.85722L37.415627 139.45097L41.696877 139.45097L41.696877 140.45097L38.259377 140.45097L37.80625 142.76347Q38.571877 142.2166 39.415627 142.2166Q40.540627 142.2166 41.30625 142.99785Q42.0875 143.7791 42.0875 145.01347Q42.0875 146.16972 41.415627 147.0291Q40.5875 148.06035 39.165627 148.06035Q37.99375 148.06035 37.24375 147.4041Q36.509377 146.74785 36.4 145.66972ZM43.603127 141.38847Q43.603127 140.4666 44.05625 139.82597Q44.525 139.18535 45.4 139.18535Q46.2125 139.18535 46.74375 139.76347Q47.275 140.3416 47.275 141.45097Q47.275 142.54472 46.728127 143.13847Q46.196877 143.7166 45.415627 143.7166Q44.634377 143.7166 44.11875 143.13847Q43.603127 142.56035 43.603127 141.38847ZM45.43125 139.9041Q45.040627 139.9041 44.775 140.24785Q44.525 140.5916 44.525 141.49785Q44.525 142.32597 44.775 142.66972Q45.040627 142.99785 45.43125 142.99785Q45.8375 142.99785 46.0875 142.6541Q46.353127 142.31035 46.353127 141.41972Q46.353127 140.57597 46.0875 140.24785Q45.821877 139.9041 45.43125 139.9041ZM45.43125 148.23222L50.134377 139.18535L50.99375 139.18535L46.30625 148.23222L45.43125 148.23222ZM49.15 145.9041Q49.15 144.98222 49.603127 144.3416Q50.071877 143.70097 50.9625 143.70097Q51.775 143.70097 52.30625 144.2791Q52.8375 144.8416 52.8375 145.9666Q52.8375 147.06035 52.290627 147.6541Q51.759377 148.23222 50.9625 148.23222Q50.196877 148.23222 49.665627 147.6541Q49.15 147.07597 49.15 145.9041ZM50.99375 144.41972Q50.5875 144.41972 50.321877 144.76347Q50.071877 145.10722 50.071877 146.01347Q50.071877 146.82597 50.3375 147.16972Q50.603127 147.51347 50.99375 147.51347Q51.384377 147.51347 51.65 147.16972Q51.915627 146.82597 51.915627 145.91972Q51.915627 145.0916 51.65 144.76347Q51.384377 144.41972 50.99375 144.41972Z" fill-rule="nonzero"/><path stroke="#757575" stroke-width="1.0" stroke-linecap="butt" d="M18.9 135.41972L314.7 135.41972L357.05396 135.41972" fill-rule="nonzero"/><path fill="#9e9e9e" d="M359.05396 135.41972C359.05396 134.31516 358.1585 133.41972 357.05396 133.41972C355.94937 133.41972 355.05396 134.31516 355.05396 135.41972C355.05396 136.52429 355.94937 137.41972 357.05396 137.41972C358.1585 137.41972 359.05396 136.52429 359.05396 135.41972" fill-rule="nonzero"/><path fill="#1a1a1a" d="M19.696875 272.22723L19.696875 266.00848L20.634375 266.00848L20.634375 266.88348Q20.93125 266.41473 21.415625 266.1491Q21.9 265.86786 22.525 265.86786Q23.2125 265.86786 23.65 266.1491Q24.103125 266.43036 24.275 266.94598Q25.025 265.86786 26.196875 265.86786Q27.134375 265.86786 27.61875 266.38348Q28.11875 266.88348 28.11875 267.9616L28.11875 272.22723L27.071875 272.22723L27.071875 268.30536Q27.071875 267.68036 26.9625 267.3991Q26.86875 267.11786 26.603125 266.94598Q26.3375 266.7741 25.9625 266.7741Q25.30625 266.7741 24.86875 267.2116Q24.446875 267.6491 24.446875 268.61786L24.446875 272.22723L23.384375 272.22723L23.384375 268.18036Q23.384375 267.47723 23.11875 267.13348Q22.86875 266.7741 22.290625 266.7741Q21.8375 266.7741 21.4625 267.00848Q21.0875 267.24286 20.915625 267.69598Q20.74375 268.1491 20.74375 268.99286L20.74375 272.22723L19.696875 272.22723ZM33.759377 271.4616Q33.165627 271.9616 32.61875 272.16473Q32.0875 272.36786 31.4625 272.36786Q30.43125 272.36786 29.884375 271.86786Q29.3375 271.36786 29.3375 270.5866Q29.3375 270.13348 29.540625 269.75848Q29.74375 269.36786 30.0875 269.1491Q30.43125 268.91473 30.853125 268.80536Q31.15 268.7116 31.790625 268.63348Q33.05625 268.49286 33.665627 268.2741Q33.665627 268.05536 33.665627 268.00848Q33.665627 267.35223 33.36875 267.0866Q32.9625 266.74286 32.165627 266.74286Q31.43125 266.74286 31.071875 267.00848Q30.7125 267.25848 30.540625 267.91473L29.509375 267.7741Q29.65 267.11786 29.978125 266.7116Q30.30625 266.30536 30.915625 266.0866Q31.525 265.86786 32.321877 265.86786Q33.11875 265.86786 33.61875 266.05536Q34.11875 266.24286 34.353127 266.5241Q34.5875 266.80536 34.68125 267.24286Q34.728127 267.50848 34.728127 268.2116L34.728127 269.61786Q34.728127 271.0866 34.790627 271.47723Q34.86875 271.86786 35.071877 272.22723L33.9625 272.22723Q33.80625 271.8991 33.759377 271.4616ZM33.665627 269.10223Q33.0875 269.3366 31.946875 269.50848Q31.290625 269.60223 31.025 269.72723Q30.759375 269.8366 30.603125 270.05536Q30.4625 270.2741 30.4625 270.55536Q30.4625 270.97723 30.775 271.25848Q31.103125 271.53973 31.7125 271.53973Q32.321877 271.53973 32.790627 271.2741Q33.275 271.00848 33.49375 270.53973Q33.665627 270.18036 33.665627 269.49286L33.665627 269.10223ZM36.68125 272.22723L36.68125 266.00848L37.634377 266.00848L37.634377 266.94598Q37.99375 266.28973 38.290627 266.0866Q38.603127 265.86786 38.978127 265.86786Q39.509377 265.86786 40.05625 266.19598L39.696877 267.18036Q39.30625 266.94598 38.93125 266.94598Q38.571877 266.94598 38.290627 267.16473Q38.025 267.36786 37.915627 267.74286Q37.728127 268.30536 37.728127 268.9616L37.728127 272.22723L36.68125 272.22723ZM40.696877 272.22723L40.696877 263.63348L41.759377 263.63348L41.759377 268.53973L44.24375 266.00848L45.61875 266.00848L43.228127 268.30536L45.853127 272.22723L44.55625 272.22723L42.49375 269.03973L41.759377 269.75848L41.759377 272.22723L40.696877 272.22723ZM50.946877 270.22723L52.040627 270.35223Q51.790627 271.30536 51.0875 271.8366Q50.384377 272.36786 49.30625 272.36786Q47.946877 272.36786 47.134377 271.5241Q46.3375 270.68036 46.3375 269.16473Q46.3375 267.60223 47.15 266.74286Q47.9625 265.86786 49.24375 265.86786Q50.49375 265.86786 51.275 266.7116Q52.071877 267.55536 52.071877 269.10223Q52.071877 269.19598 52.071877 269.38348L47.43125 269.38348Q47.49375 270.41473 48.009377 270.9616Q48.525 271.49286 49.30625 271.49286Q49.884377 271.49286 50.290627 271.19598Q50.7125 270.88348 50.946877 270.22723ZM47.49375 268.5241L50.9625 268.5241Q50.9 267.72723 50.571877 267.3366Q50.05625 266.72723 49.259377 266.72723Q48.525 266.72723 48.025 267.2116Q47.540627 267.69598 47.49375 268.5241ZM55.99375 271.28973L56.15 272.2116Q55.696877 272.30536 55.353127 272.30536Q54.775 272.30536 54.4625 272.13348Q54.15 271.94598 54.009377 271.6491Q53.884377 271.35223 53.884377 270.3991L53.884377 266.82098L53.11875 266.82098L53.11875 266.00848L53.884377 266.00848L53.884377 264.4616L54.93125 263.8366L54.93125 266.00848L55.99375 266.00848L55.99375 266.82098L54.93125 266.82098L54.93125 270.4616Q54.93125 270.91473 54.978127 271.03973Q55.040627 271.16473 55.165627 271.24286Q55.290627 271.32098 55.525 271.32098Q55.7125 271.32098 55.99375 271.28973ZM56.696877 264.85223L56.696877 263.63348L57.759377 263.63348L57.759377 264.85223L56.696877 264.85223ZM56.696877 272.22723L56.696877 266.00848L57.759377 266.00848L57.759377 272.22723L56.696877 272.22723ZM59.696877 272.22723L59.696877 266.00848L60.634377 266.00848L60.634377 266.88348Q61.321877 265.86786 62.61875 265.86786Q63.18125 265.86786 63.65 266.07098Q64.13438 266.2741 64.36875 266.60223Q64.60313 266.93036 64.69688 267.36786Q64.74375 267.66473 64.74375 268.3991L64.74375 272.22723L63.696877 272.22723L63.696877 268.44598Q63.696877 267.78973 63.571877 267.47723Q63.446877 267.16473 63.134377 266.97723Q62.821877 266.7741 62.4 266.7741Q61.728127 266.7741 61.228127 267.2116Q60.74375 267.63348 60.74375 268.82098L60.74375 272.22723L59.696877 272.22723ZM66.49375 272.74286L67.525 272.8991Q67.5875 273.36786 67.88438 273.5866Q68.275 273.88348 68.94688 273.88348Q69.68125 273.88348 70.07188 273.5866Q70.47813 273.28973 70.61875 272.7741Q70.7125 272.44598 70.69688 271.41473Q70.00938 272.22723 68.97813 272.22723Q67.69688 272.22723 66.99375 271.30536Q66.29063 270.36786 66.29063 269.0866Q66.29063 268.19598 66.60313 267.44598Q66.93125 266.68036 67.54063 266.2741Q68.15 265.86786 68.97813 265.86786Q70.0875 265.86786 70.80625 266.75848L70.80625 266.00848L71.775 266.00848L71.775 271.38348Q71.775 272.8366 71.47813 273.44598Q71.18125 274.05536 70.54063 274.3991Q69.9 274.75848 68.9625 274.75848Q67.85313 274.75848 67.16563 274.25848Q66.47813 273.75848 66.49375 272.74286ZM67.36875 269.00848Q67.36875 270.22723 67.85313 270.78973Q68.3375 271.35223 69.07188 271.35223Q69.80625 271.35223 70.29063 270.78973Q70.79063 270.22723 70.79063 269.03973Q70.79063 267.8991 70.275 267.32098Q69.775 266.74286 69.05625 266.74286Q68.35313 266.74286 67.85313 267.32098Q67.36875 267.88348 67.36875 269.00848Z" fill-rule="nonzero"/><path fill="#9e9e9e" d="M24.946875 288.2116L24.946875 289.22723L19.259375 289.22723Q19.259375 288.85223 19.384375 288.49286Q19.603125 287.91473 20.071875 287.35223Q20.55625 286.78973 21.4625 286.05536Q22.86875 284.8991 23.353125 284.22723Q23.853125 283.55536 23.853125 282.9616Q23.853125 282.3366 23.4 281.91473Q22.946875 281.47723 22.228125 281.47723Q21.4625 281.47723 21.009375 281.93036Q20.55625 282.38348 20.540625 283.19598L19.4625 283.0866Q19.571875 281.86786 20.290625 281.24286Q21.025 280.60223 22.259375 280.60223Q23.49375 280.60223 24.2125 281.28973Q24.93125 281.97723 24.93125 282.99286Q24.93125 283.50848 24.7125 284.00848Q24.509375 284.49286 24.009375 285.05536Q23.525 285.60223 22.4 286.55536Q21.446875 287.35223 21.165625 287.6491Q20.9 287.93036 20.728125 288.2116L24.946875 288.2116ZM26.4 284.99286Q26.4 283.4616 26.7125 282.53973Q27.025 281.60223 27.634375 281.10223Q28.259375 280.60223 29.196875 280.60223Q29.884375 280.60223 30.4 280.88348Q30.93125 281.16473 31.275 281.69598Q31.61875 282.2116 31.80625 282.9616Q31.99375 283.7116 31.99375 284.99286Q31.99375 286.50848 31.68125 287.43036Q31.384375 288.35223 30.759375 288.86786Q30.15 289.36786 29.196875 289.36786Q27.9625 289.36786 27.24375 288.47723Q26.4 287.41473 26.4 284.99286ZM27.478125 284.99286Q27.478125 287.10223 27.978125 287.80536Q28.478125 288.50848 29.196875 288.50848Q29.93125 288.50848 30.415625 287.80536Q30.915625 287.10223 30.915625 284.99286Q30.915625 282.86786 30.415625 282.18036Q29.93125 281.47723 29.18125 281.47723Q28.4625 281.47723 28.025 282.0866Q27.478125 282.86786 27.478125 284.99286ZM33.99375 289.22723L33.99375 288.0241L35.196877 288.0241L35.196877 289.22723L33.99375 289.22723ZM36.4 286.97723L37.509377 286.88348Q37.634377 287.69598 38.071877 288.10223Q38.525 288.50848 39.165627 288.50848Q39.915627 288.50848 40.446877 287.93036Q40.978127 287.35223 40.978127 286.41473Q40.978127 285.50848 40.4625 284.99286Q39.9625 284.4616 39.134377 284.4616Q38.634377 284.4616 38.2125 284.69598Q37.80625 284.93036 37.571877 285.28973L36.5875 285.16473L37.415627 280.75848L41.696877 280.75848L41.696877 281.75848L38.259377 281.75848L37.80625 284.07098Q38.571877 283.5241 39.415627 283.5241Q40.540627 283.5241 41.30625 284.30536Q42.0875 285.0866 42.0875 286.32098Q42.0875 287.47723 41.415627 288.3366Q40.5875 289.36786 39.165627 289.36786Q37.99375 289.36786 37.24375 288.7116Q36.509377 288.05536 36.4 286.97723ZM43.603127 282.69598Q43.603127 281.7741 44.05625 281.13348Q44.525 280.49286 45.4 280.49286Q46.2125 280.49286 46.74375 281.07098Q47.275 281.6491 47.275 282.75848Q47.275 283.85223 46.728127 284.44598Q46.196877 285.0241 45.415627 285.0241Q44.634377 285.0241 44.11875 284.44598Q43.603127 283.86786 43.603127 282.69598ZM45.43125 281.2116Q45.040627 281.2116 44.775 281.55536Q44.525 281.8991 44.525 282.80536Q44.525 283.63348 44.775 283.97723Q45.040627 284.30536 45.43125 284.30536Q45.8375 284.30536 46.0875 283.9616Q46.353127 283.61786 46.353127 282.72723Q46.353127 281.88348 46.0875 281.55536Q45.821877 281.2116 45.43125 281.2116ZM45.43125 289.53973L50.134377 280.49286L50.99375 280.49286L46.30625 289.53973L45.43125 289.53973ZM49.15 287.2116Q49.15 286.28973 49.603127 285.6491Q50.071877 285.00848 50.9625 285.00848Q51.775 285.00848 52.30625 285.5866Q52.8375 286.1491 52.8375 287.2741Q52.8375 288.36786 52.290627 288.9616Q51.759377 289.53973 50.9625 289.53973Q50.196877 289.53973 49.665627 288.9616Q49.15 288.38348 49.15 287.2116ZM50.99375 285.72723Q50.5875 285.72723 50.321877 286.07098Q50.071877 286.41473 50.071877 287.32098Q50.071877 288.13348 50.3375 288.47723Q50.603127 288.82098 50.99375 288.82098Q51.384377 288.82098 51.65 288.47723Q51.915627 288.13348 51.915627 287.22723Q51.915627 286.3991 51.65 286.07098Q51.384377 285.72723 50.99375 285.72723Z" fill-rule="nonzero"/><path stroke="#757575" stroke-width="1.0" stroke-linecap="butt" d="M18.9 276.72723L314.7 276.72723L386.07816 276.72723" fill-rule="nonzero"/><path fill="#9e9e9e" d="M388.07816 276.72723C388.07816 275.62268 387.18274 274.72723 386.07816 274.72723C384.9736 274.72723 384.07816 275.62268 384.07816 276.72723C384.07816 277.83182 384.9736 278.72723 386.07816 278.72723C387.18274 278.72723 388.07816 277.83182 388.07816 276.72723" fill-rule="nonzero"/><path fill="#1a1a1a" d="M893.95935 100.53469L894.9906 100.675316Q894.8187 101.737816 894.1156 102.34719Q893.4125 102.956566 892.39685 102.956566Q891.1156 102.956566 890.33435 102.12844Q889.5687 101.28469 889.5687 99.72219Q889.5687 98.72219 889.89685 97.97219Q890.2406 97.206566 890.9125 96.831566Q891.6 96.456566 892.4125 96.456566Q893.4125 96.456566 894.0531 96.97219Q894.70935 97.47219 894.89685 98.425316L893.8656 98.581566Q893.725 97.956566 893.35 97.644066Q892.975 97.31594 892.4437 97.31594Q891.64685 97.31594 891.14685 97.894066Q890.64685 98.456566 890.64685 99.69094Q890.64685 100.956566 891.1312 101.519066Q891.6156 102.081566 892.3812 102.081566Q893.0062 102.081566 893.4125 101.706566Q893.83435 101.331566 893.95935 100.53469ZM899.975 102.81594L899.975 101.894066Q899.2406 102.956566 897.9906 102.956566Q897.4437 102.956566 896.95935 102.75344Q896.4906 102.53469 896.2562 102.22219Q896.02185 101.894066 895.9281 101.425316Q895.8656 101.12844 895.8656 100.44094L895.8656 96.59719L896.9281 96.59719L896.9281 100.050316Q896.9281 100.862816 896.9906 101.15969Q897.08435 101.56594 897.39685 101.81594Q897.725 102.050316 898.20935 102.050316Q898.6781 102.050316 899.08435 101.81594Q899.5062 101.56594 899.6781 101.144066Q899.8656 100.72219 899.8656 99.925316L899.8656 96.59719L900.9125 96.59719L900.9125 102.81594L899.975 102.81594ZM902.8656 102.81594L902.8656 94.22219L903.9281 94.22219L903.9281 102.81594L902.8656 102.81594ZM908.1937 101.87844L908.35 102.800316Q907.89685 102.894066 907.5531 102.894066Q906.975 102.894066 906.6625 102.72219Q906.35 102.53469 906.20935 102.237816Q906.08435 101.94094 906.08435 100.987816L906.08435 97.40969L905.3187 97.40969L905.3187 96.59719L906.08435 96.59719L906.08435 95.050316L907.1312 94.425316L907.1312 96.59719L908.1937 96.59719L908.1937 97.40969L907.1312 97.40969L907.1312 101.050316Q907.1312 101.50344 907.1781 101.62844Q907.2406 101.75344 907.3656 101.831566Q907.4906 101.90969 907.725 101.90969Q907.9125 101.90969 908.1937 101.87844ZM912.975 102.81594L912.975 101.894066Q912.2406 102.956566 910.9906 102.956566Q910.4437 102.956566 909.95935 102.75344Q909.4906 102.53469 909.2562 102.22219Q909.02185 101.894066 908.9281 101.425316Q908.8656 101.12844 908.8656 100.44094L908.8656 96.59719L909.9281 96.59719L909.9281 100.050316Q909.9281 100.862816 909.9906 101.15969Q910.08435 101.56594 910.39685 101.81594Q910.725 102.050316 911.20935 102.050316Q911.6781 102.050316 912.08435 101.81594Q912.5062 101.56594 912.6781 101.144066Q912.8656 100.72219 912.8656 99.925316L912.8656 96.59719L913.9125 96.59719L913.9125 102.81594L912.975 102.81594ZM915.8812 102.81594L915.8812 96.59719L916.83435 96.59719L916.83435 97.53469Q917.1937 96.87844 917.4906 96.675316Q917.8031 96.456566 918.1781 96.456566Q918.70935 96.456566 919.2562 96.78469L918.89685 97.769066Q918.5062 97.53469 918.1312 97.53469Q917.77185 97.53469 917.4906 97.75344Q917.225 97.956566 917.1156 98.331566Q916.9281 98.894066 916.9281 99.550316L916.9281 102.81594L915.8812 102.81594ZM924.14685 100.81594L925.2406 100.94094Q924.9906 101.894066 924.2875 102.425316Q923.58435 102.956566 922.5062 102.956566Q921.14685 102.956566 920.33435 102.112816Q919.5375 101.269066 919.5375 99.75344Q919.5375 98.19094 920.35 97.331566Q921.1625 96.456566 922.4437 96.456566Q923.6937 96.456566 924.475 97.300316Q925.27185 98.144066 925.27185 99.69094Q925.27185 99.78469 925.27185 99.97219L920.6312 99.97219Q920.6937 101.00344 921.20935 101.550316Q921.725 102.081566 922.5062 102.081566Q923.08435 102.081566 923.4906 101.78469Q923.9125 101.47219 924.14685 100.81594ZM920.6937 99.112816L924.1625 99.112816Q924.1 98.31594 923.77185 97.925316Q923.2562 97.31594 922.45935 97.31594Q921.725 97.31594 921.225 97.800316Q920.7406 98.28469 920.6937 99.112816Z" fill-rule="nonzero"/><path fill="#9e9e9e" d="M895.5687 119.81594L894.52185 119.81594L894.52185 113.09719Q894.1312 113.456566 893.5062 113.831566Q892.89685 114.19094 892.4125 114.362816L892.4125 113.34719Q893.2875 112.925316 893.9437 112.34719Q894.6156 111.75344 894.89685 111.19094L895.5687 111.19094L895.5687 119.81594ZM898.6 117.56594L899.70935 117.47219Q899.83435 118.28469 900.27185 118.69094Q900.725 119.09719 901.3656 119.09719Q902.1156 119.09719 902.64685 118.519066Q903.1781 117.94094 903.1781 117.00344Q903.1781 116.09719 902.6625 115.581566Q902.1625 115.050316 901.33435 115.050316Q900.83435 115.050316 900.4125 115.28469Q900.0062 115.519066 899.77185 115.87844L898.7875 115.75344L899.6156 111.34719L903.89685 111.34719L903.89685 112.34719L900.45935 112.34719L900.0062 114.65969Q900.77185 114.112816 901.6156 114.112816Q902.7406 114.112816 903.5062 114.894066Q904.2875 115.675316 904.2875 116.90969Q904.2875 118.06594 903.6156 118.925316Q902.7875 119.956566 901.3656 119.956566Q900.1937 119.956566 899.4437 119.300316Q898.70935 118.644066 898.6 117.56594ZM906.1937 119.81594L906.1937 118.612816L907.39685 118.612816L907.39685 119.81594L906.1937 119.81594ZM908.7562 117.831566L909.77185 117.737816Q909.89685 118.456566 910.2562 118.78469Q910.6312 119.09719 911.1937 119.09719Q911.6781 119.09719 912.0375 118.87844Q912.4125 118.644066 912.64685 118.28469Q912.8812 117.90969 913.0375 117.28469Q913.1937 116.644066 913.1937 115.987816Q913.1937 115.90969 913.1937 115.769066Q912.8812 116.269066 912.33435 116.59719Q911.7875 116.90969 911.14685 116.90969Q910.0687 116.90969 909.33435 116.144066Q908.6 115.362816 908.6 114.09719Q908.6 112.78469 909.3656 111.987816Q910.14685 111.19094 911.3031 111.19094Q912.1312 111.19094 912.8187 111.644066Q913.52185 112.09719 913.8812 112.94094Q914.2406 113.769066 914.2406 115.34719Q914.2406 116.987816 913.8812 117.97219Q913.5375 118.94094 912.8187 119.456566Q912.1156 119.956566 911.1781 119.956566Q910.1625 119.956566 909.52185 119.40969Q908.8812 118.84719 908.7562 117.831566ZM913.0687 114.03469Q913.0687 113.12844 912.58435 112.59719Q912.1156 112.06594 911.4281 112.06594Q910.725 112.06594 910.1937 112.644066Q909.6781 113.206566 909.6781 114.12844Q909.6781 114.94094 910.1781 115.456566Q910.6781 115.97219 911.39685 115.97219Q912.1312 115.97219 912.6 115.456566Q913.0687 114.94094 913.0687 114.03469ZM915.8031 113.28469Q915.8031 112.362816 916.2562 111.72219Q916.725 111.081566 917.6 111.081566Q918.4125 111.081566 918.9437 111.65969Q919.475 112.237816 919.475 113.34719Q919.475 114.44094 918.9281 115.03469Q918.39685 115.612816 917.6156 115.612816Q916.83435 115.612816 916.3187 115.03469Q915.8031 114.456566 915.8031 113.28469ZM917.6312 111.800316Q917.2406 111.800316 916.975 112.144066Q916.725 112.487816 916.725 113.394066Q916.725 114.22219 916.975 114.56594Q917.2406 114.894066 917.6312 114.894066Q918.0375 114.894066 918.2875 114.550316Q918.5531 114.206566 918.5531 113.31594Q918.5531 112.47219 918.2875 112.144066Q918.02185 111.800316 917.6312 111.800316ZM917.6312 120.12844L922.33435 111.081566L923.1937 111.081566L918.5062 120.12844L917.6312 120.12844ZM921.35 117.800316Q921.35 116.87844 921.8031 116.237816Q922.27185 115.59719 923.1625 115.59719Q923.975 115.59719 924.5062 116.175316Q925.0375 116.737816 925.0375 117.862816Q925.0375 118.956566 924.4906 119.550316Q923.95935 120.12844 923.1625 120.12844Q922.39685 120.12844 921.8656 119.550316Q921.35 118.97219 921.35 117.800316ZM923.1937 116.31594Q922.7875 116.31594 922.52185 116.65969Q922.27185 117.00344 922.27185 117.90969Q922.27185 118.72219 922.5375 119.06594Q922.8031 119.40969 923.1937 119.40969Q923.58435 119.40969 923.85 119.06594Q924.1156 118.72219 924.1156 117.81594Q924.1156 116.987816 923.85 116.65969Q923.58435 116.31594 923.1937 116.31594Z" fill-rule="nonzero"/><path stroke="#757575" stroke-width="1.0" stroke-linecap="butt" d="M926.1 107.31594L630.3 107.31594L541.6125 107.31594" fill-rule="nonzero"/><path fill="#9e9e9e" d="M543.6125 107.31594C543.6125 106.21137 542.71704 105.31594 541.6125 105.31594C540.50793 105.31594 539.6125 106.21137 539.6125 107.31594C539.6125 108.42051 540.50793 109.31594 541.6125 109.31594C542.71704 109.31594 543.6125 108.42051 543.6125 107.31594" fill-rule="nonzero"/><path fill="#1a1a1a" d="M906.1937 238.85625L906.35 239.77812Q905.89685 239.87187 905.5531 239.87187Q904.975 239.87187 904.6625 239.7Q904.35 239.5125 904.20935 239.21562Q904.08435 238.91875 904.08435 237.96562L904.08435 234.3875L903.3187 234.3875L903.3187 233.575L904.08435 233.575L904.08435 232.02812L905.1312 231.40312L905.1312 233.575L906.1937 233.575L906.1937 234.3875L905.1312 234.3875L905.1312 238.02812Q905.1312 238.48125 905.1781 238.60625Q905.2406 238.73125 905.3656 238.80937Q905.4906 238.8875 905.725 238.8875Q905.9125 238.8875 906.1937 238.85625ZM911.14685 237.79375L912.2406 237.91875Q911.9906 238.87187 911.2875 239.40312Q910.58435 239.93437 909.5062 239.93437Q908.14685 239.93437 907.33435 239.09062Q906.5375 238.24687 906.5375 236.73125Q906.5375 235.16875 907.35 234.30937Q908.1625 233.43437 909.4437 233.43437Q910.6937 233.43437 911.475 234.27812Q912.27185 235.12187 912.27185 236.66875Q912.27185 236.7625 912.27185 236.95L907.6312 236.95Q907.6937 237.98125 908.20935 238.52812Q908.725 239.05937 909.5062 239.05937Q910.08435 239.05937 910.4906 238.7625Q910.9125 238.45 911.14685 237.79375ZM907.6937 236.09062L911.1625 236.09062Q911.1 235.29375 910.77185 234.90312Q910.2562 234.29375 909.45935 234.29375Q908.725 234.29375 908.225 234.77812Q907.7406 235.2625 907.6937 236.09062ZM917.95935 237.5125L918.9906 237.65312Q918.8187 238.71562 918.1156 239.325Q917.4125 239.93437 916.39685 239.93437Q915.1156 239.93437 914.33435 239.10625Q913.5687 238.2625 913.5687 236.7Q913.5687 235.7 913.89685 234.95Q914.2406 234.18437 914.9125 233.80937Q915.6 233.43437 916.4125 233.43437Q917.4125 233.43437 918.0531 233.95Q918.70935 234.45 918.89685 235.40312L917.8656 235.55937Q917.725 234.93437 917.35 234.62187Q916.975 234.29375 916.4437 234.29375Q915.64685 234.29375 915.14685 234.87187Q914.64685 235.43437 914.64685 236.66875Q914.64685 237.93437 915.1312 238.49687Q915.6156 239.05937 916.3812 239.05937Q917.0062 239.05937 917.4125 238.68437Q917.83435 238.30937 917.95935 237.5125ZM919.89685 239.79375L919.89685 231.2L920.9437 231.2L920.9437 234.27812Q921.6781 233.43437 922.8031 233.43437Q923.5062 233.43437 924.0062 233.71562Q924.52185 233.98125 924.7406 234.46562Q924.95935 234.93437 924.95935 235.85625L924.95935 239.79375L923.9125 239.79375L923.9125 235.85625Q923.9125 235.05937 923.5687 234.7Q923.225 234.34062 922.6 234.34062Q922.1312 234.34062 921.70935 234.59062Q921.3031 234.825 921.1156 235.24687Q920.9437 235.65312 920.9437 236.3875L920.9437 239.79375L919.89685 239.79375Z" fill-rule="nonzero"/><path fill="#9e9e9e" d="M891.6 254.52814L892.6625 254.38751Q892.83435 255.27814 893.27185 255.68439Q893.70935 256.075 894.33435 256.075Q895.08435 256.075 895.6 255.55939Q896.1156 255.04376 896.1156 254.27814Q896.1156 253.55939 895.6312 253.09064Q895.1625 252.60626 894.4281 252.60626Q894.1312 252.60626 893.6781 252.73126L893.8031 251.79376Q893.9125 251.80939 893.975 251.80939Q894.64685 251.80939 895.1781 251.46564Q895.725 251.10626 895.725 250.37189Q895.725 249.79376 895.33435 249.41876Q894.9437 249.02814 894.3187 249.02814Q893.70935 249.02814 893.2875 249.41876Q892.8812 249.80939 892.77185 250.57501L891.70935 250.38751Q891.89685 249.34064 892.58435 248.76251Q893.27185 248.16876 894.2875 248.16876Q894.9906 248.16876 895.58435 248.48126Q896.1781 248.77814 896.4906 249.29376Q896.8031 249.80939 896.8031 250.40314Q896.8031 250.95001 896.5062 251.41876Q896.20935 251.87189 895.6312 252.13751Q896.3812 252.30939 896.8031 252.87189Q897.225 253.41876 897.225 254.26251Q897.225 255.38751 896.39685 256.16876Q895.58435 256.95 894.33435 256.95Q893.20935 256.95 892.45935 256.27814Q891.70935 255.59064 891.6 254.52814ZM901.975 256.79376L901.975 254.73126L898.2562 254.73126L898.2562 253.76251L902.1781 248.20001L903.0375 248.20001L903.0375 253.76251L904.1937 253.76251L904.1937 254.73126L903.0375 254.73126L903.0375 256.79376L901.975 256.79376ZM901.975 253.76251L901.975 249.90314L899.2875 253.76251L901.975 253.76251ZM906.1937 256.79376L906.1937 255.59064L907.39685 255.59064L907.39685 256.79376L906.1937 256.79376ZM912.5687 256.79376L911.52185 256.79376L911.52185 250.07501Q911.1312 250.43439 910.5062 250.80939Q909.89685 251.16876 909.4125 251.34064L909.4125 250.32501Q910.2875 249.90314 910.9437 249.32501Q911.6156 248.73126 911.89685 248.16876L912.5687 248.16876L912.5687 256.79376ZM915.8031 250.26251Q915.8031 249.34064 916.2562 248.70001Q916.725 248.05939 917.6 248.05939Q918.4125 248.05939 918.9437 248.63751Q919.475 249.21564 919.475 250.32501Q919.475 251.41876 918.9281 252.01251Q918.39685 252.59064 917.6156 252.59064Q916.83435 252.59064 916.3187 252.01251Q915.8031 251.43439 915.8031 250.26251ZM917.6312 248.77814Q917.2406 248.77814 916.975 249.12189Q916.725 249.46564 916.725 250.37189Q916.725 251.20001 916.975 251.54376Q917.2406 251.87189 917.6312 251.87189Q918.0375 251.87189 918.2875 251.52814Q918.5531 251.18439 918.5531 250.29376Q918.5531 249.45001 918.2875 249.12189Q918.02185 248.77814 917.6312 248.77814ZM917.6312 257.10626L922.33435 248.05939L923.1937 248.05939L918.5062 257.10626L917.6312 257.10626ZM921.35 254.77814Q921.35 253.85626 921.8031 253.21564Q922.27185 252.57501 923.1625 252.57501Q923.975 252.57501 924.5062 253.15314Q925.0375 253.71564 925.0375 254.84064Q925.0375 255.93439 924.4906 256.52814Q923.95935 257.10626 923.1625 257.10626Q922.39685 257.10626 921.8656 256.52814Q921.35 255.95001 921.35 254.77814ZM923.1937 253.29376Q922.7875 253.29376 922.52185 253.63751Q922.27185 253.98126 922.27185 254.88751Q922.27185 255.70001 922.5375 256.04376Q922.8031 256.3875 923.1937 256.3875Q923.58435 256.3875 923.85 256.04376Q924.1156 255.70001 924.1156 254.79376Q924.1156 253.96564 923.85 253.63751Q923.58435 253.29376 923.1937 253.29376Z" fill-rule="nonzero"/><path stroke="#757575" stroke-width="1.0" stroke-linecap="butt" d="M926.1 244.29375L630.3 244.29375L599.07007 244.29375" fill-rule="nonzero"/><path fill="#9e9e9e" d="M601.07007 244.29375C601.07007 243.18918 600.1747 242.29375 599.07007 242.29375C597.9655 242.29375 597.07007 243.18918 597.07007 244.29375C597.07007 245.39832 597.9655 246.29375 599.07007 246.29375C600.1747 246.29375 601.07007 245.39832 601.07007 244.29375" fill-rule="nonzero"/><path fill="#757575" d="M20.446875 37.9L20.446875 23.587502L25.8375 23.587502Q27.275 23.587502 28.025 23.712502Q29.071875 23.900002 29.790625 24.400002Q30.509375 24.884377 30.93125 25.775002Q31.36875 26.665627 31.36875 27.728127Q31.36875 29.556252 30.196875 30.821877Q29.040625 32.071877 26.009375 32.071877L22.3375 32.071877L22.3375 37.9L20.446875 37.9ZM22.3375 30.384377L26.040625 30.384377Q27.86875 30.384377 28.634375 29.712502Q29.415625 29.025002 29.415625 27.775002Q29.415625 26.884377 28.9625 26.243752Q28.509375 25.603127 27.775 25.400002Q27.290625 25.275002 25.99375 25.275002L22.3375 25.275002L22.3375 30.384377ZM39.99375 36.61875Q39.009377 37.446877 38.103127 37.790627Q37.196877 38.134377 36.165627 38.134377Q34.4625 38.134377 33.540627 37.30625Q32.61875 36.4625 32.61875 35.165627Q32.61875 34.4 32.9625 33.775Q33.321877 33.15 33.884377 32.775Q34.446877 32.384377 35.15 32.18125Q35.665627 32.05625 36.7125 31.915627Q38.8375 31.665627 39.8375 31.321877Q39.853127 30.962502 39.853127 30.853127Q39.853127 29.790627 39.353127 29.337502Q38.68125 28.743752 37.353127 28.743752Q36.103127 28.743752 35.509377 29.181252Q34.93125 29.618752 34.65 30.728127L32.93125 30.493752Q33.165627 29.384377 33.696877 28.712502Q34.228127 28.025002 35.24375 27.665627Q36.259377 27.290627 37.603127 27.290627Q38.93125 27.290627 39.759377 27.603127Q40.5875 27.915627 40.978127 28.400002Q41.36875 28.868752 41.525 29.587502Q41.61875 30.040627 41.61875 31.212502L41.61875 33.55625Q41.61875 36.009377 41.728127 36.665627Q41.8375 37.30625 42.18125 37.9L40.3375 37.9Q40.071877 37.353127 39.99375 36.61875ZM39.8375 32.696877Q38.884377 33.0875 36.9625 33.353127Q35.884377 33.509377 35.43125 33.7125Q34.99375 33.9 34.74375 34.275Q34.49375 34.65 34.49375 35.11875Q34.49375 35.821877 35.025 36.290627Q35.55625 36.759377 36.5875 36.759377Q37.603127 36.759377 38.384377 36.321877Q39.18125 35.86875 39.55625 35.103127Q39.8375 34.49375 39.8375 33.3375L39.8375 32.696877ZM44.196877 37.9L44.196877 27.525002L45.775 27.525002L45.775 29.103127Q46.384377 27.993752 46.9 27.650002Q47.415627 27.290627 48.025 27.290627Q48.915627 27.290627 49.8375 27.853127L49.228127 29.493752Q48.5875 29.103127 47.946877 29.103127Q47.36875 29.103127 46.9 29.462502Q46.446877 29.806252 46.24375 30.415627Q45.9625 31.353127 45.9625 32.4625L45.9625 37.9L44.196877 37.9ZM51.228127 25.603127L51.228127 23.587502L52.99375 23.587502L52.99375 25.603127L51.228127 25.603127ZM51.228127 37.9L51.228127 27.525002L52.99375 27.525002L52.99375 37.9L51.228127 37.9ZM59.05625 36.321877L59.30625 37.884377Q58.571877 38.040627 57.978127 38.040627Q57.025 38.040627 56.49375 37.74375Q55.978127 37.43125 55.759377 36.946877Q55.540627 36.446877 55.540627 34.86875L55.540627 28.900002L54.259377 28.900002L54.259377 27.525002L55.540627 27.525002L55.540627 24.962502L57.290627 23.900002L57.290627 27.525002L59.05625 27.525002L59.05625 28.900002L57.290627 28.900002L57.290627 34.9625Q57.290627 35.7125 57.384377 35.93125Q57.478127 36.134377 57.68125 36.275Q57.9 36.4 58.290627 36.4Q58.571877 36.4 59.05625 36.321877ZM61.134377 41.9L60.946877 40.24375Q61.525 40.4 61.946877 40.4Q62.540627 40.4 62.884377 40.196877Q63.24375 40.009377 63.4625 39.665627Q63.634377 39.4 64.00938 38.353127Q64.05625 38.196877 64.16563 37.915627L60.228127 27.525002L62.11875 27.525002L64.275 33.540627Q64.69688 34.68125 65.025 35.93125Q65.3375 34.728127 65.74375 33.571877L67.9625 27.525002L69.72813 27.525002L65.775 38.071877Q65.15 39.790627 64.79063 40.43125Q64.32188 41.30625 63.7125 41.696877Q63.11875 42.103127 62.275 42.103127Q61.759377 42.103127 61.134377 41.9ZM76.57188 32.7125Q76.57188 29.837502 78.16563 28.446877Q79.50938 27.290627 81.43125 27.290627Q83.57188 27.290627 84.91563 28.696877Q86.275 30.103127 86.275 32.571877Q86.275 34.571877 85.68125 35.728127Q85.0875 36.86875 83.93125 37.509377Q82.79063 38.134377 81.43125 38.134377Q79.24375 38.134377 77.9 36.74375Q76.57188 35.3375 76.57188 32.7125ZM78.36875 32.7125Q78.36875 34.7125 79.22813 35.696877Q80.10313 36.68125 81.43125 36.68125Q82.74375 36.68125 83.60313 35.696877Q84.47813 34.696877 84.47813 32.65Q84.47813 30.728127 83.60313 29.743752Q82.72813 28.743752 81.43125 28.743752Q80.10313 28.743752 79.22813 29.743752Q78.36875 30.728127 78.36875 32.7125ZM88.2125 37.9L88.2125 27.525002L89.80625 27.525002L89.80625 29.009377Q90.94688 27.290627 93.10313 27.290627Q94.04063 27.290627 94.82188 27.634377Q95.61875 27.962502 96.00938 28.509377Q96.4 29.056252 96.55625 29.806252Q96.65 30.306252 96.65 31.525002L96.65 37.9L94.88438 37.9L94.88438 31.587502Q94.88438 30.509377 94.68125 29.978127Q94.47813 29.446877 93.94688 29.134377Q93.43125 28.821877 92.72813 28.821877Q91.60313 28.821877 90.79063 29.540627Q89.97813 30.243752 89.97813 32.228127L89.97813 37.9L88.2125 37.9ZM99.18125 37.9L99.18125 23.587502L100.93125 23.587502L100.93125 37.9L99.18125 37.9ZM103.22813 25.603127L103.22813 23.587502L104.99375 23.587502L104.99375 25.603127L103.22813 25.603127ZM103.22813 37.9L103.22813 27.525002L104.99375 27.525002L104.99375 37.9L103.22813 37.9ZM107.2125 37.9L107.2125 27.525002L108.80625 27.525002L108.80625 29.009377Q109.94688 27.290627 112.10313 27.290627Q113.04063 27.290627 113.82188 27.634377Q114.61875 27.962502 115.00938 28.509377Q115.4 29.056252 115.55625 29.806252Q115.65 30.306252 115.65 31.525002L115.65 37.9L113.88438 37.9L113.88438 31.587502Q113.88438 30.509377 113.68125 29.978127Q113.47813 29.446877 112.94688 29.134377Q112.43125 28.821877 111.72813 28.821877Q110.60313 28.821877 109.79063 29.540627Q108.97813 30.243752 108.97813 32.228127L108.97813 37.9L107.2125 37.9ZM125.32188 34.55625L127.13438 34.790627Q126.7125 36.36875 125.54063 37.259377Q124.38438 38.134377 122.57188 38.134377Q120.30625 38.134377 118.9625 36.74375Q117.63438 35.3375 117.63438 32.80625Q117.63438 30.181252 118.97813 28.743752Q120.32188 27.290627 122.47813 27.290627Q124.55625 27.290627 125.86875 28.712502Q127.19688 30.118752 127.19688 32.696877Q127.19688 32.853127 127.18125 33.165627L119.44688 33.165627Q119.54063 34.86875 120.41563 35.775Q121.29063 36.68125 122.5875 36.68125Q123.55625 36.68125 124.22813 36.18125Q124.91563 35.665627 125.32188 34.55625ZM119.54063 31.712502L125.3375 31.712502Q125.22813 30.415627 124.68125 29.759377Q123.8375 28.743752 122.49375 28.743752Q121.29063 28.743752 120.4625 29.556252Q119.63438 30.353127 119.54063 31.712502ZM141.99374 34.103127L143.7125 34.321877Q143.43124 36.11875 142.25937 37.134377Q141.10312 38.134377 139.4 38.134377Q137.275 38.134377 135.97812 36.74375Q134.68124 35.353127 134.68124 32.759377Q134.68124 31.071877 135.22812 29.821877Q135.79062 28.556252 136.93124 27.931252Q138.07187 27.290627 139.41562 27.290627Q141.10312 27.290627 142.16562 28.150002Q143.24374 29.009377 143.55624 30.571877L141.8375 30.837502Q141.60312 29.790627 140.97812 29.275002Q140.35312 28.743752 139.47812 28.743752Q138.15 28.743752 137.32187 29.696877Q136.49374 30.650002 136.49374 32.696877Q136.49374 34.790627 137.29062 35.74375Q138.0875 36.68125 139.38437 36.68125Q140.41562 36.68125 141.10312 36.05625Q141.80624 35.415627 141.99374 34.103127ZM144.57187 32.7125Q144.57187 29.837502 146.16562 28.446877Q147.50937 27.290627 149.43124 27.290627Q151.57187 27.290627 152.91562 28.696877Q154.275 30.103127 154.275 32.571877Q154.275 34.571877 153.68124 35.728127Q153.0875 36.86875 151.93124 37.509377Q150.79062 38.134377 149.43124 38.134377Q147.24374 38.134377 145.9 36.74375Q144.57187 35.3375 144.57187 32.7125ZM146.36874 32.7125Q146.36874 34.7125 147.22812 35.696877Q148.10312 36.68125 149.43124 36.68125Q150.74374 36.68125 151.60312 35.696877Q152.47812 34.696877 152.47812 32.65Q152.47812 30.728127 151.60312 29.743752Q150.72812 28.743752 149.43124 28.743752Q148.10312 28.743752 147.22812 29.743752Q146.36874 30.728127 146.36874 32.7125ZM156.2125 37.9L156.2125 27.525002L157.80624 27.525002L157.80624 29.009377Q158.94687 27.290627 161.10312 27.290627Q162.04062 27.290627 162.82187 27.634377Q163.61874 27.962502 164.00937 28.509377Q164.4 29.056252 164.55624 29.806252Q164.65 30.306252 164.65 31.525002L164.65 37.9L162.88437 37.9L162.88437 31.587502Q162.88437 30.509377 162.68124 29.978127Q162.47812 29.446877 161.94687 29.134377Q161.43124 28.821877 160.72812 28.821877Q159.60312 28.821877 158.79062 29.540627Q157.97812 30.243752 157.97812 32.228127L157.97812 37.9L156.2125 37.9ZM171.05624 36.321877L171.30624 37.884377Q170.57187 38.040627 169.97812 38.040627Q169.025 38.040627 168.49374 37.74375Q167.97812 37.43125 167.75937 36.946877Q167.54062 36.446877 167.54062 34.86875L167.54062 28.900002L166.25937 28.900002L166.25937 27.525002L167.54062 27.525002L167.54062 24.962502L169.29062 23.900002L169.29062 27.525002L171.05624 27.525002L171.05624 28.900002L169.29062 28.900002L169.29062 34.9625Q169.29062 35.7125 169.38437 35.93125Q169.47812 36.134377 169.68124 36.275Q169.9 36.4 170.29062 36.4Q170.57187 36.4 171.05624 36.321877ZM180.32187 34.55625L182.13437 34.790627Q181.7125 36.36875 180.54062 37.259377Q179.38437 38.134377 177.57187 38.134377Q175.30624 38.134377 173.9625 36.74375Q172.63437 35.3375 172.63437 32.80625Q172.63437 30.181252 173.97812 28.743752Q175.32187 27.290627 177.47812 27.290627Q179.55624 27.290627 180.86874 28.712502Q182.19687 30.118752 182.19687 32.696877Q182.19687 32.853127 182.18124 33.165627L174.44687 33.165627Q174.54062 34.86875 175.41562 35.775Q176.29062 36.68125 177.5875 36.68125Q178.55624 36.68125 179.22812 36.18125Q179.91562 35.665627 180.32187 34.55625ZM174.54062 31.712502L180.3375 31.712502Q180.22812 30.415627 179.68124 29.759377Q178.8375 28.743752 177.49374 28.743752Q176.29062 28.743752 175.4625 29.556252Q174.63437 30.353127 174.54062 31.712502ZM184.2125 37.9L184.2125 27.525002L185.80624 27.525002L185.80624 29.009377Q186.94687 27.290627 189.10312 27.290627Q190.04062 27.290627 190.82187 27.634377Q191.61874 27.962502 192.00937 28.509377Q192.4 29.056252 192.55624 29.806252Q192.65 30.306252 192.65 31.525002L192.65 37.9L190.88437 37.9L190.88437 31.587502Q190.88437 30.509377 190.68124 29.978127Q190.47812 29.446877 189.94687 29.134377Q189.43124 28.821877 188.72812 28.821877Q187.60312 28.821877 186.79062 29.540627Q185.97812 30.243752 185.97812 32.228127L185.97812 37.9L184.2125 37.9ZM199.05624 36.321877L199.30624 37.884377Q198.57187 38.040627 197.97812 38.040627Q197.025 38.040627 196.49374 37.74375Q195.97812 37.43125 195.75937 36.946877Q195.54062 36.446877 195.54062 34.86875L195.54062 28.900002L194.25937 28.900002L194.25937 27.525002L195.54062 27.525002L195.54062 24.962502L197.29062 23.900002L197.29062 27.525002L199.05624 27.525002L199.05624 28.900002L197.29062 28.900002L197.29062 34.9625Q197.29062 35.7125 197.38437 35.93125Q197.47812 36.134377 197.68124 36.275Q197.9 36.4 198.29062 36.4Q198.57187 36.4 199.05624 36.321877ZM209.13437 37.9L205.9625 27.525002L207.775 27.525002L209.43124 33.509377L210.04062 35.74375Q210.0875 35.571877 210.57187 33.603127L212.22812 27.525002L214.04062 27.525002L215.5875 33.540627L216.10312 35.525L216.69687 33.525L218.47812 27.525002L220.18124 27.525002L216.94687 37.9L215.11874 37.9L213.4625 31.681252L213.07187 29.915627L210.9625 37.9L209.13437 37.9ZM221.22812 25.603127L221.22812 23.587502L222.99374 23.587502L222.99374 25.603127L221.22812 25.603127ZM221.22812 37.9L221.22812 27.525002L222.99374 27.525002L222.99374 37.9L221.22812 37.9ZM229.05624 36.321877L229.30624 37.884377Q228.57187 38.040627 227.97812 38.040627Q227.025 38.040627 226.49374 37.74375Q225.97812 37.43125 225.75937 36.946877Q225.54062 36.446877 225.54062 34.86875L225.54062 28.900002L224.25937 28.900002L224.25937 27.525002L225.54062 27.525002L225.54062 24.962502L227.29062 23.900002L227.29062 27.525002L229.05624 27.525002L229.05624 28.900002L227.29062 28.900002L227.29062 34.9625Q227.29062 35.7125 227.38437 35.93125Q227.47812 36.134377 227.68124 36.275Q227.9 36.4 228.29062 36.4Q228.57187 36.4 229.05624 36.321877ZM231.2125 37.9L231.2125 23.587502L232.97812 23.587502L232.97812 28.712502Q234.2125 27.290627 236.0875 27.290627Q237.22812 27.290627 238.07187 27.743752Q238.93124 28.196877 239.29062 29.009377Q239.66562 29.806252 239.66562 31.321877L239.66562 37.9L237.91562 37.9L237.91562 31.321877Q237.91562 30.009377 237.3375 29.415627Q236.75937 28.806252 235.72812 28.806252Q234.94687 28.806252 234.24374 29.212502Q233.55624 29.618752 233.25937 30.321877Q232.97812 31.009377 232.97812 32.228127L232.97812 37.9L231.2125 37.9ZM248.2125 37.9L248.2125 27.525002L249.79062 27.525002L249.79062 28.978127Q250.275 28.228127 251.0875 27.759377Q251.9 27.290627 252.93124 27.290627Q254.0875 27.290627 254.82187 27.775002Q255.55624 28.243752 255.86874 29.103127Q257.10312 27.290627 259.07187 27.290627Q260.61874 27.290627 261.44687 28.150002Q262.275 29.009377 262.275 30.775002L262.275 37.9L260.525 37.9L260.525 31.368752Q260.525 30.306252 260.35312 29.853127Q260.18124 29.384377 259.72812 29.103127Q259.29062 28.821877 258.68124 28.821877Q257.5875 28.821877 256.85312 29.556252Q256.13437 30.275002 256.13437 31.868752L256.13437 37.9L254.38437 37.9L254.38437 31.165627Q254.38437 29.993752 253.94687 29.415627Q253.525 28.821877 252.54062 28.821877Q251.80624 28.821877 251.16562 29.212502Q250.54062 29.603127 250.25937 30.353127Q249.97812 31.103127 249.97812 32.525L249.97812 37.9L248.2125 37.9ZM265.13437 41.9L264.94687 40.24375Q265.525 40.4 265.94687 40.4Q266.54062 40.4 266.88437 40.196877Q267.24374 40.009377 267.4625 39.665627Q267.63437 39.4 268.00937 38.353127Q268.05624 38.196877 268.16562 37.915627L264.22812 27.525002L266.11874 27.525002L268.275 33.540627Q268.69687 34.68125 269.025 35.93125Q269.3375 34.728127 269.74374 33.571877L271.9625 27.525002L273.72812 27.525002L269.775 38.071877Q269.15 39.790627 268.79062 40.43125Q268.32187 41.30625 267.7125 41.696877Q267.11874 42.103127 266.275 42.103127Q265.75937 42.103127 265.13437 41.9ZM285.05624 36.321877L285.30624 37.884377Q284.57187 38.040627 283.97812 38.040627Q283.025 38.040627 282.49374 37.74375Q281.97812 37.43125 281.75937 36.946877Q281.54062 36.446877 281.54062 34.86875L281.54062 28.900002L280.25937 28.900002L280.25937 27.525002L281.54062 27.525002L281.54062 24.962502L283.29062 23.900002L283.29062 27.525002L285.05624 27.525002L285.05624 28.900002L283.29062 28.900002L283.29062 34.9625Q283.29062 35.7125 283.38437 35.93125Q283.47812 36.134377 283.68124 36.275Q283.9 36.4 284.29062 36.4Q284.57187 36.4 285.05624 36.321877ZM293.99374 36.61875Q293.00937 37.446877 292.10312 37.790627Q291.19687 38.134377 290.16562 38.134377Q288.4625 38.134377 287.54062 37.30625Q286.61874 36.4625 286.61874 35.165627Q286.61874 34.4 286.9625 33.775Q287.32187 33.15 287.88437 32.775Q288.44687 32.384377 289.15 32.18125Q289.66562 32.05625 290.7125 31.915627Q292.8375 31.665627 293.8375 31.321877Q293.85312 30.962502 293.85312 30.853127Q293.85312 29.790627 293.35312 29.337502Q292.68124 28.743752 291.35312 28.743752Q290.10312 28.743752 289.50937 29.181252Q288.93124 29.618752 288.65 30.728127L286.93124 30.493752Q287.16562 29.384377 287.69687 28.712502Q288.22812 28.025002 289.24374 27.665627Q290.25937 27.290627 291.60312 27.290627Q292.93124 27.290627 293.75937 27.603127Q294.5875 27.915627 294.97812 28.400002Q295.36874 28.868752 295.525 29.587502Q295.61874 30.040627 295.61874 31.212502L295.61874 33.55625Q295.61874 36.009377 295.72812 36.665627Q295.8375 37.30625 296.18124 37.9L294.3375 37.9Q294.07187 37.353127 293.99374 36.61875ZM293.8375 32.696877Q292.88437 33.0875 290.9625 33.353127Q289.88437 33.509377 289.43124 33.7125Q288.99374 33.9 288.74374 34.275Q288.49374 34.65 288.49374 35.11875Q288.49374 35.821877 289.025 36.290627Q289.55624 36.759377 290.5875 36.759377Q291.60312 36.759377 292.38437 36.321877Q293.18124 35.86875 293.55624 35.103127Q293.8375 34.49375 293.8375 33.3375L293.8375 32.696877ZM297.9 38.759377L299.60312 39.009377Q299.7125 39.80625 300.19687 40.165627Q300.85312 40.65 301.99374 40.65Q303.2125 40.65 303.86874 40.165627Q304.54062 39.68125 304.775 38.80625Q304.91562 38.259377 304.9 36.540627Q303.74374 37.9 302.025 37.9Q299.88437 37.9 298.7125 36.353127Q297.54062 34.80625 297.54062 32.65Q297.54062 31.165627 298.07187 29.915627Q298.61874 28.665627 299.63437 27.978127Q300.66562 27.290627 302.04062 27.290627Q303.86874 27.290627 305.07187 28.775002L305.07187 27.525002L306.68124 27.525002L306.68124 36.49375Q306.68124 38.915627 306.18124 39.915627Q305.69687 40.93125 304.61874 41.509377Q303.55624 42.103127 301.99374 42.103127Q300.15 42.103127 298.99374 41.275Q297.85312 40.446877 297.9 38.759377ZM299.35312 32.525Q299.35312 34.571877 300.16562 35.509377Q300.97812 36.446877 302.19687 36.446877Q303.4 36.446877 304.2125 35.509377Q305.04062 34.571877 305.04062 32.5875Q305.04062 30.681252 304.19687 29.712502Q303.35312 28.743752 302.16562 28.743752Q300.99374 28.743752 300.16562 29.696877Q299.35312 30.650002 299.35312 32.525ZM308.50937 34.80625L310.25937 34.525Q310.4 35.571877 311.07187 36.134377Q311.74374 36.68125 312.94687 36.68125Q314.15 36.68125 314.72812 36.196877Q315.32187 35.696877 315.32187 35.040627Q315.32187 34.446877 314.80624 34.103127Q314.44687 33.86875 313.00937 33.509377Q311.07187 33.009377 310.32187 32.665627Q309.5875 32.30625 309.19687 31.681252Q308.80624 31.040627 308.80624 30.275002Q308.80624 29.587502 309.11874 28.993752Q309.44687 28.400002 309.99374 28.009377Q310.4 27.712502 311.10312 27.509377Q311.82187 27.290627 312.63437 27.290627Q313.85312 27.290627 314.775 27.650002Q315.69687 27.993752 316.13437 28.603127Q316.57187 29.196877 316.74374 30.196877L315.025 30.431252Q314.9 29.634377 314.3375 29.196877Q313.775 28.743752 312.75937 28.743752Q311.54062 28.743752 311.025 29.150002Q310.50937 29.540627 310.50937 30.071877Q310.50937 30.415627 310.72812 30.696877Q310.93124 30.978127 311.4 31.165627Q311.66562 31.259377 312.94687 31.603127Q314.82187 32.103127 315.55624 32.43125Q316.29062 32.74375 316.7125 33.353127Q317.13437 33.946877 317.13437 34.853127Q317.13437 35.728127 316.61874 36.509377Q316.10312 37.290627 315.13437 37.7125Q314.16562 38.134377 312.94687 38.134377Q310.93124 38.134377 309.86874 37.290627Q308.80624 36.446877 308.50937 34.80625Z" fill-rule="nonzero"/></svg>