<svg version="1.1" viewBox="0.0 0.0 948.0 379.0" fill="none" stroke="none" stroke-linecap="square" stroke-miterlimit="10" width="948" height="379" xmlns:xlink="http://www.w3.org/1999/xlink" xmlns="http://www.w3.org/2000/svg"><path fill="#ffffff" d="M0 0L948.0 0L948.0 379.0L0 379.0L0 0Z" fill-rule="nonzero"/><path fill="#f9cb9c" d="M474.0 89.83583C482.70087 89.83583 491.3857 90.357994 499.95917 91.396576L474.0 196.39917Z" fill-rule="nonzero"/><path fill="#3cc68a" d="M499.95917 91.396576C571.3208 100.041306 624.10315 142.68118 626.17126 193.35614L474.0 196.39917Z" fill-rule="nonzero"/><path fill="#7388ab" d="M364.82864 293.50217C337.21457 273.6122 321.76666 246.96959 321.76666 219.23416L321.76666 196.39917C321.76666 224.13458 337.21457 250.7772 364.82864 270.66714Z" fill-rule="nonzero"/><path fill="#a4c2f4" d="M364.82864 270.66714C322.19196 239.95668 309.9598 194.36348 333.77426 154.91725C357.5887 115.471016 412.8228 89.83583 474.0 89.83583L474.0 196.39917Z" fill-rule="nonzero"/><path fill="#7e7596" d="M626.23334 219.23416C626.23334 262.61212 588.6708 301.66104 531.25146 317.97452C473.8322 334.28796 408.0168 324.60986 364.82864 293.50217L364.82864 270.66714C408.0168 301.77487 473.8322 311.45297 531.25146 295.1395C588.6708 278.82605 626.23334 239.77711 626.23334 196.39917Z" fill-rule="nonzero"/><path fill="#b4a7d6" d="M626.17126 193.35614C627.9635 237.2713 591.07104 277.45535 533.2599 294.55716C475.44873 311.659 408.56952 302.17297 364.82864 270.66714L474.0 196.39917Z" fill-rule="nonzero"/><path fill="#1a1a1a" d="M19.325 150.63197L20.35625 150.47572Q20.45 151.10072 20.840626 151.42885Q21.246876 151.75697 21.98125 151.75697Q22.7 151.75697 23.04375 151.47572Q23.403126 151.17885 23.403126 150.7726Q23.403126 150.41322 23.090626 150.2101Q22.871876 150.06947 22.0125 149.85072Q20.85625 149.55385 20.403126 149.35072Q19.965626 149.13197 19.73125 148.75697Q19.496876 148.38197 19.496876 147.91322Q19.496876 147.50697 19.684376 147.1476Q19.871876 146.78822 20.2 146.55385Q20.45 146.38197 20.871876 146.25697Q21.29375 146.13197 21.79375 146.13197Q22.5125 146.13197 23.059376 146.35072Q23.621876 146.55385 23.8875 146.91322Q24.153126 147.2726 24.246876 147.86635L23.215626 148.00697Q23.153126 147.53822 22.809376 147.2726Q22.48125 146.99135 21.85625 146.99135Q21.1375 146.99135 20.825 147.24135Q20.5125 147.47572 20.5125 147.80385Q20.5125 148.00697 20.6375 148.16322Q20.778126 148.3351 21.04375 148.44447Q21.2 148.50697 21.98125 148.7101Q23.10625 149.0226 23.54375 149.2101Q23.98125 149.3976 24.23125 149.75697Q24.48125 150.11635 24.48125 150.66322Q24.48125 151.19447 24.16875 151.66322Q23.871876 152.11635 23.29375 152.38197Q22.715626 152.63197 21.98125 152.63197Q20.7625 152.63197 20.121876 152.13197Q19.496876 151.61635 19.325 150.63197ZM28.04375 151.55385L28.2 152.47572Q27.746876 152.56947 27.403126 152.56947Q26.825 152.56947 26.5125 152.3976Q26.2 152.2101 26.059376 151.91322Q25.934376 151.61635 25.934376 150.66322L25.934376 147.0851L25.16875 147.0851L25.16875 146.2726L25.934376 146.2726L25.934376 144.72572L26.98125 144.10072L26.98125 146.2726L28.04375 146.2726L28.04375 147.0851L26.98125 147.0851L26.98125 150.72572Q26.98125 151.17885 27.028126 151.30385Q27.090626 151.42885 27.215626 151.50697Q27.340626 151.5851 27.575 151.5851Q27.7625 151.5851 28.04375 151.55385ZM32.809376 151.72572Q32.215626 152.22572 31.66875 152.42885Q31.1375 152.63197 30.5125 152.63197Q29.48125 152.63197 28.934376 152.13197Q28.3875 151.63197 28.3875 150.85072Q28.3875 150.3976 28.590626 150.0226Q28.79375 149.63197 29.1375 149.41322Q29.48125 149.17885 29.903126 149.06947Q30.2 148.97572 30.840626 148.8976Q32.10625 148.75697 32.715626 148.53822Q32.715626 148.31947 32.715626 148.2726Q32.715626 147.61635 32.41875 147.35072Q32.0125 147.00697 31.215626 147.00697Q30.48125 147.00697 30.121876 147.2726Q29.7625 147.5226 29.590626 148.17885L28.559376 148.03822Q28.7 147.38197 29.028126 146.97572Q29.35625 146.56947 29.965626 146.35072Q30.575 146.13197 31.371876 146.13197Q32.16875 146.13197 32.66875 146.31947Q33.16875 146.50697 33.403126 146.78822Q33.6375 147.06947 33.73125 147.50697Q33.778126 147.7726 33.778126 148.47572L33.778126 149.88197Q33.778126 151.35072 33.840626 151.74135Q33.91875 152.13197 34.121876 152.49135L33.0125 152.49135Q32.85625 152.16322 32.809376 151.72572ZM32.715626 149.36635Q32.1375 149.60072 30.996876 149.7726Q30.340626 149.86635 30.075 149.99135Q29.809376 150.10072 29.653126 150.31947Q29.5125 150.53822 29.5125 150.81947Q29.5125 151.24135 29.825 151.5226Q30.153126 151.80385 30.7625 151.80385Q31.371876 151.80385 31.840626 151.53822Q32.325 151.2726 32.54375 150.80385Q32.715626 150.44447 32.715626 149.75697L32.715626 149.36635ZM38.04375 151.55385L38.2 152.47572Q37.746876 152.56947 37.403126 152.56947Q36.825 152.56947 36.5125 152.3976Q36.2 152.2101 36.059376 151.91322Q35.934376 151.61635 35.934376 150.66322L35.934376 147.0851L35.16875 147.0851L35.16875 146.2726L35.934376 146.2726L35.934376 144.72572L36.98125 144.10072L36.98125 146.2726L38.04375 146.2726L38.04375 147.0851L36.98125 147.0851L36.98125 150.72572Q36.98125 151.17885 37.028126 151.30385Q37.090626 151.42885 37.215626 151.50697Q37.340626 151.5851 37.575 151.5851Q37.7625 151.5851 38.04375 151.55385ZM42.825 152.49135L42.825 151.56947Q42.090626 152.63197 40.840626 152.63197Q40.29375 152.63197 39.809376 152.42885Q39.340626 152.2101 39.10625 151.8976Q38.871876 151.56947 38.778126 151.10072Q38.715626 150.80385 38.715626 150.11635L38.715626 146.2726L39.778126 146.2726L39.778126 149.72572Q39.778126 150.53822 39.840626 150.8351Q39.934376 151.24135 40.246876 151.49135Q40.575 151.72572 41.059376 151.72572Q41.528126 151.72572 41.934376 151.49135Q42.35625 151.24135 42.528126 150.81947Q42.715626 150.3976 42.715626 149.60072L42.715626 146.2726L43.7625 146.2726L43.7625 152.49135L42.825 152.49135ZM45.325 150.63197L46.35625 150.47572Q46.45 151.10072 46.840626 151.42885Q47.246876 151.75697 47.98125 151.75697Q48.7 151.75697 49.04375 151.47572Q49.403126 151.17885 49.403126 150.7726Q49.403126 150.41322 49.090626 150.2101Q48.871876 150.06947 48.0125 149.85072Q46.85625 149.55385 46.403126 149.35072Q45.965626 149.13197 45.73125 148.75697Q45.496876 148.38197 45.496876 147.91322Q45.496876 147.50697 45.684376 147.1476Q45.871876 146.78822 46.2 146.55385Q46.45 146.38197 46.871876 146.25697Q47.29375 146.13197 47.79375 146.13197Q48.5125 146.13197 49.059376 146.35072Q49.621876 146.55385 49.8875 146.91322Q50.153126 147.2726 50.246876 147.86635L49.215626 148.00697Q49.153126 147.53822 48.809376 147.2726Q48.48125 146.99135 47.85625 146.99135Q47.1375 146.99135 46.825 147.24135Q46.5125 147.47572 46.5125 147.80385Q46.5125 148.00697 46.6375 148.16322Q46.778126 148.3351 47.04375 148.44447Q47.2 148.50697 47.98125 148.7101Q49.10625 149.0226 49.54375 149.2101Q49.98125 149.3976 50.23125 149.75697Q50.48125 150.11635 50.48125 150.66322Q50.48125 151.19447 50.16875 151.66322Q49.871876 152.11635 49.29375 152.38197Q48.715626 152.63197 47.98125 152.63197Q46.7625 152.63197 46.121876 152.13197Q45.496876 151.61635 45.325 150.63197ZM54.73125 152.49135L54.73125 146.2726L55.684376 146.2726L55.684376 147.2101Q56.04375 146.55385 56.340626 146.35072Q56.653126 146.13197 57.028126 146.13197Q57.559376 146.13197 58.10625 146.4601L57.746876 147.44447Q57.35625 147.2101 56.98125 147.2101Q56.621876 147.2101 56.340626 147.42885Q56.075 147.63197 55.965626 148.00697Q55.778126 148.56947 55.778126 149.22572L55.778126 152.49135L54.73125 152.49135ZM62.996876 150.49135L64.09062 150.61635Q63.840626 151.56947 63.1375 152.10072Q62.434376 152.63197 61.35625 152.63197Q59.996876 152.63197 59.184376 151.78822Q58.3875 150.94447 58.3875 149.42885Q58.3875 147.86635 59.2 147.00697Q60.0125 146.13197 61.29375 146.13197Q62.54375 146.13197 63.325 146.97572Q64.12187 147.81947 64.12187 149.36635Q64.12187 149.4601 64.12187 149.6476L59.48125 149.6476Q59.54375 150.67885 60.059376 151.22572Q60.575 151.75697 61.35625 151.75697Q61.934376 151.75697 62.340626 151.4601Q62.7625 151.1476 62.996876 150.49135ZM59.54375 148.78822L63.0125 148.78822Q62.95 147.99135 62.621876 147.60072Q62.10625 146.99135 61.309376 146.99135Q60.575 146.99135 60.075 147.47572Q59.590626 147.9601 59.54375 148.78822ZM65.74687 154.88197L65.74687 146.2726L66.7 146.2726L66.7 147.06947Q67.04375 146.60072 67.46562 146.36635Q67.90312 146.13197 68.5125 146.13197Q69.30937 146.13197 69.91875 146.53822Q70.52812 146.94447 70.825 147.69447Q71.1375 148.44447 71.1375 149.3351Q71.1375 150.28822 70.79375 151.05385Q70.46562 151.81947 69.80937 152.22572Q69.15312 152.63197 68.43437 152.63197Q67.90312 152.63197 67.48125 152.41322Q67.05937 152.17885 66.79375 151.85072L66.79375 154.88197L65.74687 154.88197ZM66.7 149.41322Q66.7 150.61635 67.18437 151.19447Q67.66875 151.75697 68.35625 151.75697Q69.05937 151.75697 69.55937 151.16322Q70.05937 150.56947 70.05937 149.31947Q70.05937 148.13197 69.575 147.55385Q69.09062 146.9601 68.40312 146.9601Q67.73125 146.9601 67.21562 147.5851Q66.7 148.2101 66.7 149.41322ZM72.35625 149.38197Q72.35625 147.6476 73.30937 146.81947Q74.10625 146.13197 75.2625 146.13197Q76.54375 146.13197 77.35625 146.97572Q78.18437 147.80385 78.18437 149.28822Q78.18437 150.49135 77.825 151.17885Q77.46562 151.86635 76.7625 152.25697Q76.075 152.63197 75.2625 152.63197Q73.96562 152.63197 73.15312 151.80385Q72.35625 150.9601 72.35625 149.38197ZM73.43437 149.38197Q73.43437 150.56947 73.95 151.16322Q74.48125 151.75697 75.2625 151.75697Q76.05937 151.75697 76.575 151.16322Q77.09062 150.56947 77.09062 149.35072Q77.09062 148.19447 76.55937 147.60072Q76.04375 147.00697 75.2625 147.00697Q74.48125 147.00697 73.95 147.60072Q73.43437 148.17885 73.43437 149.38197ZM79.73125 152.49135L79.73125 146.2726L80.68437 146.2726L80.68437 147.2101Q81.04375 146.55385 81.34062 146.35072Q81.65312 146.13197 82.02812 146.13197Q82.55937 146.13197 83.10625 146.4601L82.74687 147.44447Q82.35625 147.2101 81.98125 147.2101Q81.62187 147.2101 81.34062 147.42885Q81.075 147.63197 80.96562 148.00697Q80.77812 148.56947 80.77812 149.22572L80.77812 152.49135L79.73125 152.49135ZM86.04375 151.55385L86.2 152.47572Q85.74687 152.56947 85.40312 152.56947Q84.825 152.56947 84.5125 152.3976Q84.2 152.2101 84.05937 151.91322Q83.93437 151.61635 83.93437 150.66322L83.93437 147.0851L83.16875 147.0851L83.16875 146.2726L83.93437 146.2726L83.93437 144.72572L84.98125 144.10072L84.98125 146.2726L86.04375 146.2726L86.04375 147.0851L84.98125 147.0851L84.98125 150.72572Q84.98125 151.17885 85.02812 151.30385Q85.09062 151.42885 85.21562 151.50697Q85.34062 151.5851 85.575 151.5851Q85.7625 151.5851 86.04375 151.55385Z" fill-rule="nonzero"/><path fill="#9e9e9e" d="M19.45 167.22572L20.5125 167.0851Q20.684376 167.97572 21.121876 168.38197Q21.559376 168.7726 22.184376 168.7726Q22.934376 168.7726 23.45 168.25697Q23.965626 167.74135 23.965626 166.97572Q23.965626 166.25697 23.48125 165.78822Q23.0125 165.30385 22.278126 165.30385Q21.98125 165.30385 21.528126 165.42885L21.653126 164.49135Q21.7625 164.50697 21.825 164.50697Q22.496876 164.50697 23.028126 164.16322Q23.575 163.80385 23.575 163.06947Q23.575 162.49135 23.184376 162.11635Q22.79375 161.72572 22.16875 161.72572Q21.559376 161.72572 21.1375 162.11635Q20.73125 162.50697 20.621876 163.2726L19.559376 163.0851Q19.746876 162.03822 20.434376 161.4601Q21.121876 160.86635 22.1375 160.86635Q22.840626 160.86635 23.434376 161.17885Q24.028126 161.47572 24.340626 161.99135Q24.653126 162.50697 24.653126 163.10072Q24.653126 163.6476 24.35625 164.11635Q24.059376 164.56947 23.48125 164.8351Q24.23125 165.00697 24.653126 165.56947Q25.075 166.11635 25.075 166.9601Q25.075 168.0851 24.246876 168.86635Q23.434376 169.6476 22.184376 169.6476Q21.059376 169.6476 20.309376 168.97572Q19.559376 168.28822 19.45 167.22572ZM26.5125 162.0226L26.5125 161.00697L32.075 161.00697L32.075 161.8351Q31.2625 162.7101 30.45 164.16322Q29.653126 165.60072 29.215626 167.13197Q28.8875 168.2101 28.809376 169.49135L27.715626 169.49135Q27.73125 168.47572 28.10625 167.03822Q28.496876 165.60072 29.2 164.2726Q29.91875 162.94447 30.73125 162.0226L26.5125 162.0226ZM34.04375 169.49135L34.04375 168.28822L35.246876 168.28822L35.246876 169.49135L34.04375 169.49135ZM36.45 167.22572L37.5125 167.0851Q37.684376 167.97572 38.121876 168.38197Q38.559376 168.7726 39.184376 168.7726Q39.934376 168.7726 40.45 168.25697Q40.965626 167.74135 40.965626 166.97572Q40.965626 166.25697 40.48125 165.78822Q40.0125 165.30385 39.278126 165.30385Q38.98125 165.30385 38.528126 165.42885L38.653126 164.49135Q38.7625 164.50697 38.825 164.50697Q39.496876 164.50697 40.028126 164.16322Q40.575 163.80385 40.575 163.06947Q40.575 162.49135 40.184376 162.11635Q39.79375 161.72572 39.16875 161.72572Q38.559376 161.72572 38.1375 162.11635Q37.73125 162.50697 37.621876 163.2726L36.559376 163.0851Q36.746876 162.03822 37.434376 161.4601Q38.121876 160.86635 39.1375 160.86635Q39.840626 160.86635 40.434376 161.17885Q41.028126 161.47572 41.340626 161.99135Q41.653126 162.50697 41.653126 163.10072Q41.653126 163.6476 41.35625 164.11635Q41.059376 164.56947 40.48125 164.8351Q41.23125 165.00697 41.653126 165.56947Q42.075 166.11635 42.075 166.9601Q42.075 168.0851 41.246876 168.86635Q40.434376 169.6476 39.184376 169.6476Q38.059376 169.6476 37.309376 168.97572Q36.559376 168.28822 36.45 167.22572ZM43.653126 162.9601Q43.653126 162.03822 44.10625 161.3976Q44.575 160.75697 45.45 160.75697Q46.2625 160.75697 46.79375 161.3351Q47.325 161.91322 47.325 163.0226Q47.325 164.11635 46.778126 164.7101Q46.246876 165.28822 45.465626 165.28822Q44.684376 165.28822 44.16875 164.7101Q43.653126 164.13197 43.653126 162.9601ZM45.48125 161.47572Q45.090626 161.47572 44.825 161.81947Q44.575 162.16322 44.575 163.06947Q44.575 163.8976 44.825 164.24135Q45.090626 164.56947 45.48125 164.56947Q45.8875 164.56947 46.1375 164.22572Q46.403126 163.88197 46.403126 162.99135Q46.403126 162.1476 46.1375 161.81947Q45.871876 161.47572 45.48125 161.47572ZM45.48125 169.80385L50.184376 160.75697L51.04375 160.75697L46.35625 169.80385L45.48125 169.80385ZM49.2 167.47572Q49.2 166.55385 49.653126 165.91322Q50.121876 165.2726 51.0125 165.2726Q51.825 165.2726 52.35625 165.85072Q52.8875 166.41322 52.8875 167.53822Q52.8875 168.63197 52.340626 169.22572Q51.809376 169.80385 51.0125 169.80385Q50.246876 169.80385 49.715626 169.22572Q49.2 168.6476 49.2 167.47572ZM51.04375 165.99135Q50.6375 165.99135 50.371876 166.3351Q50.121876 166.67885 50.121876 167.5851Q50.121876 168.3976 50.3875 168.74135Q50.653126 169.0851 51.04375 169.0851Q51.434376 169.0851 51.7 168.74135Q51.965626 168.3976 51.965626 167.49135Q51.965626 166.66322 51.7 166.3351Q51.434376 165.99135 51.04375 165.99135Z" fill-rule="nonzero"/><path stroke="#757575" stroke-width="1.0" stroke-linecap="butt" d="M18.95 156.99135L315.76666 156.99135L340.78555 156.99135" fill-rule="nonzero"/><path fill="#9e9e9e" d="M342.78555 156.99135C342.78555 155.88678 341.89014 154.99135 340.78555 154.99135C339.681 154.99135 338.78555 155.88678 338.78555 156.99135C338.78555 158.09592 339.681 158.99135 340.78555 158.99135C341.89014 158.99135 342.78555 158.09592 342.78555 156.99135" fill-rule="nonzero"/><path fill="#1a1a1a" d="M896.90936 88.754105L897.9406 88.89473Q897.76874 89.95723 897.0656 90.566605Q896.3625 91.17598 895.34686 91.17598Q894.0656 91.17598 893.28436 90.347855Q892.51874 89.504105 892.51874 87.941605Q892.51874 86.941605 892.84686 86.191605Q893.1906 85.42598 893.8625 85.05098Q894.55 84.67598 895.3625 84.67598Q896.3625 84.67598 897.0031 85.191605Q897.65936 85.691605 897.84686 86.64473L896.8156 86.80098Q896.675 86.17598 896.3 85.86348Q895.925 85.535355 895.39374 85.535355Q894.59686 85.535355 894.09686 86.11348Q893.59686 86.67598 893.59686 87.910355Q893.59686 89.17598 894.08124 89.73848Q894.5656 90.30098 895.33124 90.30098Q895.95624 90.30098 896.3625 89.92598Q896.78436 89.55098 896.90936 88.754105ZM902.925 91.035355L902.925 90.11348Q902.1906 91.17598 900.9406 91.17598Q900.39374 91.17598 899.90936 90.972855Q899.4406 90.754105 899.20624 90.441605Q898.97186 90.11348 898.8781 89.64473Q898.8156 89.347855 898.8156 88.660355L898.8156 84.816605L899.8781 84.816605L899.8781 88.26973Q899.8781 89.08223 899.9406 89.379105Q900.03436 89.785355 900.34686 90.035355Q900.675 90.26973 901.15936 90.26973Q901.6281 90.26973 902.03436 90.035355Q902.45624 89.785355 902.6281 89.36348Q902.8156 88.941605 902.8156 88.14473L902.8156 84.816605L903.8625 84.816605L903.8625 91.035355L902.925 91.035355ZM905.8156 91.035355L905.8156 82.441605L906.8781 82.441605L906.8781 91.035355L905.8156 91.035355ZM911.14374 90.097855L911.3 91.01973Q910.84686 91.11348 910.5031 91.11348Q909.925 91.11348 909.6125 90.941605Q909.3 90.754105 909.15936 90.45723Q909.03436 90.160355 909.03436 89.20723L909.03436 85.629105L908.26874 85.629105L908.26874 84.816605L909.03436 84.816605L909.03436 83.26973L910.08124 82.64473L910.08124 84.816605L911.14374 84.816605L911.14374 85.629105L910.08124 85.629105L910.08124 89.26973Q910.08124 89.722855 910.1281 89.847855Q910.1906 89.972855 910.3156 90.05098Q910.4406 90.129105 910.675 90.129105Q910.8625 90.129105 911.14374 90.097855ZM915.925 91.035355L915.925 90.11348Q915.1906 91.17598 913.9406 91.17598Q913.39374 91.17598 912.90936 90.972855Q912.4406 90.754105 912.20624 90.441605Q911.97186 90.11348 911.8781 89.64473Q911.8156 89.347855 911.8156 88.660355L911.8156 84.816605L912.8781 84.816605L912.8781 88.26973Q912.8781 89.08223 912.9406 89.379105Q913.03436 89.785355 913.34686 90.035355Q913.675 90.26973 914.15936 90.26973Q914.6281 90.26973 915.03436 90.035355Q915.45624 89.785355 915.6281 89.36348Q915.8156 88.941605 915.8156 88.14473L915.8156 84.816605L916.8625 84.816605L916.8625 91.035355L915.925 91.035355ZM918.83124 91.035355L918.83124 84.816605L919.78436 84.816605L919.78436 85.754105Q920.14374 85.097855 920.4406 84.89473Q920.7531 84.67598 921.1281 84.67598Q921.65936 84.67598 922.20624 85.004105L921.84686 85.98848Q921.45624 85.754105 921.08124 85.754105Q920.72186 85.754105 920.4406 85.972855Q920.175 86.17598 920.0656 86.55098Q919.8781 87.11348 919.8781 87.76973L919.8781 91.035355L918.83124 91.035355ZM927.09686 89.035355L928.1906 89.160355Q927.9406 90.11348 927.2375 90.64473Q926.53436 91.17598 925.45624 91.17598Q924.09686 91.17598 923.28436 90.33223Q922.4875 89.48848 922.4875 87.972855Q922.4875 86.410355 923.3 85.55098Q924.1125 84.67598 925.39374 84.67598Q926.64374 84.67598 927.425 85.51973Q928.22186 86.36348 928.22186 87.910355Q928.22186 88.004105 928.22186 88.191605L923.58124 88.191605Q923.64374 89.222855 924.15936 89.76973Q924.675 90.30098 925.45624 90.30098Q926.03436 90.30098 926.4406 90.004105Q926.8625 89.691605 927.09686 89.035355ZM923.64374 87.33223L927.1125 87.33223Q927.05 86.535355 926.72186 86.14473Q926.20624 85.535355 925.40936 85.535355Q924.675 85.535355 924.175 86.01973Q923.6906 86.504105 923.64374 87.33223Z" fill-rule="nonzero"/><path fill="#9e9e9e" d="M907.09686 107.01973L907.09686 108.035355L901.40936 108.035355Q901.40936 107.660355 901.53436 107.30098Q901.7531 106.722855 902.22186 106.160355Q902.70624 105.597855 903.6125 104.86348Q905.01874 103.70723 905.5031 103.035355Q906.0031 102.36348 906.0031 101.76973Q906.0031 101.14473 905.55 100.722855Q905.09686 100.285355 904.3781 100.285355Q903.6125 100.285355 903.15936 100.73848Q902.70624 101.191605 902.6906 102.004105L901.6125 101.89473Q901.72186 100.67598 902.4406 100.05098Q903.175 99.410355 904.40936 99.410355Q905.64374 99.410355 906.3625 100.097855Q907.08124 100.785355 907.08124 101.80098Q907.08124 102.316605 906.8625 102.816605Q906.65936 103.30098 906.15936 103.86348Q905.675 104.410355 904.55 105.36348Q903.59686 106.160355 903.3156 106.45723Q903.05 106.73848 902.8781 107.01973L907.09686 107.01973ZM909.14374 108.035355L909.14374 106.83223L910.34686 106.83223L910.34686 108.035355L909.14374 108.035355ZM911.6125 100.566605L911.6125 99.55098L917.175 99.55098L917.175 100.379105Q916.3625 101.254105 915.55 102.70723Q914.7531 104.14473 914.3156 105.67598Q913.9875 106.754105 913.90936 108.035355L912.8156 108.035355Q912.83124 107.01973 913.20624 105.58223Q913.59686 104.14473 914.3 102.816605Q915.01874 101.48848 915.83124 100.566605L911.6125 100.566605ZM918.7531 101.504105Q918.7531 100.58223 919.20624 99.941605Q919.675 99.30098 920.55 99.30098Q921.3625 99.30098 921.89374 99.879105Q922.425 100.45723 922.425 101.566605Q922.425 102.660355 921.8781 103.254105Q921.34686 103.83223 920.5656 103.83223Q919.78436 103.83223 919.26874 103.254105Q918.7531 102.67598 918.7531 101.504105ZM920.58124 100.01973Q920.1906 100.01973 919.925 100.36348Q919.675 100.70723 919.675 101.61348Q919.675 102.441605 919.925 102.785355Q920.1906 103.11348 920.58124 103.11348Q920.9875 103.11348 921.2375 102.76973Q921.5031 102.42598 921.5031 101.535355Q921.5031 100.691605 921.2375 100.36348Q920.97186 100.01973 920.58124 100.01973ZM920.58124 108.347855L925.28436 99.30098L926.14374 99.30098L921.45624 108.347855L920.58124 108.347855ZM924.3 106.01973Q924.3 105.097855 924.7531 104.45723Q925.22186 103.816605 926.1125 103.816605Q926.925 103.816605 927.45624 104.39473Q927.9875 104.95723 927.9875 106.08223Q927.9875 107.17598 927.4406 107.76973Q926.90936 108.347855 926.1125 108.347855Q925.34686 108.347855 924.8156 107.76973Q924.3 107.191605 924.3 106.01973ZM926.14374 104.535355Q925.7375 104.535355 925.47186 104.879105Q925.22186 105.222855 925.22186 106.129105Q925.22186 106.941605 925.4875 107.285355Q925.7531 107.629105 926.14374 107.629105Q926.53436 107.629105 926.8 107.285355Q927.0656 106.941605 927.0656 106.035355Q927.0656 105.20723 926.8 104.879105Q926.53436 104.535355 926.14374 104.535355Z" fill-rule="nonzero"/><path stroke="#757575" stroke-width="1.0" stroke-linecap="butt" d="M929.05 95.535355L632.23334 95.535355L486.376 95.535355" fill-rule="nonzero"/><path fill="#9e9e9e" d="M488.376 95.535355C488.376 94.430786 487.48056 93.535355 486.376 93.535355C485.27142 93.535355 484.376 94.430786 484.376 95.535355C484.376 96.63993 485.27142 97.535355 486.376 97.535355C487.48056 97.535355 488.376 96.63993 488.376 95.535355" fill-rule="nonzero"/><path fill="#1a1a1a" d="M909.14374 124.66673L909.3 125.58861Q908.84686 125.68236 908.5031 125.68236Q907.925 125.68236 907.6125 125.51048Q907.3 125.32298 907.15936 125.02611Q907.03436 124.72923 907.03436 123.77611L907.03436 120.19798L906.26874 120.19798L906.26874 119.38548L907.03436 119.38548L907.03436 117.83861L908.08124 117.21361L908.08124 119.38548L909.14374 119.38548L909.14374 120.19798L908.08124 120.19798L908.08124 123.83861Q908.08124 124.29173 908.1281 124.41673Q908.1906 124.54173 908.3156 124.61986Q908.4406 124.69798 908.675 124.69798Q908.8625 124.69798 909.14374 124.66673ZM914.09686 123.60423L915.1906 123.72923Q914.9406 124.68236 914.2375 125.21361Q913.53436 125.74486 912.45624 125.74486Q911.09686 125.74486 910.28436 124.90111Q909.4875 124.05736 909.4875 122.54173Q909.4875 120.97923 910.3 120.11986Q911.1125 119.24486 912.39374 119.24486Q913.64374 119.24486 914.425 120.08861Q915.22186 120.93236 915.22186 122.47923Q915.22186 122.57298 915.22186 122.76048L910.58124 122.76048Q910.64374 123.79173 911.15936 124.33861Q911.675 124.86986 912.45624 124.86986Q913.03436 124.86986 913.4406 124.57298Q913.8625 124.26048 914.09686 123.60423ZM910.64374 121.90111L914.1125 121.90111Q914.05 121.10423 913.72186 120.71361Q913.20624 120.10423 912.40936 120.10423Q911.675 120.10423 911.175 120.58861Q910.6906 121.07298 910.64374 121.90111ZM920.90936 123.32298L921.9406 123.46361Q921.76874 124.52611 921.0656 125.13548Q920.3625 125.74486 919.34686 125.74486Q918.0656 125.74486 917.28436 124.91673Q916.51874 124.07298 916.51874 122.51048Q916.51874 121.51048 916.84686 120.76048Q917.1906 119.99486 917.8625 119.61986Q918.55 119.24486 919.3625 119.24486Q920.3625 119.24486 921.0031 119.76048Q921.65936 120.26048 921.84686 121.21361L920.8156 121.36986Q920.675 120.74486 920.3 120.43236Q919.925 120.10423 919.39374 120.10423Q918.59686 120.10423 918.09686 120.68236Q917.59686 121.24486 917.59686 122.47923Q917.59686 123.74486 918.08124 124.30736Q918.5656 124.86986 919.33124 124.86986Q919.95624 124.86986 920.3625 124.49486Q920.78436 124.11986 920.90936 123.32298ZM922.84686 125.60423L922.84686 117.01048L923.89374 117.01048L923.89374 120.08861Q924.6281 119.24486 925.7531 119.24486Q926.45624 119.24486 926.95624 119.52611Q927.47186 119.79173 927.6906 120.27611Q927.90936 120.74486 927.90936 121.66673L927.90936 125.60423L926.8625 125.60423L926.8625 121.66673Q926.8625 120.86986 926.51874 120.51048Q926.175 120.15111 925.55 120.15111Q925.08124 120.15111 924.65936 120.40111Q924.2531 120.63548 924.0656 121.05736Q923.89374 121.46361 923.89374 122.19798L923.89374 125.60423L922.84686 125.60423Z" fill-rule="nonzero"/><path fill="#9e9e9e" d="M900.09686 141.58861L900.09686 142.60423L894.40936 142.60423Q894.40936 142.22923 894.53436 141.86986Q894.7531 141.29173 895.22186 140.72923Q895.70624 140.16673 896.6125 139.43236Q898.01874 138.27611 898.5031 137.60423Q899.0031 136.93236 899.0031 136.33861Q899.0031 135.71361 898.55 135.29173Q898.09686 134.85423 897.3781 134.85423Q896.6125 134.85423 896.15936 135.30736Q895.70624 135.76048 895.6906 136.57298L894.6125 136.46361Q894.72186 135.24486 895.4406 134.61986Q896.175 133.97923 897.40936 133.97923Q898.64374 133.97923 899.3625 134.66673Q900.08124 135.35423 900.08124 136.36986Q900.08124 136.88548 899.8625 137.38548Q899.65936 137.86986 899.15936 138.43236Q898.675 138.97923 897.55 139.93236Q896.59686 140.72923 896.3156 141.02611Q896.05 141.30736 895.8781 141.58861L900.09686 141.58861ZM905.51874 142.60423L904.47186 142.60423L904.47186 135.88548Q904.08124 136.24486 903.45624 136.61986Q902.84686 136.97923 902.3625 137.15111L902.3625 136.13548Q903.2375 135.71361 903.89374 135.13548Q904.5656 134.54173 904.84686 133.97923L905.51874 133.97923L905.51874 142.60423ZM909.14374 142.60423L909.14374 141.40111L910.34686 141.40111L910.34686 142.60423L909.14374 142.60423ZM913.175 137.94798Q912.51874 137.69798 912.1906 137.26048Q911.8781 136.80736 911.8781 136.19798Q911.8781 135.26048 912.55 134.61986Q913.2375 133.97923 914.34686 133.97923Q915.47186 133.97923 916.15936 134.63548Q916.84686 135.29173 916.84686 136.22923Q916.84686 136.82298 916.53436 137.26048Q916.22186 137.69798 915.58124 137.94798Q916.3781 138.19798 916.78436 138.77611Q917.1906 139.35423 917.1906 140.15111Q917.1906 141.24486 916.40936 141.99486Q915.64374 142.74486 914.3625 142.74486Q913.09686 142.74486 912.3156 141.99486Q911.53436 141.24486 911.53436 140.11986Q911.53436 139.27611 911.95624 138.71361Q912.39374 138.15111 913.175 137.94798ZM912.95624 136.15111Q912.95624 136.76048 913.34686 137.15111Q913.7531 137.54173 914.3781 137.54173Q914.9875 137.54173 915.3781 137.16673Q915.76874 136.77611 915.76874 136.21361Q915.76874 135.63548 915.3625 135.24486Q914.95624 134.83861 914.3625 134.83861Q913.7531 134.83861 913.34686 135.22923Q912.95624 135.61986 912.95624 136.15111ZM912.6281 140.11986Q912.6281 140.57298 912.83124 140.99486Q913.05 141.41673 913.47186 141.65111Q913.89374 141.88548 914.3781 141.88548Q915.1281 141.88548 915.6125 141.40111Q916.1125 140.91673 916.1125 140.16673Q916.1125 139.40111 915.6125 138.90111Q915.1125 138.40111 914.34686 138.40111Q913.59686 138.40111 913.1125 138.90111Q912.6281 139.38548 912.6281 140.11986ZM918.7531 136.07298Q918.7531 135.15111 919.20624 134.51048Q919.675 133.86986 920.55 133.86986Q921.3625 133.86986 921.89374 134.44798Q922.425 135.02611 922.425 136.13548Q922.425 137.22923 921.8781 137.82298Q921.34686 138.40111 920.5656 138.40111Q919.78436 138.40111 919.26874 137.82298Q918.7531 137.24486 918.7531 136.07298ZM920.58124 134.58861Q920.1906 134.58861 919.925 134.93236Q919.675 135.27611 919.675 136.18236Q919.675 137.01048 919.925 137.35423Q920.1906 137.68236 920.58124 137.68236Q920.9875 137.68236 921.2375 137.33861Q921.5031 136.99486 921.5031 136.10423Q921.5031 135.26048 921.2375 134.93236Q920.97186 134.58861 920.58124 134.58861ZM920.58124 142.91673L925.28436 133.86986L926.14374 133.86986L921.45624 142.91673L920.58124 142.91673ZM924.3 140.58861Q924.3 139.66673 924.7531 139.02611Q925.22186 138.38548 926.1125 138.38548Q926.925 138.38548 927.45624 138.96361Q927.9875 139.52611 927.9875 140.65111Q927.9875 141.74486 927.4406 142.33861Q926.90936 142.91673 926.1125 142.91673Q925.34686 142.91673 924.8156 142.33861Q924.3 141.76048 924.3 140.58861ZM926.14374 139.10423Q925.7375 139.10423 925.47186 139.44798Q925.22186 139.79173 925.22186 140.69798Q925.22186 141.51048 925.4875 141.85423Q925.7531 142.19798 926.14374 142.19798Q926.53436 142.19798 926.8 141.85423Q927.0656 141.51048 927.0656 140.60423Q927.0656 139.77611 926.8 139.44798Q926.53436 139.10423 926.14374 139.10423Z" fill-rule="nonzero"/><path stroke="#757575" stroke-width="1.0" stroke-linecap="butt" d="M929.05 130.10423L632.23334 130.10423L583.2978 130.10423" fill-rule="nonzero"/><path fill="#9e9e9e" d="M585.2978 130.10423C585.2978 128.99966 584.40234 128.10423 583.2978 128.10423C582.1932 128.10423 581.2978 128.99966 581.2978 130.10423C581.2978 131.2088 582.1932 132.10423 583.2978 132.10423C584.40234 132.10423 585.2978 131.2088 585.2978 130.10423" fill-rule="nonzero"/><path fill="#1a1a1a" d="M875.84686 285.14926L875.84686 278.9305L876.78436 278.9305L876.78436 279.8055Q877.08124 279.33676 877.5656 279.07114Q878.05 278.7899 878.675 278.7899Q879.3625 278.7899 879.8 279.07114Q880.2531 279.3524 880.425 279.868Q881.175 278.7899 882.34686 278.7899Q883.28436 278.7899 883.76874 279.3055Q884.26874 279.8055 884.26874 280.88364L884.26874 285.14926L883.22186 285.14926L883.22186 281.2274Q883.22186 280.6024 883.1125 280.32114Q883.01874 280.0399 882.7531 279.868Q882.4875 279.69614 882.1125 279.69614Q881.45624 279.69614 881.01874 280.13364Q880.59686 280.57114 880.59686 281.5399L880.59686 285.14926L879.53436 285.14926L879.53436 281.1024Q879.53436 280.39926 879.26874 280.0555Q879.01874 279.69614 878.4406 279.69614Q877.9875 279.69614 877.6125 279.9305Q877.2375 280.1649 877.0656 280.618Q876.89374 281.07114 876.89374 281.9149L876.89374 285.14926L875.84686 285.14926ZM889.90936 284.38364Q889.3156 284.88364 888.76874 285.08676Q888.2375 285.2899 887.6125 285.2899Q886.58124 285.2899 886.03436 284.7899Q885.4875 284.2899 885.4875 283.50864Q885.4875 283.0555 885.6906 282.6805Q885.89374 282.2899 886.2375 282.07114Q886.58124 281.83676 887.0031 281.7274Q887.3 281.63364 887.9406 281.5555Q889.20624 281.4149 889.8156 281.19614Q889.8156 280.9774 889.8156 280.9305Q889.8156 280.27426 889.51874 280.00864Q889.1125 279.6649 888.3156 279.6649Q887.58124 279.6649 887.22186 279.9305Q886.8625 280.1805 886.6906 280.83676L885.65936 280.69614Q885.8 280.0399 886.1281 279.63364Q886.45624 279.2274 887.0656 279.00864Q887.675 278.7899 888.47186 278.7899Q889.26874 278.7899 889.76874 278.9774Q890.26874 279.1649 890.5031 279.44614Q890.7375 279.7274 890.83124 280.1649Q890.8781 280.4305 890.8781 281.13364L890.8781 282.5399Q890.8781 284.00864 890.9406 284.39926Q891.01874 284.7899 891.22186 285.14926L890.1125 285.14926Q889.95624 284.82114 889.90936 284.38364ZM889.8156 282.02426Q889.2375 282.25864 888.09686 282.4305Q887.4406 282.52426 887.175 282.64926Q886.90936 282.75864 886.7531 282.9774Q886.6125 283.19614 886.6125 283.4774Q886.6125 283.89926 886.925 284.1805Q887.2531 284.46176 887.8625 284.46176Q888.47186 284.46176 888.9406 284.19614Q889.425 283.9305 889.64374 283.46176Q889.8156 283.1024 889.8156 282.4149L889.8156 282.02426ZM892.83124 285.14926L892.83124 278.9305L893.78436 278.9305L893.78436 279.868Q894.14374 279.21176 894.4406 279.00864Q894.7531 278.7899 895.1281 278.7899Q895.65936 278.7899 896.20624 279.118L895.84686 280.1024Q895.45624 279.868 895.08124 279.868Q894.72186 279.868 894.4406 280.08676Q894.175 280.2899 894.0656 280.6649Q893.8781 281.2274 893.8781 281.88364L893.8781 285.14926L892.83124 285.14926ZM896.84686 285.14926L896.84686 276.5555L897.90936 276.5555L897.90936 281.46176L900.39374 278.9305L901.76874 278.9305L899.3781 281.2274L902.0031 285.14926L900.70624 285.14926L898.64374 281.96176L897.90936 282.6805L897.90936 285.14926L896.84686 285.14926ZM907.09686 283.14926L908.1906 283.27426Q907.9406 284.2274 907.2375 284.75864Q906.53436 285.2899 905.45624 285.2899Q904.09686 285.2899 903.28436 284.44614Q902.4875 283.6024 902.4875 282.08676Q902.4875 280.52426 903.3 279.6649Q904.1125 278.7899 905.39374 278.7899Q906.64374 278.7899 907.425 279.63364Q908.22186 280.4774 908.22186 282.02426Q908.22186 282.118 908.22186 282.3055L903.58124 282.3055Q903.64374 283.33676 904.15936 283.88364Q904.675 284.4149 905.45624 284.4149Q906.03436 284.4149 906.4406 284.118Q906.8625 283.8055 907.09686 283.14926ZM903.64374 281.44614L907.1125 281.44614Q907.05 280.64926 906.72186 280.25864Q906.20624 279.64926 905.40936 279.64926Q904.675 279.64926 904.175 280.13364Q903.6906 280.618 903.64374 281.44614ZM912.14374 284.21176L912.3 285.13364Q911.84686 285.2274 911.5031 285.2274Q910.925 285.2274 910.6125 285.0555Q910.3 284.868 910.15936 284.57114Q910.03436 284.27426 910.03436 283.32114L910.03436 279.743L909.26874 279.743L909.26874 278.9305L910.03436 278.9305L910.03436 277.38364L911.08124 276.75864L911.08124 278.9305L912.14374 278.9305L912.14374 279.743L911.08124 279.743L911.08124 283.38364Q911.08124 283.83676 911.1281 283.96176Q911.1906 284.08676 911.3156 284.1649Q911.4406 284.243 911.675 284.243Q911.8625 284.243 912.14374 284.21176ZM912.84686 277.77426L912.84686 276.5555L913.90936 276.5555L913.90936 277.77426L912.84686 277.77426ZM912.84686 285.14926L912.84686 278.9305L913.90936 278.9305L913.90936 285.14926L912.84686 285.14926ZM915.84686 285.14926L915.84686 278.9305L916.78436 278.9305L916.78436 279.8055Q917.47186 278.7899 918.76874 278.7899Q919.33124 278.7899 919.8 278.993Q920.28436 279.19614 920.51874 279.52426Q920.7531 279.8524 920.84686 280.2899Q920.89374 280.58676 920.89374 281.32114L920.89374 285.14926L919.84686 285.14926L919.84686 281.368Q919.84686 280.71176 919.72186 280.39926Q919.59686 280.08676 919.28436 279.89926Q918.97186 279.69614 918.55 279.69614Q917.8781 279.69614 917.3781 280.13364Q916.89374 280.5555 916.89374 281.743L916.89374 285.14926L915.84686 285.14926ZM922.64374 285.6649L923.675 285.82114Q923.7375 286.2899 924.03436 286.50864Q924.425 286.8055 925.09686 286.8055Q925.83124 286.8055 926.22186 286.50864Q926.6281 286.21176 926.76874 285.69614Q926.8625 285.368 926.84686 284.33676Q926.15936 285.14926 925.1281 285.14926Q923.84686 285.14926 923.14374 284.2274Q922.4406 283.2899 922.4406 282.00864Q922.4406 281.118 922.7531 280.368Q923.08124 279.6024 923.6906 279.19614Q924.3 278.7899 925.1281 278.7899Q926.2375 278.7899 926.95624 279.6805L926.95624 278.9305L927.925 278.9305L927.925 284.3055Q927.925 285.75864 927.6281 286.368Q927.33124 286.9774 926.6906 287.32114Q926.05 287.6805 925.1125 287.6805Q924.0031 287.6805 923.3156 287.1805Q922.6281 286.6805 922.64374 285.6649ZM923.51874 281.9305Q923.51874 283.14926 924.0031 283.71176Q924.4875 284.27426 925.22186 284.27426Q925.95624 284.27426 926.4406 283.71176Q926.9406 283.14926 926.9406 281.96176Q926.9406 280.82114 926.425 280.243Q925.925 279.6649 925.20624 279.6649Q924.5031 279.6649 924.0031 280.243Q923.51874 280.8055 923.51874 281.9305Z" fill-rule="nonzero"/><path fill="#9e9e9e" d="M894.55 299.88364L895.6125 299.743Q895.78436 300.63364 896.22186 301.0399Q896.65936 301.4305 897.28436 301.4305Q898.03436 301.4305 898.55 300.9149Q899.0656 300.39926 899.0656 299.63364Q899.0656 298.9149 898.58124 298.44614Q898.1125 297.96176 897.3781 297.96176Q897.08124 297.96176 896.6281 298.08676L896.7531 297.14926Q896.8625 297.1649 896.925 297.1649Q897.59686 297.1649 898.1281 296.82114Q898.675 296.46176 898.675 295.7274Q898.675 295.14926 898.28436 294.77426Q897.89374 294.38364 897.26874 294.38364Q896.65936 294.38364 896.2375 294.77426Q895.83124 295.1649 895.72186 295.9305L894.65936 295.743Q894.84686 294.69614 895.53436 294.118Q896.22186 293.52426 897.2375 293.52426Q897.9406 293.52426 898.53436 293.83676Q899.1281 294.13364 899.4406 294.64926Q899.7531 295.1649 899.7531 295.75864Q899.7531 296.3055 899.45624 296.77426Q899.15936 297.2274 898.58124 297.493Q899.33124 297.6649 899.7531 298.2274Q900.175 298.77426 900.175 299.618Q900.175 300.743 899.34686 301.52426Q898.53436 302.3055 897.28436 302.3055Q896.15936 302.3055 895.40936 301.63364Q894.65936 300.94614 894.55 299.88364ZM903.175 297.493Q902.51874 297.243 902.1906 296.8055Q901.8781 296.3524 901.8781 295.743Q901.8781 294.8055 902.55 294.1649Q903.2375 293.52426 904.34686 293.52426Q905.47186 293.52426 906.15936 294.1805Q906.84686 294.83676 906.84686 295.77426Q906.84686 296.368 906.53436 296.8055Q906.22186 297.243 905.58124 297.493Q906.3781 297.743 906.78436 298.32114Q907.1906 298.89926 907.1906 299.69614Q907.1906 300.7899 906.40936 301.5399Q905.64374 302.2899 904.3625 302.2899Q903.09686 302.2899 902.3156 301.5399Q901.53436 300.7899 901.53436 299.6649Q901.53436 298.82114 901.95624 298.25864Q902.39374 297.69614 903.175 297.493ZM902.95624 295.69614Q902.95624 296.3055 903.34686 296.69614Q903.7531 297.08676 904.3781 297.08676Q904.9875 297.08676 905.3781 296.71176Q905.76874 296.32114 905.76874 295.75864Q905.76874 295.1805 905.3625 294.7899Q904.95624 294.38364 904.3625 294.38364Q903.7531 294.38364 903.34686 294.77426Q902.95624 295.1649 902.95624 295.69614ZM902.6281 299.6649Q902.6281 300.118 902.83124 300.5399Q903.05 300.96176 903.47186 301.19614Q903.89374 301.4305 904.3781 301.4305Q905.1281 301.4305 905.6125 300.94614Q906.1125 300.46176 906.1125 299.71176Q906.1125 298.94614 905.6125 298.44614Q905.1125 297.94614 904.34686 297.94614Q903.59686 297.94614 903.1125 298.44614Q902.6281 298.9305 902.6281 299.6649ZM909.14374 302.14926L909.14374 300.94614L910.34686 300.94614L910.34686 302.14926L909.14374 302.14926ZM917.09686 301.13364L917.09686 302.14926L911.40936 302.14926Q911.40936 301.77426 911.53436 301.4149Q911.7531 300.83676 912.22186 300.27426Q912.70624 299.71176 913.6125 298.9774Q915.01874 297.82114 915.5031 297.14926Q916.0031 296.4774 916.0031 295.88364Q916.0031 295.25864 915.55 294.83676Q915.09686 294.39926 914.3781 294.39926Q913.6125 294.39926 913.15936 294.8524Q912.70624 295.3055 912.6906 296.118L911.6125 296.00864Q911.72186 294.7899 912.4406 294.1649Q913.175 293.52426 914.40936 293.52426Q915.64374 293.52426 916.3625 294.21176Q917.08124 294.89926 917.08124 295.9149Q917.08124 296.4305 916.8625 296.9305Q916.65936 297.4149 916.15936 297.9774Q915.675 298.52426 914.55 299.4774Q913.59686 300.27426 913.3156 300.57114Q913.05 300.8524 912.8781 301.13364L917.09686 301.13364ZM918.7531 295.618Q918.7531 294.69614 919.20624 294.0555Q919.675 293.4149 920.55 293.4149Q921.3625 293.4149 921.89374 293.993Q922.425 294.57114 922.425 295.6805Q922.425 296.77426 921.8781 297.368Q921.34686 297.94614 920.5656 297.94614Q919.78436 297.94614 919.26874 297.368Q918.7531 296.7899 918.7531 295.618ZM920.58124 294.13364Q920.1906 294.13364 919.925 294.4774Q919.675 294.82114 919.675 295.7274Q919.675 296.5555 919.925 296.89926Q920.1906 297.2274 920.58124 297.2274Q920.9875 297.2274 921.2375 296.88364Q921.5031 296.5399 921.5031 295.64926Q921.5031 294.8055 921.2375 294.4774Q920.97186 294.13364 920.58124 294.13364ZM920.58124 302.46176L925.28436 293.4149L926.14374 293.4149L921.45624 302.46176L920.58124 302.46176ZM924.3 300.13364Q924.3 299.21176 924.7531 298.57114Q925.22186 297.9305 926.1125 297.9305Q926.925 297.9305 927.45624 298.50864Q927.9875 299.07114 927.9875 300.19614Q927.9875 301.2899 927.4406 301.88364Q926.90936 302.46176 926.1125 302.46176Q925.34686 302.46176 924.8156 301.88364Q924.3 301.3055 924.3 300.13364ZM926.14374 298.64926Q925.7375 298.64926 925.47186 298.993Q925.22186 299.33676 925.22186 300.243Q925.22186 301.0555 925.4875 301.39926Q925.7531 301.743 926.14374 301.743Q926.53436 301.743 926.8 301.39926Q927.0656 301.0555 927.0656 300.14926Q927.0656 299.32114 926.8 298.993Q926.53436 298.64926 926.14374 298.64926Z" fill-rule="nonzero"/><path stroke="#757575" stroke-width="1.0" stroke-linecap="butt" d="M929.05 289.64926L632.23334 289.64926L530.2969 289.64926" fill-rule="nonzero"/><path fill="#9e9e9e" d="M532.2969 289.64926C532.2969 288.5447 531.4015 287.64926 530.2969 287.64926C529.1923 287.64926 528.2969 288.5447 528.2969 289.64926C528.2969 290.75385 529.1923 291.64926 530.2969 291.64926C531.4015 291.64926 532.2969 290.75385 532.2969 289.64926" fill-rule="nonzero"/><path fill="#757575" d="M20.48125 37.95L20.48125 23.6375L22.41875 23.6375L29.934376 34.871876L29.934376 23.6375L31.746876 23.6375L31.746876 37.95L29.809376 37.95L22.29375 26.7L22.29375 37.95L20.48125 37.95ZM41.371876 34.60625L43.184376 34.840626Q42.7625 36.41875 41.590626 37.309376Q40.434376 38.184376 38.621876 38.184376Q36.35625 38.184376 35.0125 36.79375Q33.684376 35.3875 33.684376 32.85625Q33.684376 30.23125 35.028126 28.79375Q36.371876 27.340626 38.528126 27.340626Q40.60625 27.340626 41.91875 28.7625Q43.246876 30.16875 43.246876 32.746876Q43.246876 32.903126 43.23125 33.215626L35.496876 33.215626Q35.590626 34.91875 36.465626 35.825Q37.340626 36.73125 38.6375 36.73125Q39.60625 36.73125 40.278126 36.23125Q40.965626 35.715626 41.371876 34.60625ZM35.590626 31.7625L41.3875 31.7625Q41.278126 30.465626 40.73125 29.809376Q39.8875 28.79375 38.54375 28.79375Q37.340626 28.79375 36.5125 29.60625Q35.684376 30.403126 35.590626 31.7625ZM45.246876 37.95L45.246876 27.575L46.825 27.575L46.825 29.153126Q47.434376 28.04375 47.95 27.7Q48.465626 27.340626 49.075 27.340626Q49.965626 27.340626 50.8875 27.903126L50.278126 29.54375Q49.6375 29.153126 48.996876 29.153126Q48.41875 29.153126 47.95 29.5125Q47.496876 29.85625 47.29375 30.465626Q47.0125 31.403126 47.0125 32.5125L47.0125 37.95L45.246876 37.95ZM55.153126 37.95L51.2 27.575L53.059376 27.575L55.29375 33.79375Q55.653126 34.79375 55.95 35.871876Q56.184376 35.059376 56.60625 33.903126L58.903126 27.575L60.715626 27.575L56.79375 37.95L55.153126 37.95ZM61.621876 32.7625Q61.621876 29.8875 63.215626 28.496876Q64.55937 27.340626 66.48125 27.340626Q68.62187 27.340626 69.96562 28.746876Q71.325 30.153126 71.325 32.621876Q71.325 34.621876 70.73125 35.778126Q70.1375 36.91875 68.98125 37.559376Q67.84062 38.184376 66.48125 38.184376Q64.29375 38.184376 62.95 36.79375Q61.621876 35.3875 61.621876 32.7625ZM63.41875 32.7625Q63.41875 34.7625 64.27812 35.746876Q65.15312 36.73125 66.48125 36.73125Q67.79375 36.73125 68.65312 35.746876Q69.52812 34.746876 69.52812 32.7Q69.52812 30.778126 68.65312 29.79375Q67.77812 28.79375 66.48125 28.79375Q65.15312 28.79375 64.27812 29.79375Q63.41875 30.778126 63.41875 32.7625ZM72.55937 34.85625L74.30937 34.575Q74.45 35.621876 75.12187 36.184376Q75.79375 36.73125 76.99687 36.73125Q78.2 36.73125 78.77812 36.246876Q79.37187 35.746876 79.37187 35.090626Q79.37187 34.496876 78.85625 34.153126Q78.49687 33.91875 77.05937 33.559376Q75.12187 33.059376 74.37187 32.715626Q73.6375 32.35625 73.24687 31.73125Q72.85625 31.090626 72.85625 30.325Q72.85625 29.6375 73.16875 29.04375Q73.49687 28.45 74.04375 28.059376Q74.45 27.7625 75.15312 27.559376Q75.87187 27.340626 76.68437 27.340626Q77.90312 27.340626 78.825 27.7Q79.74687 28.04375 80.18437 28.653126Q80.62187 29.246876 80.79375 30.246876L79.075 30.48125Q78.95 29.684376 78.3875 29.246876Q77.825 28.79375 76.80937 28.79375Q75.59062 28.79375 75.075 29.2Q74.55937 29.590626 74.55937 30.121876Q74.55937 30.465626 74.77812 30.746876Q74.98125 31.028126 75.45 31.215626Q75.71562 31.309376 76.99687 31.653126Q78.87187 32.153126 79.60625 32.48125Q80.34062 32.79375 80.7625 33.403126Q81.18437 33.996876 81.18437 34.903126Q81.18437 35.778126 80.66875 36.559376Q80.15312 37.340626 79.18437 37.7625Q78.21562 38.184376 76.99687 38.184376Q74.98125 38.184376 73.91875 37.340626Q72.85625 36.496876 72.55937 34.85625ZM88.62187 32.7625Q88.62187 29.8875 90.21562 28.496876Q91.55937 27.340626 93.48125 27.340626Q95.62187 27.340626 96.96562 28.746876Q98.325 30.153126 98.325 32.621876Q98.325 34.621876 97.73125 35.778126Q97.1375 36.91875 95.98125 37.559376Q94.84062 38.184376 93.48125 38.184376Q91.29375 38.184376 89.95 36.79375Q88.62187 35.3875 88.62187 32.7625ZM90.41875 32.7625Q90.41875 34.7625 91.27812 35.746876Q92.15312 36.73125 93.48125 36.73125Q94.79375 36.73125 95.65312 35.746876Q96.52812 34.746876 96.52812 32.7Q96.52812 30.778126 95.65312 29.79375Q94.77812 28.79375 93.48125 28.79375Q92.15312 28.79375 91.27812 29.79375Q90.41875 30.778126 90.41875 32.7625ZM100.2625 37.95L100.2625 27.575L101.85625 27.575L101.85625 29.059376Q102.99687 27.340626 105.15312 27.340626Q106.09062 27.340626 106.87187 27.684376Q107.66875 28.0125 108.05937 28.559376Q108.45 29.10625 108.60625 29.85625Q108.7 30.35625 108.7 31.575L108.7 37.95L106.93437 37.95L106.93437 31.6375Q106.93437 30.559376 106.73125 30.028126Q106.52812 29.496876 105.99687 29.184376Q105.48125 28.871876 104.77812 28.871876Q103.65312 28.871876 102.84062 29.590626Q102.02812 30.29375 102.02812 32.278126L102.02812 37.95L100.2625 37.95ZM111.23125 37.95L111.23125 23.6375L112.98125 23.6375L112.98125 37.95L111.23125 37.95ZM115.27812 25.653126L115.27812 23.6375L117.04375 23.6375L117.04375 25.653126L115.27812 25.653126ZM115.27812 37.95L115.27812 27.575L117.04375 27.575L117.04375 37.95L115.27812 37.95ZM119.2625 37.95L119.2625 27.575L120.85625 27.575L120.85625 29.059376Q121.99687 27.340626 124.15312 27.340626Q125.09062 27.340626 125.87187 27.684376Q126.66875 28.0125 127.05937 28.559376Q127.45 29.10625 127.60625 29.85625Q127.7 30.35625 127.7 31.575L127.7 37.95L125.93437 37.95L125.93437 31.6375Q125.93437 30.559376 125.73125 30.028126Q125.52812 29.496876 124.99687 29.184376Q124.48125 28.871876 123.77812 28.871876Q122.65312 28.871876 121.84062 29.590626Q121.02812 30.29375 121.02812 32.278126L121.02812 37.95L119.2625 37.95ZM137.37187 34.60625L139.18437 34.840626Q138.7625 36.41875 137.59062 37.309376Q136.43437 38.184376 134.62187 38.184376Q132.35625 38.184376 131.0125 36.79375Q129.68437 35.3875 129.68437 32.85625Q129.68437 30.23125 131.02812 28.79375Q132.37187 27.340626 134.52812 27.340626Q136.60625 27.340626 137.91875 28.7625Q139.24687 30.16875 139.24687 32.746876Q139.24687 32.903126 139.23125 33.215626L131.49687 33.215626Q131.59062 34.91875 132.46562 35.825Q133.34062 36.73125 134.6375 36.73125Q135.60625 36.73125 136.27812 36.23125Q136.96562 35.715626 137.37187 34.60625ZM131.59062 31.7625L137.3875 31.7625Q137.27812 30.465626 136.73125 29.809376Q135.8875 28.79375 134.54375 28.79375Q133.34062 28.79375 132.5125 29.60625Q131.68437 30.403126 131.59062 31.7625ZM154.04375 34.153126L155.7625 34.371876Q155.48125 36.16875 154.30937 37.184376Q153.15312 38.184376 151.45 38.184376Q149.325 38.184376 148.02812 36.79375Q146.73125 35.403126 146.73125 32.809376Q146.73125 31.121876 147.27812 29.871876Q147.84062 28.60625 148.98125 27.98125Q150.12187 27.340626 151.46562 27.340626Q153.15312 27.340626 154.21562 28.2Q155.29375 29.059376 155.60625 30.621876L153.8875 30.8875Q153.65312 29.840626 153.02812 29.325Q152.40312 28.79375 151.52812 28.79375Q150.2 28.79375 149.37187 29.746876Q148.54375 30.7 148.54375 32.746876Q148.54375 34.840626 149.34062 35.79375Q150.1375 36.73125 151.43437 36.73125Q152.46562 36.73125 153.15312 36.10625Q153.85625 35.465626 154.04375 34.153126ZM156.62187 32.7625Q156.62187 29.8875 158.21562 28.496876Q159.55937 27.340626 161.48125 27.340626Q163.62187 27.340626 164.96562 28.746876Q166.325 30.153126 166.325 32.621876Q166.325 34.621876 165.73125 35.778126Q165.1375 36.91875 163.98125 37.559376Q162.84062 38.184376 161.48125 38.184376Q159.29375 38.184376 157.95 36.79375Q156.62187 35.3875 156.62187 32.7625ZM158.41875 32.7625Q158.41875 34.7625 159.27812 35.746876Q160.15312 36.73125 161.48125 36.73125Q162.79375 36.73125 163.65312 35.746876Q164.52812 34.746876 164.52812 32.7Q164.52812 30.778126 163.65312 29.79375Q162.77812 28.79375 161.48125 28.79375Q160.15312 28.79375 159.27812 29.79375Q158.41875 30.778126 158.41875 32.7625ZM168.2625 37.95L168.2625 27.575L169.85625 27.575L169.85625 29.059376Q170.99687 27.340626 173.15312 27.340626Q174.09062 27.340626 174.87187 27.684376Q175.66875 28.0125 176.05937 28.559376Q176.45 29.10625 176.60625 29.85625Q176.7 30.35625 176.7 31.575L176.7 37.95L174.93437 37.95L174.93437 31.6375Q174.93437 30.559376 174.73125 30.028126Q174.52812 29.496876 173.99687 29.184376Q173.48125 28.871876 172.77812 28.871876Q171.65312 28.871876 170.84062 29.590626Q170.02812 30.29375 170.02812 32.278126L170.02812 37.95L168.2625 37.95ZM183.10625 36.371876L183.35625 37.934376Q182.62187 38.090626 182.02812 38.090626Q181.075 38.090626 180.54375 37.79375Q180.02812 37.48125 179.80937 36.996876Q179.59062 36.496876 179.59062 34.91875L179.59062 28.95L178.30937 28.95L178.30937 27.575L179.59062 27.575L179.59062 25.0125L181.34062 23.95L181.34062 27.575L183.10625 27.575L183.10625 28.95L181.34062 28.95L181.34062 35.0125Q181.34062 35.7625 181.43437 35.98125Q181.52812 36.184376 181.73125 36.325Q181.95 36.45 182.34062 36.45Q182.62187 36.45 183.10625 36.371876ZM192.37187 34.60625L194.18437 34.840626Q193.7625 36.41875 192.59062 37.309376Q191.43437 38.184376 189.62187 38.184376Q187.35625 38.184376 186.0125 36.79375Q184.68437 35.3875 184.68437 32.85625Q184.68437 30.23125 186.02812 28.79375Q187.37187 27.340626 189.52812 27.340626Q191.60625 27.340626 192.91875 28.7625Q194.24687 30.16875 194.24687 32.746876Q194.24687 32.903126 194.23125 33.215626L186.49687 33.215626Q186.59062 34.91875 187.46562 35.825Q188.34062 36.73125 189.6375 36.73125Q190.60625 36.73125 191.27812 36.23125Q191.96562 35.715626 192.37187 34.60625ZM186.59062 31.7625L192.3875 31.7625Q192.27812 30.465626 191.73125 29.809376Q190.8875 28.79375 189.54375 28.79375Q188.34062 28.79375 187.5125 29.60625Q186.68437 30.403126 186.59062 31.7625ZM196.2625 37.95L196.2625 27.575L197.85625 27.575L197.85625 29.059376Q198.99687 27.340626 201.15312 27.340626Q202.09062 27.340626 202.87187 27.684376Q203.66875 28.0125 204.05937 28.559376Q204.45 29.10625 204.60625 29.85625Q204.7 30.35625 204.7 31.575L204.7 37.95L202.93437 37.95L202.93437 31.6375Q202.93437 30.559376 202.73125 30.028126Q202.52812 29.496876 201.99687 29.184376Q201.48125 28.871876 200.77812 28.871876Q199.65312 28.871876 198.84062 29.590626Q198.02812 30.29375 198.02812 32.278126L198.02812 37.95L196.2625 37.95ZM211.10625 36.371876L211.35625 37.934376Q210.62187 38.090626 210.02812 38.090626Q209.075 38.090626 208.54375 37.79375Q208.02812 37.48125 207.80937 36.996876Q207.59062 36.496876 207.59062 34.91875L207.59062 28.95L206.30937 28.95L206.30937 27.575L207.59062 27.575L207.59062 25.0125L209.34062 23.95L209.34062 27.575L211.10625 27.575L211.10625 28.95L209.34062 28.95L209.34062 35.0125Q209.34062 35.7625 209.43437 35.98125Q209.52812 36.184376 209.73125 36.325Q209.95 36.45 210.34062 36.45Q210.62187 36.45 211.10625 36.371876ZM221.18437 37.95L218.0125 27.575L219.825 27.575L221.48125 33.559376L222.09062 35.79375Q222.1375 35.621876 222.62187 33.653126L224.27812 27.575L226.09062 27.575L227.6375 33.590626L228.15312 35.575L228.74687 33.575L230.52812 27.575L232.23125 27.575L228.99687 37.95L227.16875 37.95L225.5125 31.73125L225.12187 29.965626L223.0125 37.95L221.18437 37.95ZM233.27812 25.653126L233.27812 23.6375L235.04375 23.6375L235.04375 25.653126L233.27812 25.653126ZM233.27812 37.95L233.27812 27.575L235.04375 27.575L235.04375 37.95L233.27812 37.95ZM241.10625 36.371876L241.35625 37.934376Q240.62187 38.090626 240.02812 38.090626Q239.075 38.090626 238.54375 37.79375Q238.02812 37.48125 237.80937 36.996876Q237.59062 36.496876 237.59062 34.91875L237.59062 28.95L236.30937 28.95L236.30937 27.575L237.59062 27.575L237.59062 25.0125L239.34062 23.95L239.34062 27.575L241.10625 27.575L241.10625 28.95L239.34062 28.95L239.34062 35.0125Q239.34062 35.7625 239.43437 35.98125Q239.52812 36.184376 239.73125 36.325Q239.95 36.45 240.34062 36.45Q240.62187 36.45 241.10625 36.371876ZM243.2625 37.95L243.2625 23.6375L245.02812 23.6375L245.02812 28.7625Q246.2625 27.340626 248.1375 27.340626Q249.27812 27.340626 250.12187 27.79375Q250.98125 28.246876 251.34062 29.059376Q251.71562 29.85625 251.71562 31.371876L251.71562 37.95L249.96562 37.95L249.96562 31.371876Q249.96562 30.059376 249.3875 29.465626Q248.80937 28.85625 247.77812 28.85625Q246.99687 28.85625 246.29375 29.2625Q245.60625 29.66875 245.30937 30.371876Q245.02812 31.059376 245.02812 32.278126L245.02812 37.95L243.2625 37.95ZM260.2625 37.95L260.2625 27.575L261.84064 27.575L261.84064 29.028126Q262.325 28.278126 263.1375 27.809376Q263.95 27.340626 264.98126 27.340626Q266.1375 27.340626 266.8719 27.825Q267.60626 28.29375 267.91876 29.153126Q269.15314 27.340626 271.1219 27.340626Q272.66876 27.340626 273.4969 28.2Q274.325 29.059376 274.325 30.825L274.325 37.95L272.575 37.95L272.575 31.41875Q272.575 30.35625 272.40314 29.903126Q272.23126 29.434376 271.77814 29.153126Q271.34064 28.871876 270.73126 28.871876Q269.6375 28.871876 268.90314 29.60625Q268.1844 30.325 268.1844 31.91875L268.1844 37.95L266.4344 37.95L266.4344 31.215626Q266.4344 30.04375 265.9969 29.465626Q265.575 28.871876 264.59064 28.871876Q263.85626 28.871876 263.21564 29.2625Q262.59064 29.653126 262.3094 30.403126Q262.02814 31.153126 262.02814 32.575L262.02814 37.95L260.2625 37.95ZM277.1844 41.95L276.9969 40.29375Q277.575 40.45 277.9969 40.45Q278.59064 40.45 278.9344 40.246876Q279.29376 40.059376 279.5125 39.715626Q279.6844 39.45 280.0594 38.403126Q280.10626 38.246876 280.21564 37.965626L276.27814 27.575L278.16876 27.575L280.325 33.590626Q280.7469 34.73125 281.075 35.98125Q281.3875 34.778126 281.79376 33.621876L284.0125 27.575L285.77814 27.575L281.825 38.121876Q281.2 39.840626 280.84064 40.48125Q280.3719 41.35625 279.7625 41.746876Q279.16876 42.153126 278.325 42.153126Q277.8094 42.153126 277.1844 41.95ZM297.10626 36.371876L297.35626 37.934376Q296.6219 38.090626 296.02814 38.090626Q295.075 38.090626 294.54376 37.79375Q294.02814 37.48125 293.8094 36.996876Q293.59064 36.496876 293.59064 34.91875L293.59064 28.95L292.3094 28.95L292.3094 27.575L293.59064 27.575L293.59064 25.0125L295.34064 23.95L295.34064 27.575L297.10626 27.575L297.10626 28.95L295.34064 28.95L295.34064 35.0125Q295.34064 35.7625 295.4344 35.98125Q295.52814 36.184376 295.73126 36.325Q295.95 36.45 296.34064 36.45Q296.6219 36.45 297.10626 36.371876ZM306.04376 36.66875Q305.0594 37.496876 304.15314 37.840626Q303.2469 38.184376 302.21564 38.184376Q300.5125 38.184376 299.59064 37.35625Q298.66876 36.5125 298.66876 35.215626Q298.66876 34.45 299.0125 33.825Q299.3719 33.2 299.9344 32.825Q300.4969 32.434376 301.2 32.23125Q301.71564 32.10625 302.7625 31.965626Q304.8875 31.715626 305.8875 31.371876Q305.90314 31.0125 305.90314 30.903126Q305.90314 29.840626 305.40314 29.3875Q304.73126 28.79375 303.40314 28.79375Q302.15314 28.79375 301.5594 29.23125Q300.98126 29.66875 300.7 30.778126L298.98126 30.54375Q299.21564 29.434376 299.7469 28.7625Q300.27814 28.075 301.29376 27.715626Q302.3094 27.340626 303.65314 27.340626Q304.98126 27.340626 305.8094 27.653126Q306.6375 27.965626 307.02814 28.45Q307.41876 28.91875 307.575 29.6375Q307.66876 30.090626 307.66876 31.2625L307.66876 33.60625Q307.66876 36.059376 307.77814 36.715626Q307.8875 37.35625 308.23126 37.95L306.3875 37.95Q306.1219 37.403126 306.04376 36.66875ZM305.8875 32.746876Q304.9344 33.1375 303.0125 33.403126Q301.9344 33.559376 301.48126 33.7625Q301.04376 33.95 300.79376 34.325Q300.54376 34.7 300.54376 35.16875Q300.54376 35.871876 301.075 36.340626Q301.60626 36.809376 302.6375 36.809376Q303.65314 36.809376 304.4344 36.371876Q305.23126 35.91875 305.60626 35.153126Q305.8875 34.54375 305.8875 33.3875L305.8875 32.746876ZM309.95 38.809376L311.65314 39.059376Q311.7625 39.85625 312.2469 40.215626Q312.90314 40.7 314.04376 40.7Q315.2625 40.7 315.91876 40.215626Q316.59064 39.73125 316.825 38.85625Q316.96564 38.309376 316.95 36.590626Q315.79376 37.95 314.075 37.95Q311.9344 37.95 310.7625 36.403126Q309.59064 34.85625 309.59064 32.7Q309.59064 31.215626 310.1219 29.965626Q310.66876 28.715626 311.6844 28.028126Q312.71564 27.340626 314.09064 27.340626Q315.91876 27.340626 317.1219 28.825L317.1219 27.575L318.73126 27.575L318.73126 36.54375Q318.73126 38.965626 318.23126 39.965626Q317.7469 40.98125 316.66876 41.559376Q315.60626 42.153126 314.04376 42.153126Q312.2 42.153126 311.04376 41.325Q309.90314 40.496876 309.95 38.809376ZM311.40314 32.575Q311.40314 34.621876 312.21564 35.559376Q313.02814 36.496876 314.2469 36.496876Q315.45 36.496876 316.2625 35.559376Q317.09064 34.621876 317.09064 32.6375Q317.09064 30.73125 316.2469 29.7625Q315.40314 28.79375 314.21564 28.79375Q313.04376 28.79375 312.21564 29.746876Q311.40314 30.7 311.40314 32.575ZM320.5594 34.85625L322.3094 34.575Q322.45 35.621876 323.1219 36.184376Q323.79376 36.73125 324.9969 36.73125Q326.2 36.73125 326.77814 36.246876Q327.3719 35.746876 327.3719 35.090626Q327.3719 34.496876 326.85626 34.153126Q326.4969 33.91875 325.0594 33.559376Q323.1219 33.059376 322.3719 32.715626Q321.6375 32.35625 321.2469 31.73125Q320.85626 31.090626 320.85626 30.325Q320.85626 29.6375 321.16876 29.04375Q321.4969 28.45 322.04376 28.059376Q322.45 27.7625 323.15314 27.559376Q323.8719 27.340626 324.6844 27.340626Q325.90314 27.340626 326.825 27.7Q327.7469 28.04375 328.1844 28.653126Q328.6219 29.246876 328.79376 30.246876L327.075 30.48125Q326.95 29.684376 326.3875 29.246876Q325.825 28.79375 324.8094 28.79375Q323.59064 28.79375 323.075 29.2Q322.5594 29.590626 322.5594 30.121876Q322.5594 30.465626 322.77814 30.746876Q322.98126 31.028126 323.45 31.215626Q323.71564 31.309376 324.9969 31.653126Q326.8719 32.153126 327.60626 32.48125Q328.34064 32.79375 328.7625 33.403126Q329.1844 33.996876 329.1844 34.903126Q329.1844 35.778126 328.66876 36.559376Q328.15314 37.340626 327.1844 37.7625Q326.21564 38.184376 324.9969 38.184376Q322.98126 38.184376 321.91876 37.340626Q320.85626 36.496876 320.5594 34.85625Z" fill-rule="nonzero"/></svg>