<svg version="1.1" viewBox="0.0 0.0 948.0 371.0" fill="none" stroke="none" stroke-linecap="square" stroke-miterlimit="10" width="948" height="371" xmlns:xlink="http://www.w3.org/1999/xlink" xmlns="http://www.w3.org/2000/svg"><path fill="#ffffff" d="M0 0L948.0 0L948.0 371.0L0 371.0L0 0Z" fill-rule="nonzero"/><path fill="#2e5dab" d="M622.76666 214.84084C622.76666 256.3138 587.6109 293.83328 533.2688 310.35617L533.2688 288.04117C587.6109 271.51828 622.76666 233.99881 622.76666 192.52583Z" fill-rule="nonzero"/><path fill="#4285f4" d="M474.0 88.38917C544.4956 88.38917 605.3123 123.023834 619.6551 171.33861C633.9978 219.65337 597.92816 268.3813 533.2688 288.04117L474.0 192.52583Z" fill-rule="nonzero"/><path fill="#34a853" d="M411.02618 98.17938C430.74188 91.73113 452.23846 88.38917 474.0 88.38917L474.0 192.52583Z" fill-rule="nonzero"/><path fill="#fbbc04" d="M325.9128 182.5841C330.9407 145.88663 363.31192 113.78493 411.02618 98.17938L474.0 192.52583Z" fill-rule="nonzero"/><path fill="#a42f25" d="M533.2688 310.35617C487.28384 324.338 434.33115 321.16592 392.40863 301.91806C350.48615 282.67017 325.23334 249.93576 325.23334 214.84084L325.23334 192.52583C325.23334 227.62077 350.48615 260.35516 392.40863 279.60306C434.33115 298.85092 487.28384 302.023 533.2688 288.04117Z" fill-rule="nonzero"/><path fill="#ea4335" d="M533.2688 288.04117C484.96338 302.72858 429.16446 298.4434 386.55716 276.77417C343.94983 255.10495 320.88495 219.28159 325.9128 182.5841L474.0 192.52583Z" fill-rule="nonzero"/><path fill="#1a1a1a" d="M19.503124 91.449165L19.503124 82.855415L25.70625 82.855415L25.70625 83.87104L20.64375 83.87104L20.64375 86.49604L25.39375 86.49604L25.39375 87.511665L20.64375 87.511665L20.64375 90.43354L25.909374 90.43354L25.909374 91.449165L19.503124 91.449165ZM31.409374 89.167915L32.440624 89.30854Q32.26875 90.37104 31.565624 90.980415Q30.8625 91.58979 29.846874 91.58979Q28.565624 91.58979 27.784374 90.761665Q27.01875 89.917915 27.01875 88.355415Q27.01875 87.355415 27.346874 86.605415Q27.690624 85.83979 28.3625 85.46479Q29.05 85.08979 29.8625 85.08979Q30.8625 85.08979 31.503124 85.605415Q32.159374 86.105415 32.346874 87.05854L31.315624 87.21479Q31.175 86.58979 30.8 86.27729Q30.425 85.949165 29.89375 85.949165Q29.096874 85.949165 28.596874 86.52729Q28.096874 87.08979 28.096874 88.324165Q28.096874 89.58979 28.58125 90.15229Q29.065624 90.71479 29.83125 90.71479Q30.45625 90.71479 30.8625 90.33979Q31.284374 89.96479 31.409374 89.167915ZM32.95625 88.33979Q32.95625 86.605415 33.909374 85.77729Q34.70625 85.08979 35.8625 85.08979Q37.14375 85.08979 37.95625 85.93354Q38.784374 86.761665 38.784374 88.24604Q38.784374 89.449165 38.425 90.136665Q38.065624 90.824165 37.3625 91.21479Q36.675 91.58979 35.8625 91.58979Q34.565624 91.58979 33.753124 90.761665Q32.95625 89.917915 32.95625 88.33979ZM34.034374 88.33979Q34.034374 89.52729 34.55 90.12104Q35.08125 90.71479 35.8625 90.71479Q36.659374 90.71479 37.175 90.12104Q37.690624 89.52729 37.690624 88.30854Q37.690624 87.15229 37.159374 86.55854Q36.64375 85.96479 35.8625 85.96479Q35.08125 85.96479 34.55 86.55854Q34.034374 87.136665 34.034374 88.33979ZM39.925 89.58979L40.95625 89.43354Q41.05 90.05854 41.440624 90.386665Q41.846874 90.71479 42.58125 90.71479Q43.3 90.71479 43.64375 90.43354Q44.003124 90.136665 44.003124 89.730415Q44.003124 89.37104 43.690624 89.167915Q43.471874 89.02729 42.6125 88.80854Q41.45625 88.511665 41.003124 88.30854Q40.565624 88.08979 40.33125 87.71479Q40.096874 87.33979 40.096874 86.87104Q40.096874 86.46479 40.284374 86.105415Q40.471874 85.74604 40.8 85.511665Q41.05 85.33979 41.471874 85.21479Q41.89375 85.08979 42.39375 85.08979Q43.1125 85.08979 43.659374 85.30854Q44.221874 85.511665 44.4875 85.87104Q44.753124 86.230415 44.846874 86.824165L43.815624 86.96479Q43.753124 86.49604 43.409374 86.230415Q43.08125 85.949165 42.45625 85.949165Q41.7375 85.949165 41.425 86.199165Q41.1125 86.43354 41.1125 86.761665Q41.1125 86.96479 41.2375 87.12104Q41.378124 87.292915 41.64375 87.40229Q41.8 87.46479 42.58125 87.667915Q43.70625 87.980415 44.14375 88.167915Q44.58125 88.355415 44.83125 88.71479Q45.08125 89.074165 45.08125 89.62104Q45.08125 90.15229 44.76875 90.62104Q44.471874 91.074165 43.89375 91.33979Q43.315624 91.58979 42.58125 91.58979Q41.3625 91.58979 40.721874 91.08979Q40.096874 90.574165 39.925 89.58979ZM46.3 93.83979L46.175 92.855415Q46.51875 92.949165 46.784374 92.949165Q47.128124 92.949165 47.33125 92.824165Q47.55 92.71479 47.690624 92.511665Q47.784374 92.33979 48.01875 91.71479Q48.034374 91.636665 48.1125 91.46479L45.7375 85.230415L46.878124 85.230415L48.175 88.824165Q48.425 89.511665 48.628124 90.27729Q48.815624 89.542915 49.065624 88.855415L50.39375 85.230415L51.440624 85.230415L49.08125 91.55854Q48.690624 92.574165 48.4875 92.96479Q48.20625 93.49604 47.83125 93.730415Q47.471874 93.980415 46.971874 93.980415Q46.675 93.980415 46.3 93.83979ZM51.925 89.58979L52.95625 89.43354Q53.05 90.05854 53.440624 90.386665Q53.846874 90.71479 54.58125 90.71479Q55.3 90.71479 55.64375 90.43354Q56.003124 90.136665 56.003124 89.730415Q56.003124 89.37104 55.690624 89.167915Q55.471874 89.02729 54.6125 88.80854Q53.45625 88.511665 53.003124 88.30854Q52.565624 88.08979 52.33125 87.71479Q52.096874 87.33979 52.096874 86.87104Q52.096874 86.46479 52.284374 86.105415Q52.471874 85.74604 52.8 85.511665Q53.05 85.33979 53.471874 85.21479Q53.89375 85.08979 54.39375 85.08979Q55.1125 85.08979 55.659374 85.30854Q56.221874 85.511665 56.4875 85.87104Q56.753124 86.230415 56.846874 86.824165L55.815624 86.96479Q55.753124 86.49604 55.409374 86.230415Q55.08125 85.949165 54.45625 85.949165Q53.7375 85.949165 53.425 86.199165Q53.1125 86.43354 53.1125 86.761665Q53.1125 86.96479 53.2375 87.12104Q53.378124 87.292915 53.64375 87.40229Q53.8 87.46479 54.58125 87.667915Q55.70625 87.980415 56.14375 88.167915Q56.58125 88.355415 56.83125 88.71479Q57.08125 89.074165 57.08125 89.62104Q57.08125 90.15229 56.76875 90.62104Q56.471874 91.074165 55.89375 91.33979Q55.315624 91.58979 54.58125 91.58979Q53.3625 91.58979 52.721874 91.08979Q52.096874 90.574165 51.925 89.58979ZM60.64375 90.511665L60.8 91.43354Q60.346874 91.52729 60.003124 91.52729Q59.425 91.52729 59.1125 91.355415Q58.8 91.167915 58.659374 90.87104Q58.534374 90.574165 58.534374 89.62104L58.534374 86.042915L57.76875 86.042915L57.76875 85.230415L58.534374 85.230415L58.534374 83.68354L59.58125 83.05854L59.58125 85.230415L60.64375 85.230415L60.64375 86.042915L59.58125 86.042915L59.58125 89.68354Q59.58125 90.136665 59.628124 90.261665Q59.690624 90.386665 59.815624 90.46479Q59.940624 90.542915 60.175 90.542915Q60.3625 90.542915 60.64375 90.511665ZM65.59688 89.449165L66.69063 89.574165Q66.44063 90.52729 65.7375 91.05854Q65.03438 91.58979 63.95625 91.58979Q62.596874 91.58979 61.784374 90.74604Q60.9875 89.90229 60.9875 88.386665Q60.9875 86.824165 61.8 85.96479Q62.6125 85.08979 63.89375 85.08979Q65.14375 85.08979 65.925 85.93354Q66.72188 86.77729 66.72188 88.324165Q66.72188 88.417915 66.72188 88.605415L62.08125 88.605415Q62.14375 89.636665 62.659374 90.18354Q63.175 90.71479 63.95625 90.71479Q64.53438 90.71479 64.94063 90.417915Q65.3625 90.105415 65.59688 89.449165ZM62.14375 87.74604L65.6125 87.74604Q65.55 86.949165 65.22188 86.55854Q64.70625 85.949165 63.909374 85.949165Q63.175 85.949165 62.675 86.43354Q62.190624 86.917915 62.14375 87.74604ZM68.34688 91.449165L68.34688 85.230415L69.28438 85.230415L69.28438 86.105415Q69.58125 85.636665 70.06563 85.37104Q70.55 85.08979 71.175 85.08979Q71.8625 85.08979 72.3 85.37104Q72.75313 85.65229 72.925 86.167915Q73.675 85.08979 74.84688 85.08979Q75.78438 85.08979 76.26875 85.605415Q76.76875 86.105415 76.76875 87.18354L76.76875 91.449165L75.72188 91.449165L75.72188 87.52729Q75.72188 86.90229 75.6125 86.62104Q75.51875 86.33979 75.25313 86.167915Q74.9875 85.99604 74.6125 85.99604Q73.95625 85.99604 73.51875 86.43354Q73.09688 86.87104 73.09688 87.83979L73.09688 91.449165L72.03438 91.449165L72.03438 87.40229Q72.03438 86.699165 71.76875 86.355415Q71.51875 85.99604 70.94063 85.99604Q70.4875 85.99604 70.1125 86.230415Q69.7375 86.46479 69.56563 86.917915Q69.39375 87.37104 69.39375 88.21479L69.39375 91.449165L68.34688 91.449165Z" fill-rule="nonzero"/><path fill="#9e9e9e" d="M19.1125 100.980415L19.1125 99.96479L24.675 99.96479L24.675 100.792915Q23.8625 101.667915 23.05 103.12104Q22.253124 104.55854 21.815624 106.08979Q21.4875 107.167915 21.409374 108.449165L20.315624 108.449165Q20.33125 107.43354 20.70625 105.99604Q21.096874 104.55854 21.8 103.230415Q22.51875 101.90229 23.33125 100.980415L19.1125 100.980415ZM26.64375 108.449165L26.64375 107.24604L27.846874 107.24604L27.846874 108.449165L26.64375 108.449165ZM29.05 104.21479Q29.05 102.68354 29.3625 101.761665Q29.675 100.824165 30.284374 100.324165Q30.909374 99.824165 31.846874 99.824165Q32.534374 99.824165 33.05 100.105415Q33.58125 100.386665 33.925 100.917915Q34.26875 101.43354 34.45625 102.18354Q34.64375 102.93354 34.64375 104.21479Q34.64375 105.730415 34.33125 106.65229Q34.034374 107.574165 33.409374 108.08979Q32.8 108.58979 31.846874 108.58979Q30.6125 108.58979 29.89375 107.699165Q29.05 106.636665 29.05 104.21479ZM30.128124 104.21479Q30.128124 106.324165 30.628124 107.02729Q31.128124 107.730415 31.846874 107.730415Q32.58125 107.730415 33.065624 107.02729Q33.565624 106.324165 33.565624 104.21479Q33.565624 102.08979 33.065624 101.40229Q32.58125 100.699165 31.83125 100.699165Q31.1125 100.699165 30.675 101.30854Q30.128124 102.08979 30.128124 104.21479ZM36.253124 101.917915Q36.253124 100.99604 36.70625 100.355415Q37.175 99.71479 38.05 99.71479Q38.8625 99.71479 39.39375 100.292915Q39.925 100.87104 39.925 101.980415Q39.925 103.074165 39.378124 103.667915Q38.846874 104.24604 38.065624 104.24604Q37.284374 104.24604 36.76875 103.667915Q36.253124 103.08979 36.253124 101.917915ZM38.08125 100.43354Q37.690624 100.43354 37.425 100.77729Q37.175 101.12104 37.175 102.02729Q37.175 102.855415 37.425 103.199165Q37.690624 103.52729 38.08125 103.52729Q38.4875 103.52729 38.7375 103.18354Q39.003124 102.83979 39.003124 101.949165Q39.003124 101.105415 38.7375 100.77729Q38.471874 100.43354 38.08125 100.43354ZM38.08125 108.761665L42.784374 99.71479L43.64375 99.71479L38.95625 108.761665L38.08125 108.761665ZM41.8 106.43354Q41.8 105.511665 42.253124 104.87104Q42.721874 104.230415 43.6125 104.230415Q44.425 104.230415 44.95625 104.80854Q45.4875 105.37104 45.4875 106.49604Q45.4875 107.58979 44.940624 108.18354Q44.409374 108.761665 43.6125 108.761665Q42.846874 108.761665 42.315624 108.18354Q41.8 107.605415 41.8 106.43354ZM43.64375 104.949165Q43.2375 104.949165 42.971874 105.292915Q42.721874 105.636665 42.721874 106.542915Q42.721874 107.355415 42.9875 107.699165Q43.253124 108.042915 43.64375 108.042915Q44.034374 108.042915 44.3 107.699165Q44.565624 107.355415 44.565624 106.449165Q44.565624 105.62104 44.3 105.292915Q44.034374 104.949165 43.64375 104.949165Z" fill-rule="nonzero"/><path stroke="#757575" stroke-width="1.0" stroke-linecap="butt" d="M18.55 95.949165L319.23334 95.949165L443.3586 95.949165" fill-rule="nonzero"/><path fill="#9e9e9e" d="M445.3586 95.949165C445.3586 94.8446 444.46317 93.949165 443.3586 93.949165C442.25403 93.949165 441.3586 94.8446 441.3586 95.949165C441.3586 97.053734 442.25403 97.949165 443.3586 97.949165C444.46317 97.949165 445.3586 97.053734 445.3586 95.949165" fill-rule="nonzero"/><path fill="#1a1a1a" d="M19.503124 130.97495L19.503124 122.381195L25.70625 122.381195L25.70625 123.39682L20.64375 123.39682L20.64375 126.02182L25.39375 126.02182L25.39375 127.037445L20.64375 127.037445L20.64375 129.95932L25.909374 129.95932L25.909374 130.97495L19.503124 130.97495ZM31.378124 130.97495L31.378124 130.1937Q30.784374 131.11557 29.64375 131.11557Q28.89375 131.11557 28.26875 130.70932Q27.64375 130.28745 27.3 129.55307Q26.95625 128.8187 26.95625 127.86557Q26.95625 126.943695 27.26875 126.17807Q27.58125 125.412445 28.20625 125.02182Q28.83125 124.61557 29.596874 124.61557Q30.159374 124.61557 30.596874 124.849945Q31.034374 125.08432 31.315624 125.45932L31.315624 122.381195L32.3625 122.381195L32.3625 130.97495L31.378124 130.97495ZM28.05 127.86557Q28.05 129.0687 28.55 129.66245Q29.05 130.24057 29.7375 130.24057Q30.425 130.24057 30.909374 129.67807Q31.39375 129.11557 31.39375 127.95932Q31.39375 126.67807 30.89375 126.08432Q30.409374 125.49057 29.690624 125.49057Q28.9875 125.49057 28.51875 126.068695Q28.05 126.631195 28.05 127.86557ZM34.346874 123.599945L34.346874 122.381195L35.409374 122.381195L35.409374 123.599945L34.346874 123.599945ZM34.346874 130.97495L34.346874 124.756195L35.409374 124.756195L35.409374 130.97495L34.346874 130.97495ZM39.64375 130.03745L39.8 130.95932Q39.346874 131.05307 39.003124 131.05307Q38.425 131.05307 38.1125 130.8812Q37.8 130.6937 37.659374 130.39682Q37.534374 130.09995 37.534374 129.14682L37.534374 125.568695L36.76875 125.568695L36.76875 124.756195L37.534374 124.756195L37.534374 123.20932L38.58125 122.58432L38.58125 124.756195L39.64375 124.756195L39.64375 125.568695L38.58125 125.568695L38.58125 129.20932Q38.58125 129.66245 38.628124 129.78745Q38.690624 129.91245 38.815624 129.99057Q38.940624 130.0687 39.175 130.0687Q39.3625 130.0687 39.64375 130.03745ZM39.95625 127.86557Q39.95625 126.131195 40.909374 125.30307Q41.70625 124.61557 42.8625 124.61557Q44.14375 124.61557 44.95625 125.45932Q45.784374 126.287445 45.784374 127.77182Q45.784374 128.97495 45.425 129.66245Q45.065624 130.34995 44.3625 130.74057Q43.675 131.11557 42.8625 131.11557Q41.565624 131.11557 40.753124 130.28745Q39.95625 129.4437 39.95625 127.86557ZM41.034374 127.86557Q41.034374 129.05307 41.55 129.64682Q42.08125 130.24057 42.8625 130.24057Q43.659374 130.24057 44.175 129.64682Q44.690624 129.05307 44.690624 127.83432Q44.690624 126.67807 44.159374 126.08432Q43.64375 125.49057 42.8625 125.49057Q42.08125 125.49057 41.55 126.08432Q41.034374 126.662445 41.034374 127.86557ZM47.33125 130.97495L47.33125 124.756195L48.284374 124.756195L48.284374 125.693695Q48.64375 125.037445 48.940624 124.83432Q49.253124 124.61557 49.628124 124.61557Q50.159374 124.61557 50.70625 124.943695L50.346874 125.92807Q49.95625 125.693695 49.58125 125.693695Q49.221874 125.693695 48.940624 125.912445Q48.675 126.11557 48.565624 126.49057Q48.378124 127.05307 48.378124 127.70932L48.378124 130.97495L47.33125 130.97495ZM51.346874 123.599945L51.346874 122.381195L52.409374 122.381195L52.409374 123.599945L51.346874 123.599945ZM51.346874 130.97495L51.346874 124.756195L52.409374 124.756195L52.409374 130.97495L51.346874 130.97495ZM58.409374 130.20932Q57.815624 130.70932 57.26875 130.91245Q56.7375 131.11557 56.1125 131.11557Q55.08125 131.11557 54.534374 130.61557Q53.9875 130.11557 53.9875 129.33432Q53.9875 128.8812 54.190624 128.5062Q54.39375 128.11557 54.7375 127.89682Q55.08125 127.662445 55.503124 127.55307Q55.8 127.45932 56.440624 127.381195Q57.70625 127.24057 58.315624 127.02182Q58.315624 126.80307 58.315624 126.756195Q58.315624 126.099945 58.01875 125.83432Q57.6125 125.49057 56.815624 125.49057Q56.08125 125.49057 55.721874 125.756195Q55.3625 126.006195 55.190624 126.662445L54.159374 126.52182Q54.3 125.86557 54.628124 125.45932Q54.95625 125.05307 55.565624 124.83432Q56.175 124.61557 56.971874 124.61557Q57.76875 124.61557 58.26875 124.80307Q58.76875 124.99057 59.003124 125.27182Q59.2375 125.55307 59.33125 125.99057Q59.378124 126.256195 59.378124 126.95932L59.378124 128.36557Q59.378124 129.83432 59.440624 130.22495Q59.51875 130.61557 59.721874 130.97495L58.6125 130.97495Q58.45625 130.64682 58.409374 130.20932ZM58.315624 127.849945Q57.7375 128.08432 56.596874 128.2562Q55.940624 128.34995 55.675 128.47495Q55.409374 128.58432 55.253124 128.80307Q55.1125 129.02182 55.1125 129.30307Q55.1125 129.72495 55.425 130.0062Q55.753124 130.28745 56.3625 130.28745Q56.971874 130.28745 57.440624 130.02182Q57.925 129.7562 58.14375 129.28745Q58.315624 128.92807 58.315624 128.24057L58.315624 127.849945ZM61.315624 130.97495L61.315624 122.381195L62.378124 122.381195L62.378124 130.97495L61.315624 130.97495ZM63.925 129.11557L64.95625 128.95932Q65.05 129.58432 65.44063 129.91245Q65.84688 130.24057 66.58125 130.24057Q67.3 130.24057 67.64375 129.95932Q68.00313 129.66245 68.00313 129.2562Q68.00313 128.89682 67.69063 128.6937Q67.47188 128.55307 66.6125 128.33432Q65.45625 128.03745 65.00313 127.83432Q64.56563 127.61557 64.33125 127.24057Q64.09688 126.86557 64.09688 126.39682Q64.09688 125.99057 64.28438 125.631195Q64.47188 125.27182 64.8 125.037445Q65.05 124.86557 65.47188 124.74057Q65.89375 124.61557 66.39375 124.61557Q67.1125 124.61557 67.65938 124.83432Q68.22188 125.037445 68.4875 125.39682Q68.75313 125.756195 68.84688 126.349945L67.81563 126.49057Q67.75313 126.02182 67.40938 125.756195Q67.08125 125.474945 66.45625 125.474945Q65.7375 125.474945 65.425 125.724945Q65.1125 125.95932 65.1125 126.287445Q65.1125 126.49057 65.2375 126.64682Q65.37813 126.818695 65.64375 126.92807Q65.8 126.99057 66.58125 127.193695Q67.70625 127.506195 68.14375 127.693695Q68.58125 127.881195 68.83125 128.24057Q69.08125 128.59995 69.08125 129.14682Q69.08125 129.67807 68.76875 130.14682Q68.47188 130.59995 67.89375 130.86557Q67.31563 131.11557 66.58125 131.11557Q65.3625 131.11557 64.72188 130.61557Q64.09688 130.09995 63.925 129.11557ZM72.53438 130.97495L75.83125 122.381195L77.05 122.381195L80.56563 130.97495L79.28438 130.97495L78.26875 128.36557L74.69063 128.36557L73.7375 130.97495L72.53438 130.97495ZM75.01875 127.443695L77.925 127.443695L77.03438 125.068695Q76.6125 123.99057 76.425 123.287445Q76.25313 124.11557 75.95625 124.92807L75.01875 127.443695ZM81.34688 130.97495L81.34688 124.756195L82.28438 124.756195L82.28438 125.631195Q82.97188 124.61557 84.26875 124.61557Q84.83125 124.61557 85.3 124.818695Q85.78438 125.02182 86.01875 125.349945Q86.25313 125.67807 86.34688 126.11557Q86.39375 126.412445 86.39375 127.14682L86.39375 130.97495L85.34688 130.97495L85.34688 127.193695Q85.34688 126.537445 85.22188 126.224945Q85.09688 125.912445 84.78438 125.724945Q84.47188 125.52182 84.05 125.52182Q83.37813 125.52182 82.87813 125.95932Q82.39375 126.381195 82.39375 127.568695L82.39375 130.97495L81.34688 130.97495ZM92.37813 130.97495L92.37813 130.1937Q91.78438 131.11557 90.64375 131.11557Q89.89375 131.11557 89.26875 130.70932Q88.64375 130.28745 88.3 129.55307Q87.95625 128.8187 87.95625 127.86557Q87.95625 126.943695 88.26875 126.17807Q88.58125 125.412445 89.20625 125.02182Q89.83125 124.61557 90.59688 124.61557Q91.15938 124.61557 91.59688 124.849945Q92.03438 125.08432 92.31563 125.45932L92.31563 122.381195L93.3625 122.381195L93.3625 130.97495L92.37813 130.97495ZM89.05 127.86557Q89.05 129.0687 89.55 129.66245Q90.05 130.24057 90.7375 130.24057Q91.425 130.24057 91.90938 129.67807Q92.39375 129.11557 92.39375 127.95932Q92.39375 126.67807 91.89375 126.08432Q91.40938 125.49057 90.69063 125.49057Q89.9875 125.49057 89.51875 126.068695Q89.05 126.631195 89.05 127.86557ZM104.6125 127.95932L105.7375 128.2562Q105.37813 129.64682 104.45625 130.3812Q103.53438 131.11557 102.19063 131.11557Q100.8 131.11557 99.925 130.55307Q99.05 129.99057 98.59688 128.92807Q98.14375 127.849945 98.14375 126.61557Q98.14375 125.27182 98.65938 124.27182Q99.175 123.27182 100.1125 122.756195Q101.06563 122.24057 102.20625 122.24057Q103.4875 122.24057 104.3625 122.89682Q105.25313 123.55307 105.59688 124.74057L104.47188 125.006195Q104.175 124.068695 103.59688 123.64682Q103.03438 123.20932 102.175 123.20932Q101.19063 123.20932 100.51875 123.693695Q99.8625 124.162445 99.58125 124.95932Q99.31563 125.756195 99.31563 126.61557Q99.31563 127.70932 99.62813 128.52182Q99.95625 129.33432 100.62813 129.74057Q101.3 130.14682 102.09688 130.14682Q103.05 130.14682 103.70625 129.59995Q104.37813 129.05307 104.6125 127.95932ZM106.95625 127.86557Q106.95625 126.131195 107.90938 125.30307Q108.70625 124.61557 109.8625 124.61557Q111.14375 124.61557 111.95625 125.45932Q112.78438 126.287445 112.78438 127.77182Q112.78438 128.97495 112.425 129.66245Q112.06563 130.34995 111.3625 130.74057Q110.675 131.11557 109.8625 131.11557Q108.56563 131.11557 107.75313 130.28745Q106.95625 129.4437 106.95625 127.86557ZM108.03438 127.86557Q108.03438 129.05307 108.55 129.64682Q109.08125 130.24057 109.8625 130.24057Q110.65938 130.24057 111.175 129.64682Q111.69063 129.05307 111.69063 127.83432Q111.69063 126.67807 111.15938 126.08432Q110.64375 125.49057 109.8625 125.49057Q109.08125 125.49057 108.55 126.08432Q108.03438 126.662445 108.03438 127.86557ZM114.34688 130.97495L114.34688 124.756195L115.28438 124.756195L115.28438 125.631195Q115.58125 125.162445 116.06563 124.89682Q116.55 124.61557 117.175 124.61557Q117.8625 124.61557 118.3 124.89682Q118.75313 125.17807 118.925 125.693695Q119.675 124.61557 120.84688 124.61557Q121.78438 124.61557 122.26875 125.131195Q122.76875 125.631195 122.76875 126.70932L122.76875 130.97495L121.72188 130.97495L121.72188 127.05307Q121.72188 126.42807 121.6125 126.14682Q121.51875 125.86557 121.25313 125.693695Q120.9875 125.52182 120.6125 125.52182Q119.95625 125.52182 119.51875 125.95932Q119.09688 126.39682 119.09688 127.36557L119.09688 130.97495L118.03438 130.97495L118.03438 126.92807Q118.03438 126.224945 117.76875 125.881195Q117.51875 125.52182 116.94063 125.52182Q116.4875 125.52182 116.1125 125.756195Q115.7375 125.99057 115.56563 126.443695Q115.39375 126.89682 115.39375 127.74057L115.39375 130.97495L114.34688 130.97495ZM124.34688 130.97495L124.34688 124.756195L125.28438 124.756195L125.28438 125.631195Q125.58125 125.162445 126.06563 124.89682Q126.55 124.61557 127.175 124.61557Q127.8625 124.61557 128.3 124.89682Q128.75313 125.17807 128.925 125.693695Q129.675 124.61557 130.84688 124.61557Q131.78438 124.61557 132.26875 125.131195Q132.76875 125.631195 132.76875 126.70932L132.76875 130.97495L131.72188 130.97495L131.72188 127.05307Q131.72188 126.42807 131.6125 126.14682Q131.51875 125.86557 131.25313 125.693695Q130.9875 125.52182 130.6125 125.52182Q129.95625 125.52182 129.51875 125.95932Q129.09688 126.39682 129.09688 127.36557L129.09688 130.97495L128.03438 130.97495L128.03438 126.92807Q128.03438 126.224945 127.76875 125.881195Q127.51875 125.52182 126.94063 125.52182Q126.4875 125.52182 126.1125 125.756195Q125.7375 125.99057 125.56563 126.443695Q125.39375 126.89682 125.39375 127.74057L125.39375 130.97495L124.34688 130.97495ZM138.59688 128.97495L139.69063 129.09995Q139.44063 130.05307 138.7375 130.58432Q138.03438 131.11557 136.95625 131.11557Q135.59688 131.11557 134.78438 130.27182Q133.9875 129.42807 133.9875 127.912445Q133.9875 126.349945 134.8 125.49057Q135.6125 124.61557 136.89375 124.61557Q138.14375 124.61557 138.925 125.45932Q139.72188 126.30307 139.72188 127.849945Q139.72188 127.943695 139.72188 128.1312L135.08125 128.1312Q135.14375 129.16245 135.65938 129.70932Q136.175 130.24057 136.95625 130.24057Q137.53438 130.24057 137.94063 129.9437Q138.3625 129.6312 138.59688 128.97495ZM135.14375 127.27182L138.6125 127.27182Q138.55 126.474945 138.22188 126.08432Q137.70625 125.474945 136.90938 125.474945Q136.175 125.474945 135.675 125.95932Q135.19063 126.443695 135.14375 127.27182ZM141.34688 130.97495L141.34688 124.756195L142.28438 124.756195L142.28438 125.631195Q142.97188 124.61557 144.26875 124.61557Q144.83125 124.61557 145.3 124.818695Q145.78438 125.02182 146.01875 125.349945Q146.25313 125.67807 146.34688 126.11557Q146.39375 126.412445 146.39375 127.14682L146.39375 130.97495L145.34688 130.97495L145.34688 127.193695Q145.34688 126.537445 145.22188 126.224945Q145.09688 125.912445 144.78438 125.724945Q144.47188 125.52182 144.05 125.52182Q143.37813 125.52182 142.87813 125.95932Q142.39375 126.381195 142.39375 127.568695L142.39375 130.97495L141.34688 130.97495ZM150.64375 130.03745L150.8 130.95932Q150.34688 131.05307 150.00313 131.05307Q149.425 131.05307 149.1125 130.8812Q148.8 130.6937 148.65938 130.39682Q148.53438 130.09995 148.53438 129.14682L148.53438 125.568695L147.76875 125.568695L147.76875 124.756195L148.53438 124.756195L148.53438 123.20932L149.58125 122.58432L149.58125 124.756195L150.64375 124.756195L150.64375 125.568695L149.58125 125.568695L149.58125 129.20932Q149.58125 129.66245 149.62813 129.78745Q149.69063 129.91245 149.81563 129.99057Q149.94063 130.0687 150.175 130.0687Q150.3625 130.0687 150.64375 130.03745ZM150.925 129.11557L151.95625 128.95932Q152.05 129.58432 152.44063 129.91245Q152.84688 130.24057 153.58125 130.24057Q154.3 130.24057 154.64375 129.95932Q155.00313 129.66245 155.00313 129.2562Q155.00313 128.89682 154.69063 128.6937Q154.47188 128.55307 153.6125 128.33432Q152.45625 128.03745 152.00313 127.83432Q151.56563 127.61557 151.33125 127.24057Q151.09688 126.86557 151.09688 126.39682Q151.09688 125.99057 151.28438 125.631195Q151.47188 125.27182 151.8 125.037445Q152.05 124.86557 152.47188 124.74057Q152.89375 124.61557 153.39375 124.61557Q154.1125 124.61557 154.65938 124.83432Q155.22188 125.037445 155.4875 125.39682Q155.75313 125.756195 155.84688 126.349945L154.81563 126.49057Q154.75313 126.02182 154.40938 125.756195Q154.08125 125.474945 153.45625 125.474945Q152.7375 125.474945 152.425 125.724945Q152.1125 125.95932 152.1125 126.287445Q152.1125 126.49057 152.2375 126.64682Q152.37813 126.818695 152.64375 126.92807Q152.8 126.99057 153.58125 127.193695Q154.70625 127.506195 155.14375 127.693695Q155.58125 127.881195 155.83125 128.24057Q156.08125 128.59995 156.08125 129.14682Q156.08125 129.67807 155.76875 130.14682Q155.47188 130.59995 154.89375 130.86557Q154.31563 131.11557 153.58125 131.11557Q152.3625 131.11557 151.72188 130.61557Q151.09688 130.09995 150.925 129.11557Z" fill-rule="nonzero"/><path fill="#9e9e9e" d="M23.01875 147.97495L21.971874 147.97495L21.971874 141.2562Q21.58125 141.61557 20.95625 141.99057Q20.346874 142.34995 19.8625 142.52182L19.8625 141.5062Q20.7375 141.08432 21.39375 140.5062Q22.065624 139.91245 22.346874 139.34995L23.01875 139.34995L23.01875 147.97495ZM31.51875 141.49057L30.471874 141.5687Q30.33125 140.9437 30.08125 140.66245Q29.64375 140.20932 29.01875 140.20932Q28.51875 140.20932 28.128124 140.49057Q27.64375 140.86557 27.346874 141.5687Q27.065624 142.2562 27.05 143.53745Q27.425 142.95932 27.971874 142.67807Q28.534374 142.39682 29.14375 142.39682Q30.190624 142.39682 30.925 143.17807Q31.675 143.95932 31.675 145.17807Q31.675 145.99057 31.315624 146.6937Q30.971874 147.3812 30.3625 147.7562Q29.753124 148.11557 28.9875 148.11557Q27.659374 148.11557 26.83125 147.14682Q26.003124 146.17807 26.003124 143.95932Q26.003124 141.45932 26.925 140.33432Q27.721874 139.34995 29.08125 139.34995Q30.096874 139.34995 30.7375 139.92807Q31.39375 140.49057 31.51875 141.49057ZM27.221874 145.1937Q27.221874 145.74057 27.440624 146.24057Q27.675 146.72495 28.08125 146.99057Q28.503124 147.2562 28.971874 147.2562Q29.628124 147.2562 30.1125 146.72495Q30.596874 146.17807 30.596874 145.2562Q30.596874 144.36557 30.1125 143.84995Q29.64375 143.33432 28.925 143.33432Q28.20625 143.33432 27.70625 143.84995Q27.221874 144.36557 27.221874 145.1937ZM33.64375 147.97495L33.64375 146.77182L34.846874 146.77182L34.846874 147.97495L33.64375 147.97495ZM36.05 145.72495L37.159374 145.6312Q37.284374 146.4437 37.721874 146.84995Q38.175 147.2562 38.815624 147.2562Q39.565624 147.2562 40.096874 146.67807Q40.628124 146.09995 40.628124 145.16245Q40.628124 144.2562 40.1125 143.74057Q39.6125 143.20932 38.784374 143.20932Q38.284374 143.20932 37.8625 143.4437Q37.45625 143.67807 37.221874 144.03745L36.2375 143.91245L37.065624 139.5062L41.346874 139.5062L41.346874 140.5062L37.909374 140.5062L37.45625 142.8187Q38.221874 142.27182 39.065624 142.27182Q40.190624 142.27182 40.95625 143.05307Q41.7375 143.83432 41.7375 145.0687Q41.7375 146.22495 41.065624 147.08432Q40.2375 148.11557 38.815624 148.11557Q37.64375 148.11557 36.89375 147.45932Q36.159374 146.80307 36.05 145.72495ZM43.253124 141.4437Q43.253124 140.52182 43.70625 139.8812Q44.175 139.24057 45.05 139.24057Q45.8625 139.24057 46.39375 139.8187Q46.925 140.39682 46.925 141.5062Q46.925 142.59995 46.378124 143.1937Q45.846874 143.77182 45.065624 143.77182Q44.284374 143.77182 43.76875 143.1937Q43.253124 142.61557 43.253124 141.4437ZM45.08125 139.95932Q44.690624 139.95932 44.425 140.30307Q44.175 140.64682 44.175 141.55307Q44.175 142.3812 44.425 142.72495Q44.690624 143.05307 45.08125 143.05307Q45.4875 143.05307 45.7375 142.70932Q46.003124 142.36557 46.003124 141.47495Q46.003124 140.6312 45.7375 140.30307Q45.471874 139.95932 45.08125 139.95932ZM45.08125 148.28745L49.784374 139.24057L50.64375 139.24057L45.95625 148.28745L45.08125 148.28745ZM48.8 145.95932Q48.8 145.03745 49.253124 144.39682Q49.721874 143.7562 50.6125 143.7562Q51.425 143.7562 51.95625 144.33432Q52.4875 144.89682 52.4875 146.02182Q52.4875 147.11557 51.940624 147.70932Q51.409374 148.28745 50.6125 148.28745Q49.846874 148.28745 49.315624 147.70932Q48.8 147.1312 48.8 145.95932ZM50.64375 144.47495Q50.2375 144.47495 49.971874 144.8187Q49.721874 145.16245 49.721874 146.0687Q49.721874 146.8812 49.9875 147.22495Q50.253124 147.5687 50.64375 147.5687Q51.034374 147.5687 51.3 147.22495Q51.565624 146.8812 51.565624 145.97495Q51.565624 145.14682 51.3 144.8187Q51.034374 144.47495 50.64375 144.47495Z" fill-rule="nonzero"/><path stroke="#757575" stroke-width="1.0" stroke-linecap="butt" d="M18.55 135.47495L319.23334 135.47495L358.539 135.47495" fill-rule="nonzero"/><path fill="#9e9e9e" d="M360.539 135.47495C360.539 134.37038 359.6436 133.47495 358.539 133.47495C357.43445 133.47495 356.539 134.37038 356.539 135.47495C356.539 136.57951 357.43445 137.47495 358.539 137.47495C359.6436 137.47495 360.539 136.57951 360.539 135.47495" fill-rule="nonzero"/><path fill="#1a1a1a" d="M19.471874 268.06174L19.471874 259.468L22.440624 259.468Q23.440624 259.468 23.971874 259.593Q24.70625 259.76486 25.221874 260.20236Q25.909374 260.7805 26.2375 261.68674Q26.58125 262.57736 26.58125 263.718Q26.58125 264.70236 26.346874 265.45236Q26.128124 266.20236 25.76875 266.70236Q25.409374 267.20236 24.971874 267.4836Q24.55 267.76486 23.95625 267.9211Q23.3625 268.06174 22.58125 268.06174L19.471874 268.06174ZM20.6125 267.0461L22.440624 267.0461Q23.3 267.0461 23.784374 266.88986Q24.26875 266.7336 24.55 266.43674Q24.95625 266.0461 25.175 265.3586Q25.409374 264.6711 25.409374 263.70236Q25.409374 262.3586 24.95625 261.63986Q24.51875 260.9055 23.89375 260.6555Q23.425 260.4836 22.425 260.4836L20.6125 260.4836L20.6125 267.0461ZM32.596874 266.06174L33.690624 266.18674Q33.440624 267.13986 32.7375 267.6711Q32.034374 268.20236 30.95625 268.20236Q29.596874 268.20236 28.784374 267.3586Q27.9875 266.51486 27.9875 264.99924Q27.9875 263.43674 28.8 262.57736Q29.6125 261.70236 30.89375 261.70236Q32.14375 261.70236 32.925 262.5461Q33.721874 263.38986 33.721874 264.93674Q33.721874 265.0305 33.721874 265.218L29.08125 265.218Q29.14375 266.24924 29.659374 266.7961Q30.175 267.32736 30.95625 267.32736Q31.534374 267.32736 31.940624 267.0305Q32.3625 266.718 32.596874 266.06174ZM29.14375 264.3586L32.6125 264.3586Q32.55 263.56174 32.221874 263.1711Q31.70625 262.56174 30.909374 262.56174Q30.175 262.56174 29.675 263.0461Q29.190624 263.5305 29.14375 264.3586ZM37.065624 268.06174L34.70625 261.843L35.815624 261.843L37.159374 265.56174Q37.3625 266.1711 37.55 266.81174Q37.690624 266.32736 37.940624 265.63986L39.33125 261.843L40.409374 261.843L38.05 268.06174L37.065624 268.06174ZM45.596874 266.06174L46.690624 266.18674Q46.440624 267.13986 45.7375 267.6711Q45.034374 268.20236 43.95625 268.20236Q42.596874 268.20236 41.784374 267.3586Q40.9875 266.51486 40.9875 264.99924Q40.9875 263.43674 41.8 262.57736Q42.6125 261.70236 43.89375 261.70236Q45.14375 261.70236 45.925 262.5461Q46.721874 263.38986 46.721874 264.93674Q46.721874 265.0305 46.721874 265.218L42.08125 265.218Q42.14375 266.24924 42.659374 266.7961Q43.175 267.32736 43.95625 267.32736Q44.534374 267.32736 44.940624 267.0305Q45.3625 266.718 45.596874 266.06174ZM42.14375 264.3586L45.6125 264.3586Q45.55 263.56174 45.221874 263.1711Q44.70625 262.56174 43.909374 262.56174Q43.175 262.56174 42.675 263.0461Q42.190624 263.5305 42.14375 264.3586ZM48.315624 268.06174L48.315624 259.468L49.378124 259.468L49.378124 268.06174L48.315624 268.06174ZM50.95625 264.95236Q50.95625 263.218 51.909374 262.38986Q52.70625 261.70236 53.8625 261.70236Q55.14375 261.70236 55.95625 262.5461Q56.784374 263.37424 56.784374 264.8586Q56.784374 266.06174 56.425 266.74924Q56.065624 267.43674 55.3625 267.82736Q54.675 268.20236 53.8625 268.20236Q52.565624 268.20236 51.753124 267.37424Q50.95625 266.5305 50.95625 264.95236ZM52.034374 264.95236Q52.034374 266.13986 52.55 266.7336Q53.08125 267.32736 53.8625 267.32736Q54.659374 267.32736 55.175 266.7336Q55.690624 266.13986 55.690624 264.9211Q55.690624 263.76486 55.159374 263.1711Q54.64375 262.57736 53.8625 262.57736Q53.08125 262.57736 52.55 263.1711Q52.034374 263.74924 52.034374 264.95236ZM58.346874 270.45236L58.346874 261.843L59.3 261.843L59.3 262.63986Q59.64375 262.1711 60.065624 261.93674Q60.503124 261.70236 61.1125 261.70236Q61.909374 261.70236 62.51875 262.1086Q63.128124 262.51486 63.425 263.26486Q63.7375 264.01486 63.7375 264.9055Q63.7375 265.8586 63.39375 266.62424Q63.065624 267.38986 62.409374 267.7961Q61.753124 268.20236 61.034374 268.20236Q60.503124 268.20236 60.08125 267.9836Q59.659374 267.74924 59.39375 267.4211L59.39375 270.45236L58.346874 270.45236ZM59.3 264.9836Q59.3 266.18674 59.784374 266.76486Q60.26875 267.32736 60.95625 267.32736Q61.659374 267.32736 62.159374 266.7336Q62.659374 266.13986 62.659374 264.88986Q62.659374 263.70236 62.175 263.12424Q61.690624 262.5305 61.003124 262.5305Q60.33125 262.5305 59.815624 263.1555Q59.3 263.7805 59.3 264.9836ZM65.34688 268.06174L65.34688 261.843L66.28438 261.843L66.28438 262.718Q66.58125 262.24924 67.06563 261.9836Q67.55 261.70236 68.175 261.70236Q68.8625 261.70236 69.3 261.9836Q69.75313 262.26486 69.925 262.7805Q70.675 261.70236 71.84688 261.70236Q72.78438 261.70236 73.26875 262.218Q73.76875 262.718 73.76875 263.7961L73.76875 268.06174L72.72188 268.06174L72.72188 264.13986Q72.72188 263.51486 72.6125 263.2336Q72.51875 262.95236 72.25313 262.7805Q71.9875 262.6086 71.6125 262.6086Q70.95625 262.6086 70.51875 263.0461Q70.09688 263.4836 70.09688 264.45236L70.09688 268.06174L69.03438 268.06174L69.03438 264.01486Q69.03438 263.31174 68.76875 262.968Q68.51875 262.6086 67.94063 262.6086Q67.4875 262.6086 67.1125 262.843Q66.7375 263.07736 66.56563 263.5305Q66.39375 263.9836 66.39375 264.82736L66.39375 268.06174L65.34688 268.06174ZM79.59688 266.06174L80.69063 266.18674Q80.44063 267.13986 79.7375 267.6711Q79.03438 268.20236 77.95625 268.20236Q76.59688 268.20236 75.78438 267.3586Q74.9875 266.51486 74.9875 264.99924Q74.9875 263.43674 75.8 262.57736Q76.6125 261.70236 77.89375 261.70236Q79.14375 261.70236 79.925 262.5461Q80.72188 263.38986 80.72188 264.93674Q80.72188 265.0305 80.72188 265.218L76.08125 265.218Q76.14375 266.24924 76.65938 266.7961Q77.175 267.32736 77.95625 267.32736Q78.53438 267.32736 78.94063 267.0305Q79.3625 266.718 79.59688 266.06174ZM76.14375 264.3586L79.6125 264.3586Q79.55 263.56174 79.22188 263.1711Q78.70625 262.56174 77.90938 262.56174Q77.175 262.56174 76.675 263.0461Q76.19063 263.5305 76.14375 264.3586ZM82.34688 268.06174L82.34688 261.843L83.28438 261.843L83.28438 262.718Q83.97188 261.70236 85.26875 261.70236Q85.83125 261.70236 86.3 261.9055Q86.78438 262.1086 87.01875 262.43674Q87.25313 262.76486 87.34688 263.20236Q87.39375 263.49924 87.39375 264.2336L87.39375 268.06174L86.34688 268.06174L86.34688 264.2805Q86.34688 263.62424 86.22188 263.31174Q86.09688 262.99924 85.78438 262.81174Q85.47188 262.6086 85.05 262.6086Q84.37813 262.6086 83.87813 263.0461Q83.39375 263.468 83.39375 264.6555L83.39375 268.06174L82.34688 268.06174ZM91.64375 267.12424L91.8 268.0461Q91.34688 268.13986 91.00313 268.13986Q90.425 268.13986 90.1125 267.968Q89.8 267.7805 89.65938 267.4836Q89.53438 267.18674 89.53438 266.2336L89.53438 262.6555L88.76875 262.6555L88.76875 261.843L89.53438 261.843L89.53438 260.2961L90.58125 259.6711L90.58125 261.843L91.64375 261.843L91.64375 262.6555L90.58125 262.6555L90.58125 266.2961Q90.58125 266.74924 90.62813 266.87424Q90.69063 266.99924 90.81563 267.07736Q90.94063 267.1555 91.175 267.1555Q91.3625 267.1555 91.64375 267.12424ZM101.1125 259.468L102.25313 259.468L102.25313 264.43674Q102.25313 265.7336 101.95625 266.49924Q101.65938 267.24924 100.89375 267.7336Q100.12813 268.20236 98.89375 268.20236Q97.69063 268.20236 96.90938 267.7961Q96.14375 267.37424 95.81563 266.593Q95.4875 265.7961 95.4875 264.43674L95.4875 259.468L96.62813 259.468L96.62813 264.4211Q96.62813 265.5461 96.83125 266.07736Q97.05 266.6086 97.55 266.9055Q98.06563 267.18674 98.8 267.18674Q100.05 267.18674 100.58125 266.62424Q101.1125 266.0461 101.1125 264.4211L101.1125 259.468ZM104.34688 270.45236L104.34688 261.843L105.3 261.843L105.3 262.63986Q105.64375 262.1711 106.06563 261.93674Q106.50313 261.70236 107.1125 261.70236Q107.90938 261.70236 108.51875 262.1086Q109.12813 262.51486 109.425 263.26486Q109.7375 264.01486 109.7375 264.9055Q109.7375 265.8586 109.39375 266.62424Q109.06563 267.38986 108.40938 267.7961Q107.75313 268.20236 107.03438 268.20236Q106.50313 268.20236 106.08125 267.9836Q105.65938 267.74924 105.39375 267.4211L105.39375 270.45236L104.34688 270.45236ZM105.3 264.9836Q105.3 266.18674 105.78438 266.76486Q106.26875 267.32736 106.95625 267.32736Q107.65938 267.32736 108.15938 266.7336Q108.65938 266.13986 108.65938 264.88986Q108.65938 263.70236 108.175 263.12424Q107.69063 262.5305 107.00313 262.5305Q106.33125 262.5305 105.81563 263.1555Q105.3 263.7805 105.3 264.9836ZM115.37813 268.06174L115.37813 267.2805Q114.78438 268.20236 113.64375 268.20236Q112.89375 268.20236 112.26875 267.7961Q111.64375 267.37424 111.3 266.63986Q110.95625 265.9055 110.95625 264.95236Q110.95625 264.0305 111.26875 263.26486Q111.58125 262.49924 112.20625 262.1086Q112.83125 261.70236 113.59688 261.70236Q114.15938 261.70236 114.59688 261.93674Q115.03438 262.1711 115.31563 262.5461L115.31563 259.468L116.3625 259.468L116.3625 268.06174L115.37813 268.06174ZM112.05 264.95236Q112.05 266.1555 112.55 266.74924Q113.05 267.32736 113.7375 267.32736Q114.425 267.32736 114.90938 266.76486Q115.39375 266.20236 115.39375 265.0461Q115.39375 263.76486 114.89375 263.1711Q114.40938 262.57736 113.69063 262.57736Q112.9875 262.57736 112.51875 263.1555Q112.05 263.718 112.05 264.95236ZM122.40938 267.2961Q121.81563 267.7961 121.26875 267.99924Q120.7375 268.20236 120.1125 268.20236Q119.08125 268.20236 118.53438 267.70236Q117.9875 267.20236 117.9875 266.4211Q117.9875 265.968 118.19063 265.593Q118.39375 265.20236 118.7375 264.9836Q119.08125 264.74924 119.50313 264.63986Q119.8 264.5461 120.44063 264.468Q121.70625 264.32736 122.31563 264.1086Q122.31563 263.88986 122.31563 263.843Q122.31563 263.18674 122.01875 262.9211Q121.6125 262.57736 120.81563 262.57736Q120.08125 262.57736 119.72188 262.843Q119.3625 263.093 119.19063 263.74924L118.15938 263.6086Q118.3 262.95236 118.62813 262.5461Q118.95625 262.13986 119.56563 261.9211Q120.175 261.70236 120.97188 261.70236Q121.76875 261.70236 122.26875 261.88986Q122.76875 262.07736 123.00313 262.3586Q123.2375 262.63986 123.33125 263.07736Q123.37813 263.343 123.37813 264.0461L123.37813 265.45236Q123.37813 266.9211 123.44063 267.31174Q123.51875 267.70236 123.72188 268.06174L122.6125 268.06174Q122.45625 267.7336 122.40938 267.2961ZM122.31563 264.93674Q121.7375 265.1711 120.59688 265.343Q119.94063 265.43674 119.675 265.56174Q119.40938 265.6711 119.25313 265.88986Q119.1125 266.1086 119.1125 266.38986Q119.1125 266.81174 119.425 267.093Q119.75313 267.37424 120.3625 267.37424Q120.97188 267.37424 121.44063 267.1086Q121.925 266.843 122.14375 266.37424Q122.31563 266.01486 122.31563 265.32736L122.31563 264.93674ZM127.64375 267.12424L127.8 268.0461Q127.34688 268.13986 127.00313 268.13986Q126.425 268.13986 126.1125 267.968Q125.8 267.7805 125.65938 267.4836Q125.53438 267.18674 125.53438 266.2336L125.53438 262.6555L124.76875 262.6555L124.76875 261.843L125.53438 261.843L125.53438 260.2961L126.58125 259.6711L126.58125 261.843L127.64375 261.843L127.64375 262.6555L126.58125 262.6555L126.58125 266.2961Q126.58125 266.74924 126.62813 266.87424Q126.69063 266.99924 126.81563 267.07736Q126.94063 267.1555 127.175 267.1555Q127.3625 267.1555 127.64375 267.12424ZM132.59688 266.06174L133.69063 266.18674Q133.44063 267.13986 132.7375 267.6711Q132.03438 268.20236 130.95625 268.20236Q129.59688 268.20236 128.78438 267.3586Q127.9875 266.51486 127.9875 264.99924Q127.9875 263.43674 128.8 262.57736Q129.6125 261.70236 130.89375 261.70236Q132.14375 261.70236 132.925 262.5461Q133.72188 263.38986 133.72188 264.93674Q133.72188 265.0305 133.72188 265.218L129.08125 265.218Q129.14375 266.24924 129.65938 266.7961Q130.175 267.32736 130.95625 267.32736Q131.53438 267.32736 131.94063 267.0305Q132.3625 266.718 132.59688 266.06174ZM129.14375 264.3586L132.6125 264.3586Q132.55 263.56174 132.22188 263.1711Q131.70625 262.56174 130.90938 262.56174Q130.175 262.56174 129.675 263.0461Q129.19063 263.5305 129.14375 264.3586ZM134.925 266.20236L135.95625 266.0461Q136.05 266.6711 136.44063 266.99924Q136.84688 267.32736 137.58125 267.32736Q138.3 267.32736 138.64375 267.0461Q139.00313 266.74924 139.00313 266.343Q139.00313 265.9836 138.69063 265.7805Q138.47188 265.63986 137.6125 265.4211Q136.45625 265.12424 136.00313 264.9211Q135.56563 264.70236 135.33125 264.32736Q135.09688 263.95236 135.09688 263.4836Q135.09688 263.07736 135.28438 262.718Q135.47188 262.3586 135.8 262.12424Q136.05 261.95236 136.47188 261.82736Q136.89375 261.70236 137.39375 261.70236Q138.1125 261.70236 138.65938 261.9211Q139.22188 262.12424 139.4875 262.4836Q139.75313 262.843 139.84688 263.43674L138.81563 263.57736Q138.75313 263.1086 138.40938 262.843Q138.08125 262.56174 137.45625 262.56174Q136.7375 262.56174 136.425 262.81174Q136.1125 263.0461 136.1125 263.37424Q136.1125 263.57736 136.2375 263.7336Q136.37813 263.9055 136.64375 264.01486Q136.8 264.07736 137.58125 264.2805Q138.70625 264.593 139.14375 264.7805Q139.58125 264.968 139.83125 265.32736Q140.08125 265.68674 140.08125 266.2336Q140.08125 266.76486 139.76875 267.2336Q139.47188 267.68674 138.89375 267.95236Q138.31563 268.20236 137.58125 268.20236Q136.3625 268.20236 135.72188 267.70236Q135.09688 267.18674 134.925 266.20236Z" fill-rule="nonzero"/><path fill="#9e9e9e" d="M19.05 282.7961L20.1125 282.6555Q20.284374 283.5461 20.721874 283.95236Q21.159374 284.343 21.784374 284.343Q22.534374 284.343 23.05 283.82736Q23.565624 283.31174 23.565624 282.5461Q23.565624 281.82736 23.08125 281.3586Q22.6125 280.87424 21.878124 280.87424Q21.58125 280.87424 21.128124 280.99924L21.253124 280.06174Q21.3625 280.07736 21.425 280.07736Q22.096874 280.07736 22.628124 279.7336Q23.175 279.37424 23.175 278.63986Q23.175 278.06174 22.784374 277.68674Q22.39375 277.2961 21.76875 277.2961Q21.159374 277.2961 20.7375 277.68674Q20.33125 278.07736 20.221874 278.843L19.159374 278.6555Q19.346874 277.6086 20.034374 277.0305Q20.721874 276.43674 21.7375 276.43674Q22.440624 276.43674 23.034374 276.74924Q23.628124 277.0461 23.940624 277.56174Q24.253124 278.07736 24.253124 278.6711Q24.253124 279.218 23.95625 279.68674Q23.659374 280.13986 23.08125 280.4055Q23.83125 280.57736 24.253124 281.13986Q24.675 281.68674 24.675 282.5305Q24.675 283.6555 23.846874 284.43674Q23.034374 285.218 21.784374 285.218Q20.659374 285.218 19.909374 284.5461Q19.159374 283.8586 19.05 282.7961ZM26.05 282.7961L27.1125 282.6555Q27.284374 283.5461 27.721874 283.95236Q28.159374 284.343 28.784374 284.343Q29.534374 284.343 30.05 283.82736Q30.565624 283.31174 30.565624 282.5461Q30.565624 281.82736 30.08125 281.3586Q29.6125 280.87424 28.878124 280.87424Q28.58125 280.87424 28.128124 280.99924L28.253124 280.06174Q28.3625 280.07736 28.425 280.07736Q29.096874 280.07736 29.628124 279.7336Q30.175 279.37424 30.175 278.63986Q30.175 278.06174 29.784374 277.68674Q29.39375 277.2961 28.76875 277.2961Q28.159374 277.2961 27.7375 277.68674Q27.33125 278.07736 27.221874 278.843L26.159374 278.6555Q26.346874 277.6086 27.034374 277.0305Q27.721874 276.43674 28.7375 276.43674Q29.440624 276.43674 30.034374 276.74924Q30.628124 277.0461 30.940624 277.56174Q31.253124 278.07736 31.253124 278.6711Q31.253124 279.218 30.95625 279.68674Q30.659374 280.13986 30.08125 280.4055Q30.83125 280.57736 31.253124 281.13986Q31.675 281.68674 31.675 282.5305Q31.675 283.6555 30.846874 284.43674Q30.034374 285.218 28.784374 285.218Q27.659374 285.218 26.909374 284.5461Q26.159374 283.8586 26.05 282.7961ZM33.64375 285.06174L33.64375 283.8586L34.846874 283.8586L34.846874 285.06174L33.64375 285.06174ZM36.05 280.82736Q36.05 279.2961 36.3625 278.37424Q36.675 277.43674 37.284374 276.93674Q37.909374 276.43674 38.846874 276.43674Q39.534374 276.43674 40.05 276.718Q40.58125 276.99924 40.925 277.5305Q41.26875 278.0461 41.45625 278.7961Q41.64375 279.5461 41.64375 280.82736Q41.64375 282.343 41.33125 283.26486Q41.034374 284.18674 40.409374 284.70236Q39.8 285.20236 38.846874 285.20236Q37.6125 285.20236 36.89375 284.31174Q36.05 283.24924 36.05 280.82736ZM37.128124 280.82736Q37.128124 282.93674 37.628124 283.63986Q38.128124 284.343 38.846874 284.343Q39.58125 284.343 40.065624 283.63986Q40.565624 282.93674 40.565624 280.82736Q40.565624 278.70236 40.065624 278.01486Q39.58125 277.31174 38.83125 277.31174Q38.1125 277.31174 37.675 277.9211Q37.128124 278.70236 37.128124 280.82736ZM43.253124 278.5305Q43.253124 277.6086 43.70625 276.968Q44.175 276.32736 45.05 276.32736Q45.8625 276.32736 46.39375 276.9055Q46.925 277.4836 46.925 278.593Q46.925 279.68674 46.378124 280.2805Q45.846874 280.8586 45.065624 280.8586Q44.284374 280.8586 43.76875 280.2805Q43.253124 279.70236 43.253124 278.5305ZM45.08125 277.0461Q44.690624 277.0461 44.425 277.38986Q44.175 277.7336 44.175 278.63986Q44.175 279.468 44.425 279.81174Q44.690624 280.13986 45.08125 280.13986Q45.4875 280.13986 45.7375 279.7961Q46.003124 279.45236 46.003124 278.56174Q46.003124 277.718 45.7375 277.38986Q45.471874 277.0461 45.08125 277.0461ZM45.08125 285.37424L49.784374 276.32736L50.64375 276.32736L45.95625 285.37424L45.08125 285.37424ZM48.8 283.0461Q48.8 282.12424 49.253124 281.4836Q49.721874 280.843 50.6125 280.843Q51.425 280.843 51.95625 281.4211Q52.4875 281.9836 52.4875 283.1086Q52.4875 284.20236 51.940624 284.7961Q51.409374 285.37424 50.6125 285.37424Q49.846874 285.37424 49.315624 284.7961Q48.8 284.218 48.8 283.0461ZM50.64375 281.56174Q50.2375 281.56174 49.971874 281.9055Q49.721874 282.24924 49.721874 283.1555Q49.721874 283.968 49.9875 284.31174Q50.253124 284.6555 50.64375 284.6555Q51.034374 284.6555 51.3 284.31174Q51.565624 283.968 51.565624 283.06174Q51.565624 282.2336 51.3 281.9055Q51.034374 281.56174 50.64375 281.56174Z" fill-rule="nonzero"/><path stroke="#757575" stroke-width="1.0" stroke-linecap="butt" d="M18.55 272.56174L319.23334 272.56174L390.9293 272.56174" fill-rule="nonzero"/><path fill="#9e9e9e" d="M392.9293 272.56174C392.9293 271.45718 392.03387 270.56174 390.9293 270.56174C389.8247 270.56174 388.9293 271.45718 388.9293 272.56174C388.9293 273.66632 389.8247 274.56174 390.9293 274.56174C392.03387 274.56174 392.9293 273.66632 392.9293 272.56174" fill-rule="nonzero"/><path fill="#1a1a1a" d="M831.5125 164.88234L832.6375 165.17921Q832.27814 166.56984 831.35626 167.30421Q830.4344 168.03859 829.09064 168.03859Q827.7 168.03859 826.825 167.47609Q825.95 166.91359 825.4969 165.85109Q825.04376 164.77296 825.04376 163.53859Q825.04376 162.19484 825.5594 161.19484Q826.075 160.19484 827.0125 159.67921Q827.96564 159.16359 829.10626 159.16359Q830.3875 159.16359 831.2625 159.81984Q832.15314 160.47609 832.4969 161.66359L831.3719 161.92921Q831.075 160.99171 830.4969 160.56984Q829.9344 160.13234 829.075 160.13234Q828.09064 160.13234 827.41876 160.61671Q826.7625 161.08546 826.48126 161.88234Q826.21564 162.67921 826.21564 163.53859Q826.21564 164.63234 826.52814 165.44484Q826.85626 166.25734 827.52814 166.66359Q828.2 167.06984 828.9969 167.06984Q829.95 167.06984 830.60626 166.52296Q831.27814 165.97609 831.5125 164.88234ZM833.85626 164.78859Q833.85626 163.05421 834.8094 162.22609Q835.60626 161.53859 836.7625 161.53859Q838.04376 161.53859 838.85626 162.38234Q839.6844 163.21046 839.6844 164.69484Q839.6844 165.89796 839.325 166.58546Q838.96564 167.27296 838.2625 167.66359Q837.575 168.03859 836.7625 168.03859Q835.46564 168.03859 834.65314 167.21046Q833.85626 166.36671 833.85626 164.78859ZM834.9344 164.78859Q834.9344 165.97609 835.45 166.56984Q835.98126 167.16359 836.7625 167.16359Q837.5594 167.16359 838.075 166.56984Q838.59064 165.97609 838.59064 164.75734Q838.59064 163.60109 838.0594 163.00734Q837.54376 162.41359 836.7625 162.41359Q835.98126 162.41359 835.45 163.00734Q834.9344 163.58546 834.9344 164.78859ZM841.2469 167.89796L841.2469 161.67921L842.1844 161.67921L842.1844 162.55421Q842.48126 162.08546 842.96564 161.81984Q843.45 161.53859 844.075 161.53859Q844.7625 161.53859 845.2 161.81984Q845.65314 162.10109 845.825 162.61671Q846.575 161.53859 847.7469 161.53859Q848.6844 161.53859 849.16876 162.05421Q849.66876 162.55421 849.66876 163.63234L849.66876 167.89796L848.6219 167.89796L848.6219 163.97609Q848.6219 163.35109 848.5125 163.06984Q848.41876 162.78859 848.15314 162.61671Q847.8875 162.44484 847.5125 162.44484Q846.85626 162.44484 846.41876 162.88234Q845.9969 163.31984 845.9969 164.28859L845.9969 167.89796L844.9344 167.89796L844.9344 163.85109Q844.9344 163.14796 844.66876 162.80421Q844.41876 162.44484 843.84064 162.44484Q843.3875 162.44484 843.0125 162.67921Q842.6375 162.91359 842.46564 163.36671Q842.29376 163.81984 842.29376 164.66359L842.29376 167.89796L841.2469 167.89796ZM851.2469 167.89796L851.2469 161.67921L852.1844 161.67921L852.1844 162.55421Q852.48126 162.08546 852.96564 161.81984Q853.45 161.53859 854.075 161.53859Q854.7625 161.53859 855.2 161.81984Q855.65314 162.10109 855.825 162.61671Q856.575 161.53859 857.7469 161.53859Q858.6844 161.53859 859.16876 162.05421Q859.66876 162.55421 859.66876 163.63234L859.66876 167.89796L858.6219 167.89796L858.6219 163.97609Q858.6219 163.35109 858.5125 163.06984Q858.41876 162.78859 858.15314 162.61671Q857.8875 162.44484 857.5125 162.44484Q856.85626 162.44484 856.41876 162.88234Q855.9969 163.31984 855.9969 164.28859L855.9969 167.89796L854.9344 167.89796L854.9344 163.85109Q854.9344 163.14796 854.66876 162.80421Q854.41876 162.44484 853.84064 162.44484Q853.3875 162.44484 853.0125 162.67921Q852.6375 162.91359 852.46564 163.36671Q852.29376 163.81984 852.29376 164.66359L852.29376 167.89796L851.2469 167.89796ZM865.325 167.89796L865.325 166.97609Q864.59064 168.03859 863.34064 168.03859Q862.79376 168.03859 862.3094 167.83546Q861.84064 167.61671 861.60626 167.30421Q861.3719 166.97609 861.27814 166.50734Q861.21564 166.21046 861.21564 165.52296L861.21564 161.67921L862.27814 161.67921L862.27814 165.13234Q862.27814 165.94484 862.34064 166.24171Q862.4344 166.64796 862.7469 166.89796Q863.075 167.13234 863.5594 167.13234Q864.02814 167.13234 864.4344 166.89796Q864.85626 166.64796 865.02814 166.22609Q865.21564 165.80421 865.21564 165.00734L865.21564 161.67921L866.2625 161.67921L866.2625 167.89796L865.325 167.89796ZM868.2469 167.89796L868.2469 161.67921L869.1844 161.67921L869.1844 162.55421Q869.8719 161.53859 871.16876 161.53859Q871.73126 161.53859 872.2 161.74171Q872.6844 161.94484 872.91876 162.27296Q873.15314 162.60109 873.2469 163.03859Q873.29376 163.33546 873.29376 164.06984L873.29376 167.89796L872.2469 167.89796L872.2469 164.11671Q872.2469 163.46046 872.1219 163.14796Q871.9969 162.83546 871.6844 162.64796Q871.3719 162.44484 870.95 162.44484Q870.27814 162.44484 869.77814 162.88234Q869.29376 163.30421 869.29376 164.49171L869.29376 167.89796L868.2469 167.89796ZM875.2469 160.52296L875.2469 159.30421L876.3094 159.30421L876.3094 160.52296L875.2469 160.52296ZM875.2469 167.89796L875.2469 161.67921L876.3094 161.67921L876.3094 167.89796L875.2469 167.89796ZM880.54376 166.96046L880.7 167.88234Q880.2469 167.97609 879.90314 167.97609Q879.325 167.97609 879.0125 167.80421Q878.7 167.61671 878.5594 167.31984Q878.4344 167.02296 878.4344 166.06984L878.4344 162.49171L877.66876 162.49171L877.66876 161.67921L878.4344 161.67921L878.4344 160.13234L879.48126 159.50734L879.48126 161.67921L880.54376 161.67921L880.54376 162.49171L879.48126 162.49171L879.48126 166.13234Q879.48126 166.58546 879.52814 166.71046Q879.59064 166.83546 879.71564 166.91359Q879.84064 166.99171 880.075 166.99171Q880.2625 166.99171 880.54376 166.96046ZM881.2 170.28859L881.075 169.30421Q881.41876 169.39796 881.6844 169.39796Q882.02814 169.39796 882.23126 169.27296Q882.45 169.16359 882.59064 168.96046Q882.6844 168.78859 882.91876 168.16359Q882.9344 168.08546 883.0125 167.91359L880.6375 161.67921L881.77814 161.67921L883.075 165.27296Q883.325 165.96046 883.52814 166.72609Q883.71564 165.99171 883.96564 165.30421L885.29376 161.67921L886.34064 161.67921L883.98126 168.00734Q883.59064 169.02296 883.3875 169.41359Q883.10626 169.94484 882.73126 170.17921Q882.3719 170.42921 881.8719 170.42921Q881.575 170.42921 881.2 170.28859ZM896.0125 159.30421L897.15314 159.30421L897.15314 164.27296Q897.15314 165.56984 896.85626 166.33546Q896.5594 167.08546 895.79376 167.56984Q895.02814 168.03859 893.79376 168.03859Q892.59064 168.03859 891.8094 167.63234Q891.04376 167.21046 890.71564 166.42921Q890.3875 165.63234 890.3875 164.27296L890.3875 159.30421L891.52814 159.30421L891.52814 164.25734Q891.52814 165.38234 891.73126 165.91359Q891.95 166.44484 892.45 166.74171Q892.96564 167.02296 893.7 167.02296Q894.95 167.02296 895.48126 166.46046Q896.0125 165.88234 896.0125 164.25734L896.0125 159.30421ZM899.2469 170.28859L899.2469 161.67921L900.2 161.67921L900.2 162.47609Q900.54376 162.00734 900.96564 161.77296Q901.40314 161.53859 902.0125 161.53859Q902.8094 161.53859 903.41876 161.94484Q904.02814 162.35109 904.325 163.10109Q904.6375 163.85109 904.6375 164.74171Q904.6375 165.69484 904.29376 166.46046Q903.96564 167.22609 903.3094 167.63234Q902.65314 168.03859 901.9344 168.03859Q901.40314 168.03859 900.98126 167.81984Q900.5594 167.58546 900.29376 167.25734L900.29376 170.28859L899.2469 170.28859ZM900.2 164.81984Q900.2 166.02296 900.6844 166.60109Q901.16876 167.16359 901.85626 167.16359Q902.5594 167.16359 903.0594 166.56984Q903.5594 165.97609 903.5594 164.72609Q903.5594 163.53859 903.075 162.96046Q902.59064 162.36671 901.90314 162.36671Q901.23126 162.36671 900.71564 162.99171Q900.2 163.61671 900.2 164.81984ZM910.27814 167.89796L910.27814 167.11671Q909.6844 168.03859 908.54376 168.03859Q907.79376 168.03859 907.16876 167.63234Q906.54376 167.21046 906.2 166.47609Q905.85626 165.74171 905.85626 164.78859Q905.85626 163.86671 906.16876 163.10109Q906.48126 162.33546 907.10626 161.94484Q907.73126 161.53859 908.4969 161.53859Q909.0594 161.53859 909.4969 161.77296Q909.9344 162.00734 910.21564 162.38234L910.21564 159.30421L911.2625 159.30421L911.2625 167.89796L910.27814 167.89796ZM906.95 164.78859Q906.95 165.99171 907.45 166.58546Q907.95 167.16359 908.6375 167.16359Q909.325 167.16359 909.8094 166.60109Q910.29376 166.03859 910.29376 164.88234Q910.29376 163.60109 909.79376 163.00734Q909.3094 162.41359 908.59064 162.41359Q907.8875 162.41359 907.41876 162.99171Q906.95 163.55421 906.95 164.78859ZM917.3094 167.13234Q916.71564 167.63234 916.16876 167.83546Q915.6375 168.03859 915.0125 168.03859Q913.98126 168.03859 913.4344 167.53859Q912.8875 167.03859 912.8875 166.25734Q912.8875 165.80421 913.09064 165.42921Q913.29376 165.03859 913.6375 164.81984Q913.98126 164.58546 914.40314 164.47609Q914.7 164.38234 915.34064 164.30421Q916.60626 164.16359 917.21564 163.94484Q917.21564 163.72609 917.21564 163.67921Q917.21564 163.02296 916.91876 162.75734Q916.5125 162.41359 915.71564 162.41359Q914.98126 162.41359 914.6219 162.67921Q914.2625 162.92921 914.09064 163.58546L913.0594 163.44484Q913.2 162.78859 913.52814 162.38234Q913.85626 161.97609 914.46564 161.75734Q915.075 161.53859 915.8719 161.53859Q916.66876 161.53859 917.16876 161.72609Q917.66876 161.91359 917.90314 162.19484Q918.1375 162.47609 918.23126 162.91359Q918.27814 163.17921 918.27814 163.88234L918.27814 165.28859Q918.27814 166.75734 918.34064 167.14796Q918.41876 167.53859 918.6219 167.89796L917.5125 167.89796Q917.35626 167.56984 917.3094 167.13234ZM917.21564 164.77296Q916.6375 165.00734 915.4969 165.17921Q914.84064 165.27296 914.575 165.39796Q914.3094 165.50734 914.15314 165.72609Q914.0125 165.94484 914.0125 166.22609Q914.0125 166.64796 914.325 166.92921Q914.65314 167.21046 915.2625 167.21046Q915.8719 167.21046 916.34064 166.94484Q916.825 166.67921 917.04376 166.21046Q917.21564 165.85109 917.21564 165.16359L917.21564 164.77296ZM922.54376 166.96046L922.7 167.88234Q922.2469 167.97609 921.90314 167.97609Q921.325 167.97609 921.0125 167.80421Q920.7 167.61671 920.5594 167.31984Q920.4344 167.02296 920.4344 166.06984L920.4344 162.49171L919.66876 162.49171L919.66876 161.67921L920.4344 161.67921L920.4344 160.13234L921.48126 159.50734L921.48126 161.67921L922.54376 161.67921L922.54376 162.49171L921.48126 162.49171L921.48126 166.13234Q921.48126 166.58546 921.52814 166.71046Q921.59064 166.83546 921.71564 166.91359Q921.84064 166.99171 922.075 166.99171Q922.2625 166.99171 922.54376 166.96046ZM927.4969 165.89796L928.59064 166.02296Q928.34064 166.97609 927.6375 167.50734Q926.9344 168.03859 925.85626 168.03859Q924.4969 168.03859 923.6844 167.19484Q922.8875 166.35109 922.8875 164.83546Q922.8875 163.27296 923.7 162.41359Q924.5125 161.53859 925.79376 161.53859Q927.04376 161.53859 927.825 162.38234Q928.6219 163.22609 928.6219 164.77296Q928.6219 164.86671 928.6219 165.05421L923.98126 165.05421Q924.04376 166.08546 924.5594 166.63234Q925.075 167.16359 925.85626 167.16359Q926.4344 167.16359 926.84064 166.86671Q927.2625 166.55421 927.4969 165.89796ZM924.04376 164.19484L927.5125 164.19484Q927.45 163.39796 927.1219 163.00734Q926.60626 162.39796 925.8094 162.39796Q925.075 162.39796 924.575 162.88234Q924.09064 163.36671 924.04376 164.19484Z" fill-rule="nonzero"/><path fill="#9e9e9e" d="M898.325 184.89796L898.325 182.83546L894.60626 182.83546L894.60626 181.86671L898.52814 176.30421L899.3875 176.30421L899.3875 181.86671L900.54376 181.86671L900.54376 182.83546L899.3875 182.83546L899.3875 184.89796L898.325 184.89796ZM898.325 181.86671L898.325 178.00734L895.6375 181.86671L898.325 181.86671ZM901.95 182.63234L903.0125 182.49171Q903.1844 183.38234 903.6219 183.78859Q904.0594 184.17921 904.6844 184.17921Q905.4344 184.17921 905.95 183.66359Q906.46564 183.14796 906.46564 182.38234Q906.46564 181.66359 905.98126 181.19484Q905.5125 180.71046 904.77814 180.71046Q904.48126 180.71046 904.02814 180.83546L904.15314 179.89796Q904.2625 179.91359 904.325 179.91359Q904.9969 179.91359 905.52814 179.56984Q906.075 179.21046 906.075 178.47609Q906.075 177.89796 905.6844 177.52296Q905.29376 177.13234 904.66876 177.13234Q904.0594 177.13234 903.6375 177.52296Q903.23126 177.91359 903.1219 178.67921L902.0594 178.49171Q902.2469 177.44484 902.9344 176.86671Q903.6219 176.27296 904.6375 176.27296Q905.34064 176.27296 905.9344 176.58546Q906.52814 176.88234 906.84064 177.39796Q907.15314 177.91359 907.15314 178.50734Q907.15314 179.05421 906.85626 179.52296Q906.5594 179.97609 905.98126 180.24171Q906.73126 180.41359 907.15314 180.97609Q907.575 181.52296 907.575 182.36671Q907.575 183.49171 906.7469 184.27296Q905.9344 185.05421 904.6844 185.05421Q903.5594 185.05421 902.8094 184.38234Q902.0594 183.69484 901.95 182.63234ZM909.54376 184.89796L909.54376 183.69484L910.7469 183.69484L910.7469 184.89796L909.54376 184.89796ZM911.95 182.64796L913.0594 182.55421Q913.1844 183.36671 913.6219 183.77296Q914.075 184.17921 914.71564 184.17921Q915.46564 184.17921 915.9969 183.60109Q916.52814 183.02296 916.52814 182.08546Q916.52814 181.17921 916.0125 180.66359Q915.5125 180.13234 914.6844 180.13234Q914.1844 180.13234 913.7625 180.36671Q913.35626 180.60109 913.1219 180.96046L912.1375 180.83546L912.96564 176.42921L917.2469 176.42921L917.2469 177.42921L913.8094 177.42921L913.35626 179.74171Q914.1219 179.19484 914.96564 179.19484Q916.09064 179.19484 916.85626 179.97609Q917.6375 180.75734 917.6375 181.99171Q917.6375 183.14796 916.96564 184.00734Q916.1375 185.03859 914.71564 185.03859Q913.54376 185.03859 912.79376 184.38234Q912.0594 183.72609 911.95 182.64796ZM919.15314 178.36671Q919.15314 177.44484 919.60626 176.80421Q920.075 176.16359 920.95 176.16359Q921.7625 176.16359 922.29376 176.74171Q922.825 177.31984 922.825 178.42921Q922.825 179.52296 922.27814 180.11671Q921.7469 180.69484 920.96564 180.69484Q920.1844 180.69484 919.66876 180.11671Q919.15314 179.53859 919.15314 178.36671ZM920.98126 176.88234Q920.59064 176.88234 920.325 177.22609Q920.075 177.56984 920.075 178.47609Q920.075 179.30421 920.325 179.64796Q920.59064 179.97609 920.98126 179.97609Q921.3875 179.97609 921.6375 179.63234Q921.90314 179.28859 921.90314 178.39796Q921.90314 177.55421 921.6375 177.22609Q921.3719 176.88234 920.98126 176.88234ZM920.98126 185.21046L925.6844 176.16359L926.54376 176.16359L921.85626 185.21046L920.98126 185.21046ZM924.7 182.88234Q924.7 181.96046 925.15314 181.31984Q925.6219 180.67921 926.5125 180.67921Q927.325 180.67921 927.85626 181.25734Q928.3875 181.81984 928.3875 182.94484Q928.3875 184.03859 927.84064 184.63234Q927.3094 185.21046 926.5125 185.21046Q925.7469 185.21046 925.21564 184.63234Q924.7 184.05421 924.7 182.88234ZM926.54376 181.39796Q926.1375 181.39796 925.8719 181.74171Q925.6219 182.08546 925.6219 182.99171Q925.6219 183.80421 925.8875 184.14796Q926.15314 184.49171 926.54376 184.49171Q926.9344 184.49171 927.2 184.14796Q927.46564 183.80421 927.46564 182.89796Q927.46564 182.06984 927.2 181.74171Q926.9344 181.39796 926.54376 181.39796Z" fill-rule="nonzero"/><path stroke="#757575" stroke-width="1.0" stroke-linecap="butt" d="M929.45 172.39796L628.76666 172.39796L612.3723 172.39796" fill-rule="nonzero"/><path fill="#9e9e9e" d="M614.3723 172.39796C614.3723 171.2934 613.47687 170.39796 612.3723 170.39796C611.26776 170.39796 610.3723 171.2934 610.3723 172.39796C610.3723 173.50253 611.26776 174.39796 612.3723 174.39796C613.47687 174.39796 614.3723 173.50253 614.3723 172.39796" fill-rule="nonzero"/><path fill="#757575" d="M20.08125 37.55L20.08125 23.2375L22.01875 23.2375L29.534374 34.471874L29.534374 23.2375L31.346874 23.2375L31.346874 37.55L29.409374 37.55L21.89375 26.3L21.89375 37.55L20.08125 37.55ZM40.971874 34.20625L42.784374 34.440624Q42.3625 36.01875 41.190624 36.909374Q40.034374 37.784374 38.221874 37.784374Q35.95625 37.784374 34.6125 36.39375Q33.284374 34.9875 33.284374 32.45625Q33.284374 29.83125 34.628124 28.39375Q35.971874 26.940624 38.128124 26.940624Q40.20625 26.940624 41.51875 28.3625Q42.846874 29.76875 42.846874 32.346874Q42.846874 32.503124 42.83125 32.815624L35.096874 32.815624Q35.190624 34.51875 36.065624 35.425Q36.940624 36.33125 38.2375 36.33125Q39.20625 36.33125 39.878124 35.83125Q40.565624 35.315624 40.971874 34.20625ZM35.190624 31.3625L40.9875 31.3625Q40.878124 30.065624 40.33125 29.409374Q39.4875 28.39375 38.14375 28.39375Q36.940624 28.39375 36.1125 29.20625Q35.284374 30.003124 35.190624 31.3625ZM44.846874 37.55L44.846874 27.175L46.425 27.175L46.425 28.753124Q47.034374 27.64375 47.55 27.3Q48.065624 26.940624 48.675 26.940624Q49.565624 26.940624 50.4875 27.503124L49.878124 29.14375Q49.2375 28.753124 48.596874 28.753124Q48.01875 28.753124 47.55 29.1125Q47.096874 29.45625 46.89375 30.065624Q46.6125 31.003124 46.6125 32.1125L46.6125 37.55L44.846874 37.55ZM54.753124 37.55L50.8 27.175L52.659374 27.175L54.89375 33.39375Q55.253124 34.39375 55.55 35.471874Q55.784374 34.659374 56.20625 33.503124L58.503124 27.175L60.315624 27.175L56.39375 37.55L54.753124 37.55ZM61.221874 32.3625Q61.221874 29.4875 62.815624 28.096874Q64.15938 26.940624 66.08125 26.940624Q68.22188 26.940624 69.56563 28.346874Q70.925 29.753124 70.925 32.221874Q70.925 34.221874 70.33125 35.378124Q69.7375 36.51875 68.58125 37.159374Q67.44063 37.784374 66.08125 37.784374Q63.89375 37.784374 62.55 36.39375Q61.221874 34.9875 61.221874 32.3625ZM63.01875 32.3625Q63.01875 34.3625 63.878124 35.346874Q64.75313 36.33125 66.08125 36.33125Q67.39375 36.33125 68.25313 35.346874Q69.12813 34.346874 69.12813 32.3Q69.12813 30.378124 68.25313 29.39375Q67.37813 28.39375 66.08125 28.39375Q64.75313 28.39375 63.878124 29.39375Q63.01875 30.378124 63.01875 32.3625ZM72.15938 34.45625L73.90938 34.175Q74.05 35.221874 74.72188 35.784374Q75.39375 36.33125 76.59688 36.33125Q77.8 36.33125 78.37813 35.846874Q78.97188 35.346874 78.97188 34.690624Q78.97188 34.096874 78.45625 33.753124Q78.09688 33.51875 76.65938 33.159374Q74.72188 32.659374 73.97188 32.315624Q73.2375 31.95625 72.84688 31.33125Q72.45625 30.690624 72.45625 29.925Q72.45625 29.2375 72.76875 28.64375Q73.09688 28.05 73.64375 27.659374Q74.05 27.3625 74.75313 27.159374Q75.47188 26.940624 76.28438 26.940624Q77.50313 26.940624 78.425 27.3Q79.34688 27.64375 79.78438 28.253124Q80.22188 28.846874 80.39375 29.846874L78.675 30.08125Q78.55 29.284374 77.9875 28.846874Q77.425 28.39375 76.40938 28.39375Q75.19063 28.39375 74.675 28.8Q74.15938 29.190624 74.15938 29.721874Q74.15938 30.065624 74.37813 30.346874Q74.58125 30.628124 75.05 30.815624Q75.31563 30.909374 76.59688 31.253124Q78.47188 31.753124 79.20625 32.08125Q79.94063 32.39375 80.3625 33.003124Q80.78438 33.596874 80.78438 34.503124Q80.78438 35.378124 80.26875 36.159374Q79.75313 36.940624 78.78438 37.3625Q77.81563 37.784374 76.59688 37.784374Q74.58125 37.784374 73.51875 36.940624Q72.45625 36.096874 72.15938 34.45625ZM88.22188 32.3625Q88.22188 29.4875 89.81563 28.096874Q91.15938 26.940624 93.08125 26.940624Q95.22188 26.940624 96.56563 28.346874Q97.925 29.753124 97.925 32.221874Q97.925 34.221874 97.33125 35.378124Q96.7375 36.51875 95.58125 37.159374Q94.44063 37.784374 93.08125 37.784374Q90.89375 37.784374 89.55 36.39375Q88.22188 34.9875 88.22188 32.3625ZM90.01875 32.3625Q90.01875 34.3625 90.87813 35.346874Q91.75313 36.33125 93.08125 36.33125Q94.39375 36.33125 95.25313 35.346874Q96.12813 34.346874 96.12813 32.3Q96.12813 30.378124 95.25313 29.39375Q94.37813 28.39375 93.08125 28.39375Q91.75313 28.39375 90.87813 29.39375Q90.01875 30.378124 90.01875 32.3625ZM99.8625 37.55L99.8625 27.175L101.45625 27.175L101.45625 28.659374Q102.59688 26.940624 104.75313 26.940624Q105.69063 26.940624 106.47188 27.284374Q107.26875 27.6125 107.65938 28.159374Q108.05 28.70625 108.20625 29.45625Q108.3 29.95625 108.3 31.175L108.3 37.55L106.53438 37.55L106.53438 31.2375Q106.53438 30.159374 106.33125 29.628124Q106.12813 29.096874 105.59688 28.784374Q105.08125 28.471874 104.37813 28.471874Q103.25313 28.471874 102.44063 29.190624Q101.62813 29.89375 101.62813 31.878124L101.62813 37.55L99.8625 37.55ZM110.83125 37.55L110.83125 23.2375L112.58125 23.2375L112.58125 37.55L110.83125 37.55ZM114.87813 25.253124L114.87813 23.2375L116.64375 23.2375L116.64375 25.253124L114.87813 25.253124ZM114.87813 37.55L114.87813 27.175L116.64375 27.175L116.64375 37.55L114.87813 37.55ZM118.8625 37.55L118.8625 27.175L120.45625 27.175L120.45625 28.659374Q121.59688 26.940624 123.75313 26.940624Q124.69063 26.940624 125.47188 27.284374Q126.26875 27.6125 126.65938 28.159374Q127.05 28.70625 127.20625 29.45625Q127.3 29.95625 127.3 31.175L127.3 37.55L125.53438 37.55L125.53438 31.2375Q125.53438 30.159374 125.33125 29.628124Q125.12813 29.096874 124.59688 28.784374Q124.08125 28.471874 123.37813 28.471874Q122.25313 28.471874 121.44063 29.190624Q120.62813 29.89375 120.62813 31.878124L120.62813 37.55L118.8625 37.55ZM136.97188 34.20625L138.78438 34.440624Q138.3625 36.01875 137.19063 36.909374Q136.03438 37.784374 134.22188 37.784374Q131.95625 37.784374 130.6125 36.39375Q129.28438 34.9875 129.28438 32.45625Q129.28438 29.83125 130.62813 28.39375Q131.97188 26.940624 134.12813 26.940624Q136.20625 26.940624 137.51875 28.3625Q138.84688 29.76875 138.84688 32.346874Q138.84688 32.503124 138.83125 32.815624L131.09688 32.815624Q131.19063 34.51875 132.06563 35.425Q132.94063 36.33125 134.2375 36.33125Q135.20625 36.33125 135.87813 35.83125Q136.56563 35.315624 136.97188 34.20625ZM131.19063 31.3625L136.9875 31.3625Q136.87813 30.065624 136.33125 29.409374Q135.4875 28.39375 134.14375 28.39375Q132.94063 28.39375 132.1125 29.20625Q131.28438 30.003124 131.19063 31.3625ZM153.64375 33.753124L155.3625 33.971874Q155.08125 35.76875 153.90938 36.784374Q152.75313 37.784374 151.05 37.784374Q148.925 37.784374 147.62813 36.39375Q146.33125 35.003124 146.33125 32.409374Q146.33125 30.721874 146.87813 29.471874Q147.44063 28.20625 148.58125 27.58125Q149.72188 26.940624 151.06563 26.940624Q152.75313 26.940624 153.81563 27.8Q154.89375 28.659374 155.20625 30.221874L153.4875 30.4875Q153.25313 29.440624 152.62813 28.925Q152.00313 28.39375 151.12813 28.39375Q149.8 28.39375 148.97188 29.346874Q148.14375 30.3 148.14375 32.346874Q148.14375 34.440624 148.94063 35.39375Q149.7375 36.33125 151.03438 36.33125Q152.06563 36.33125 152.75313 35.70625Q153.45625 35.065624 153.64375 33.753124ZM156.22188 32.3625Q156.22188 29.4875 157.81563 28.096874Q159.15938 26.940624 161.08125 26.940624Q163.22188 26.940624 164.56563 28.346874Q165.925 29.753124 165.925 32.221874Q165.925 34.221874 165.33125 35.378124Q164.7375 36.51875 163.58125 37.159374Q162.44063 37.784374 161.08125 37.784374Q158.89375 37.784374 157.55 36.39375Q156.22188 34.9875 156.22188 32.3625ZM158.01875 32.3625Q158.01875 34.3625 158.87813 35.346874Q159.75313 36.33125 161.08125 36.33125Q162.39375 36.33125 163.25313 35.346874Q164.12813 34.346874 164.12813 32.3Q164.12813 30.378124 163.25313 29.39375Q162.37813 28.39375 161.08125 28.39375Q159.75313 28.39375 158.87813 29.39375Q158.01875 30.378124 158.01875 32.3625ZM167.8625 37.55L167.8625 27.175L169.45625 27.175L169.45625 28.659374Q170.59688 26.940624 172.75313 26.940624Q173.69063 26.940624 174.47188 27.284374Q175.26875 27.6125 175.65938 28.159374Q176.05 28.70625 176.20625 29.45625Q176.3 29.95625 176.3 31.175L176.3 37.55L174.53438 37.55L174.53438 31.2375Q174.53438 30.159374 174.33125 29.628124Q174.12813 29.096874 173.59688 28.784374Q173.08125 28.471874 172.37813 28.471874Q171.25313 28.471874 170.44063 29.190624Q169.62813 29.89375 169.62813 31.878124L169.62813 37.55L167.8625 37.55ZM182.70625 35.971874L182.95625 37.534374Q182.22188 37.690624 181.62813 37.690624Q180.675 37.690624 180.14375 37.39375Q179.62813 37.08125 179.40938 36.596874Q179.19063 36.096874 179.19063 34.51875L179.19063 28.55L177.90938 28.55L177.90938 27.175L179.19063 27.175L179.19063 24.6125L180.94063 23.55L180.94063 27.175L182.70625 27.175L182.70625 28.55L180.94063 28.55L180.94063 34.6125Q180.94063 35.3625 181.03438 35.58125Q181.12813 35.784374 181.33125 35.925Q181.55 36.05 181.94063 36.05Q182.22188 36.05 182.70625 35.971874ZM191.97188 34.20625L193.78438 34.440624Q193.3625 36.01875 192.19063 36.909374Q191.03438 37.784374 189.22188 37.784374Q186.95625 37.784374 185.6125 36.39375Q184.28438 34.9875 184.28438 32.45625Q184.28438 29.83125 185.62813 28.39375Q186.97188 26.940624 189.12813 26.940624Q191.20625 26.940624 192.51875 28.3625Q193.84688 29.76875 193.84688 32.346874Q193.84688 32.503124 193.83125 32.815624L186.09688 32.815624Q186.19063 34.51875 187.06563 35.425Q187.94063 36.33125 189.2375 36.33125Q190.20625 36.33125 190.87813 35.83125Q191.56563 35.315624 191.97188 34.20625ZM186.19063 31.3625L191.9875 31.3625Q191.87813 30.065624 191.33125 29.409374Q190.4875 28.39375 189.14375 28.39375Q187.94063 28.39375 187.1125 29.20625Q186.28438 30.003124 186.19063 31.3625ZM195.8625 37.55L195.8625 27.175L197.45625 27.175L197.45625 28.659374Q198.59688 26.940624 200.75313 26.940624Q201.69063 26.940624 202.47188 27.284374Q203.26875 27.6125 203.65938 28.159374Q204.05 28.70625 204.20625 29.45625Q204.3 29.95625 204.3 31.175L204.3 37.55L202.53438 37.55L202.53438 31.2375Q202.53438 30.159374 202.33125 29.628124Q202.12813 29.096874 201.59688 28.784374Q201.08125 28.471874 200.37813 28.471874Q199.25313 28.471874 198.44063 29.190624Q197.62813 29.89375 197.62813 31.878124L197.62813 37.55L195.8625 37.55ZM210.70625 35.971874L210.95625 37.534374Q210.22188 37.690624 209.62813 37.690624Q208.675 37.690624 208.14375 37.39375Q207.62813 37.08125 207.40938 36.596874Q207.19063 36.096874 207.19063 34.51875L207.19063 28.55L205.90938 28.55L205.90938 27.175L207.19063 27.175L207.19063 24.6125L208.94063 23.55L208.94063 27.175L210.70625 27.175L210.70625 28.55L208.94063 28.55L208.94063 34.6125Q208.94063 35.3625 209.03438 35.58125Q209.12813 35.784374 209.33125 35.925Q209.55 36.05 209.94063 36.05Q210.22188 36.05 210.70625 35.971874Z" fill-rule="nonzero"/></svg>